<?xml version="1.0" encoding="UTF-8"?>
<!DOCTYPE svg PUBLIC "-//W3C//DTD SVG 1.1//EN" "http://www.w3.org/Graphics/SVG/1.1/DTD/svg11.dtd">
<svg xmlns="http://www.w3.org/2000/svg" version="1.1" width="168px" height="254px" style="shape-rendering:geometricPrecision; text-rendering:geometricPrecision; image-rendering:optimizeQuality; fill-rule:evenodd; clip-rule:evenodd" xmlns:xlink="http://www.w3.org/1999/xlink">
<g><path style="opacity:1" fill="#9d3741" d="M 61.5,-0.5 C 62.1667,-0.5 62.8333,-0.5 63.5,-0.5C 63.5,1.16667 63.5,2.83333 63.5,4.5C 62.8333,4.5 62.1667,4.5 61.5,4.5C 61.5,2.83333 61.5,1.16667 61.5,-0.5 Z"/></g>
<g><path style="opacity:1" fill="#950625" d="M 99.5,-0.5 C 114.167,-0.5 128.833,-0.5 143.5,-0.5C 142.646,1.03503 142.646,2.36837 143.5,3.5C 143.5,3.83333 143.5,4.16667 143.5,4.5C 143.5,4.83333 143.5,5.16667 143.5,5.5C 137.798,5.70377 132.465,7.0371 127.5,9.5C 121.99,10.2628 116.657,11.5961 111.5,13.5C 106.168,14.7625 100.835,15.7625 95.5,16.5C 90.021,16.1286 84.6877,15.1286 79.5,13.5C 79.6168,15.4835 78.9501,17.1502 77.5,18.5C 74.1756,19.8276 71.1756,21.661 68.5,24C 69.5266,24.5133 70.5266,25.0133 71.5,25.5C 71.5,26.8333 70.8333,27.5 69.5,27.5C 66.2492,28.5095 63.2492,28.5095 60.5,27.5C 65.1874,23.9688 70.1874,20.6354 75.5,17.5C 76.2508,16.624 76.7508,15.624 77,14.5C 79.6847,13.4187 81.8514,11.7521 83.5,9.5C 88.8772,8.30677 93.8772,6.30677 98.5,3.5C 99.4287,2.31116 99.762,0.977822 99.5,-0.5 Z"/></g>
<g><path style="opacity:1" fill="#a73528" d="M 143.5,-0.5 C 146.833,-0.5 150.167,-0.5 153.5,-0.5C 153.423,0.749754 152.756,1.58309 151.5,2C 148.937,3.07926 146.271,3.57926 143.5,3.5C 142.646,2.36837 142.646,1.03503 143.5,-0.5 Z"/></g>
<g><path style="opacity:1" fill="#aa9093" d="M 159.5,-0.5 C 160.5,-0.5 161.5,-0.5 162.5,-0.5C 162.5,-0.166667 162.5,0.166667 162.5,0.5C 160.972,1.80208 159.972,3.46875 159.5,5.5C 159.5,4.5 159.5,3.5 159.5,2.5C 159.5,1.83333 159.5,1.16667 159.5,0.5C 159.5,0.166667 159.5,-0.166667 159.5,-0.5 Z"/></g>
<g><path style="opacity:1" fill="#a65a5a" d="M 51.5,-0.5 C 52.5,-0.5 53.5,-0.5 54.5,-0.5C 54.3253,1.6208 54.6586,3.6208 55.5,5.5C 52.2244,4.87845 50.8911,2.87845 51.5,-0.5 Z"/></g>
<g><path style="opacity:1" fill="#f3e8d8" d="M 54.5,-0.5 C 56.5,-0.5 58.5,-0.5 60.5,-0.5C 60.6235,3.03994 58.9568,5.03994 55.5,5.5C 54.6586,3.6208 54.3253,1.6208 54.5,-0.5 Z"/></g>
<g><path style="opacity:1" fill="#611b14" d="M 153.5,-0.5 C 155.5,-0.5 157.5,-0.5 159.5,-0.5C 159.5,-0.166667 159.5,0.166667 159.5,0.5C 156.654,0.589656 154.321,1.75632 152.5,4C 149.518,4.49796 146.518,4.66463 143.5,4.5C 143.5,4.16667 143.5,3.83333 143.5,3.5C 146.271,3.57926 148.937,3.07926 151.5,2C 152.756,1.58309 153.423,0.749754 153.5,-0.5 Z"/></g>
<g><path style="opacity:1" fill="#a71a56" d="M -0.5,-0.5 C 0.5,-0.5 1.5,-0.5 2.5,-0.5C 1.65762,4.78696 1.32429,10.1203 1.5,15.5C 0.833333,15.5 0.166667,15.5 -0.5,15.5C -0.5,10.1667 -0.5,4.83333 -0.5,-0.5 Z"/></g>
<g><path style="opacity:1" fill="#9c131b" d="M 2.5,-0.5 C 3.83333,-0.5 5.16667,-0.5 6.5,-0.5C 6.5,2.5 6.5,5.5 6.5,8.5C 7.5,8.5 8.5,8.5 9.5,8.5C 9.42082,7.06953 9.75415,5.73619 10.5,4.5C 13.4465,3.67855 16.4465,3.17855 19.5,3C 21.3237,2.34001 22.657,1.17335 23.5,-0.5C 25.5,-0.5 27.5,-0.5 29.5,-0.5C 20.1627,4.63233 10.8293,9.96567 1.5,15.5C 1.32429,10.1203 1.65762,4.78696 2.5,-0.5 Z"/></g>
<g><path style="opacity:1" fill="#9b0230" d="M 6.5,-0.5 C 12.1667,-0.5 17.8333,-0.5 23.5,-0.5C 22.657,1.17335 21.3237,2.34001 19.5,3C 16.4465,3.17855 13.4465,3.67855 10.5,4.5C 9.75415,5.73619 9.42082,7.06953 9.5,8.5C 8.5,8.5 7.5,8.5 6.5,8.5C 6.5,5.5 6.5,2.5 6.5,-0.5 Z"/></g>
<g><path style="opacity:1" fill="#f8c2bb" d="M 60.5,-0.5 C 60.8333,-0.5 61.1667,-0.5 61.5,-0.5C 61.5,1.16667 61.5,2.83333 61.5,4.5C 60.8658,5.94678 59.6991,6.61345 58,6.5C 56.9302,6.47196 56.0968,6.13863 55.5,5.5C 58.9568,5.03994 60.6235,3.03994 60.5,-0.5 Z"/></g>
<g><path style="opacity:1" fill="#d8653e" d="M 29.5,-0.5 C 30.8333,-0.5 32.1667,-0.5 33.5,-0.5C 31.7301,2.25312 30.3968,5.25312 29.5,8.5C 29.5,8.83333 29.5,9.16667 29.5,9.5C 28.8333,9.5 28.1667,9.5 27.5,9.5C 25.7165,8.54497 23.7165,7.8783 21.5,7.5C 18.297,8.60614 15.297,9.93948 12.5,11.5C 9.05384,13.1092 5.72051,14.9426 2.5,17C 3.64055,17.7412 3.64055,18.5745 2.5,19.5C 3.32496,20.3857 4.32496,20.719 5.5,20.5C 5.5,20.8333 5.5,21.1667 5.5,21.5C 4.83333,21.5 4.5,21.8333 4.5,22.5C 2.83333,22.5 1.16667,22.5 -0.5,22.5C -0.5,20.1667 -0.5,17.8333 -0.5,15.5C 0.166667,15.5 0.833333,15.5 1.5,15.5C 10.8293,9.96567 20.1627,4.63233 29.5,-0.5 Z"/></g>
<g><path style="opacity:1" fill="#651620" d="M 143.5,5.5 C 139.82,5.84888 136.82,7.51555 134.5,10.5C 132.097,10.552 129.764,10.2186 127.5,9.5C 132.465,7.0371 137.798,5.70377 143.5,5.5 Z"/></g>
<g><path style="opacity:1" fill="#431d1d" d="M 159.5,0.5 C 159.5,1.16667 159.5,1.83333 159.5,2.5C 157.152,2.59225 155.486,3.59225 154.5,5.5C 152.623,5.90027 151.123,6.90027 150,8.5C 146.879,7.46407 143.713,7.29741 140.5,8C 139.529,9.48131 138.196,10.3146 136.5,10.5C 135.833,10.5 135.167,10.5 134.5,10.5C 136.82,7.51555 139.82,5.84888 143.5,5.5C 143.5,5.16667 143.5,4.83333 143.5,4.5C 146.518,4.66463 149.518,4.49796 152.5,4C 154.321,1.75632 156.654,0.589656 159.5,0.5 Z"/></g>
<g><path style="opacity:1" fill="#ac251c" d="M 33.5,-0.5 C 34.5,-0.5 35.5,-0.5 36.5,-0.5C 36.6848,1.8896 38.0182,2.8896 40.5,2.5C 42.1886,2.27414 43.8553,1.9408 45.5,1.5C 46.7133,1.25284 47.38,0.586173 47.5,-0.5C 48.5,-0.5 49.5,-0.5 50.5,-0.5C 50.5,0.5 50.5,1.5 50.5,2.5C 49.5,2.5 48.5,2.5 47.5,2.5C 47.5,4.16667 47.5,5.83333 47.5,7.5C 41.5461,9.33008 35.5461,9.66341 29.5,8.5C 30.3968,5.25312 31.7301,2.25312 33.5,-0.5 Z"/></g>
<g><path style="opacity:1" fill="#a3222d" d="M 36.5,-0.5 C 40.1667,-0.5 43.8333,-0.5 47.5,-0.5C 47.38,0.586173 46.7133,1.25284 45.5,1.5C 43.8553,1.9408 42.1886,2.27414 40.5,2.5C 38.0182,2.8896 36.6848,1.8896 36.5,-0.5 Z"/></g>
<g><path style="opacity:1" fill="#972007" d="M 95.5,-0.5 C 96.8333,-0.5 98.1667,-0.5 99.5,-0.5C 99.762,0.977822 99.4287,2.31116 98.5,3.5C 93.8772,6.30677 88.8772,8.30677 83.5,9.5C 87.904,6.63414 91.904,3.30081 95.5,-0.5 Z"/></g>
<g><path style="opacity:1" fill="#a12a1e" d="M 50.5,-0.5 C 50.8333,-0.5 51.1667,-0.5 51.5,-0.5C 50.8911,2.87845 52.2244,4.87845 55.5,5.5C 56.0968,6.13863 56.9302,6.47196 58,6.5C 59.6991,6.61345 60.8658,5.94678 61.5,4.5C 62.1667,4.5 62.8333,4.5 63.5,4.5C 63.4894,6.01739 62.8228,7.18405 61.5,8C 58.2475,8.79129 55.2475,8.29129 52.5,6.5C 50.7099,7.78626 49.0432,9.28626 47.5,11C 44.1444,11.8719 41.1444,13.3719 38.5,15.5C 38.5,14.5 38.5,13.5 38.5,12.5C 36.1944,12.0074 33.861,11.6741 31.5,11.5C 30.8333,10.8333 30.1667,10.1667 29.5,9.5C 29.5,9.16667 29.5,8.83333 29.5,8.5C 35.5461,9.66341 41.5461,9.33008 47.5,7.5C 47.5,5.83333 47.5,4.16667 47.5,2.5C 48.5,2.5 49.5,2.5 50.5,2.5C 50.5,1.5 50.5,0.5 50.5,-0.5 Z"/></g>
<g><path style="opacity:1" fill="#b06462" d="M 127.5,9.5 C 129.764,10.2186 132.097,10.552 134.5,10.5C 135.167,10.5 135.833,10.5 136.5,10.5C 136.5,10.8333 136.5,11.1667 136.5,11.5C 125.65,11.2038 115.316,13.2038 105.5,17.5C 106.975,15.3101 108.975,13.9767 111.5,13.5C 116.657,11.5961 121.99,10.2628 127.5,9.5 Z"/></g>
<g><path style="opacity:1" fill="#e29c93" d="M 27.5,9.5 C 28.1667,9.5 28.8333,9.5 29.5,9.5C 30.1667,10.1667 30.8333,10.8333 31.5,11.5C 30.9569,11.56 30.6236,11.8933 30.5,12.5C 31.6016,13.1757 32.6016,13.8423 33.5,14.5C 32.1667,14.5 30.8333,14.5 29.5,14.5C 28.9045,11.8875 28.0712,11.8875 27,14.5C 26.5172,13.552 26.3505,12.552 26.5,11.5C 27.3382,11.1583 27.6716,10.4916 27.5,9.5 Z"/></g>
<g><path style="opacity:1" fill="#d96e25" d="M 17.5,15.5 C 15.1992,16.0604 12.8659,16.5604 10.5,17C 9.21075,18.8022 7.54408,19.9688 5.5,20.5C 4.32496,20.719 3.32496,20.3857 2.5,19.5C 3.64055,18.5745 3.64055,17.7412 2.5,17C 5.72051,14.9426 9.05384,13.1092 12.5,11.5C 15.0837,11.583 17.7503,11.583 20.5,11.5C 18.7118,12.2826 17.7118,13.6159 17.5,15.5 Z"/></g>
<g><path style="opacity:1" fill="#950828" d="M 95.5,16.5 C 92.0508,17.9695 88.3841,19.1362 84.5,20C 83.7476,20.6708 83.4142,21.5041 83.5,22.5C 79.1997,22.7547 75.1997,23.7547 71.5,25.5C 70.5266,25.0133 69.5266,24.5133 68.5,24C 71.1756,21.661 74.1756,19.8276 77.5,18.5C 78.9501,17.1502 79.6168,15.4835 79.5,13.5C 84.6877,15.1286 90.021,16.1286 95.5,16.5 Z"/></g>
<g><path style="opacity:1" fill="#eec0a7" d="M 136.5,11.5 C 139.291,13.7468 142.291,15.9134 145.5,18C 146.758,19.7409 147.758,21.5742 148.5,23.5C 149.396,33.4679 149.729,43.4679 149.5,53.5C 149.5,54.1667 149.5,54.8333 149.5,55.5C 148.833,56.5 148.167,57.5 147.5,58.5C 144.75,56.3018 141.583,54.9684 138,54.5C 131.801,55.5054 125.634,56.6721 119.5,58C 118.944,58.3826 118.611,58.8826 118.5,59.5C 116.5,59.8333 114.5,60.1667 112.5,60.5C 112.193,74.37 112.526,88.2034 113.5,102C 109.501,106.469 105.168,106.635 100.5,102.5C 101.94,90.8563 103.273,79.1897 104.5,67.5C 104.489,65.9549 104.156,64.6216 103.5,63.5C 103.799,61.396 103.466,59.396 102.5,57.5C 99.6495,54.64 96.3161,52.64 92.5,51.5C 83.9362,44.9277 74.2695,42.7611 63.5,45C 62.3094,45.6979 61.3094,46.5313 60.5,47.5C 60.316,45.0752 59.6493,45.0752 58.5,47.5C 57.479,46.9984 57.3123,46.3317 58,45.5C 59.5843,44.1387 61.4176,43.472 63.5,43.5C 63.3601,41.8762 64.0267,40.7096 65.5,40C 70.076,40.0684 74.7427,39.9017 79.5,39.5C 79.5,36.8333 79.5,34.1667 79.5,31.5C 76.2655,30.424 72.9322,29.7573 69.5,29.5C 69.1412,31.7659 69.8078,33.5993 71.5,35C 68.8333,35.6667 66.1667,35.6667 63.5,35C 62.7476,34.3292 62.4142,33.4959 62.5,32.5C 63.1667,32.5 63.5,32.1667 63.5,31.5C 65.7837,31.0248 67.7837,30.0248 69.5,28.5C 74.4544,26.094 79.7878,24.4273 85.5,23.5C 89.1397,22.85 92.473,21.35 95.5,19C 98.8796,18.6614 102.213,18.1614 105.5,17.5C 115.316,13.2038 125.65,11.2038 136.5,11.5 Z"/></g>
<g><path style="opacity:1" fill="#a82d19" d="M 27.5,9.5 C 27.6716,10.4916 27.3382,11.1583 26.5,11.5C 25.2616,13.2143 24.595,15.2143 24.5,17.5C 24.2525,19.8583 24.9192,21.8583 26.5,23.5C 24.6406,24.5942 22.6406,25.4275 20.5,26C 18.9625,27.7073 17.2959,29.2073 15.5,30.5C 13.5567,28.0287 12.5567,25.0287 12.5,21.5C 14.5,21.5 16.5,21.5 18.5,21.5C 18.3573,19.7376 18.6906,18.0709 19.5,16.5C 19.0431,15.7025 18.3764,15.3691 17.5,15.5C 17.7118,13.6159 18.7118,12.2826 20.5,11.5C 17.7503,11.583 15.0837,11.583 12.5,11.5C 15.297,9.93948 18.297,8.60614 21.5,7.5C 23.7165,7.8783 25.7165,8.54497 27.5,9.5 Z"/></g>
<g><path style="opacity:1" fill="#b56c55" d="M 26.5,11.5 C 26.3505,12.552 26.5172,13.552 27,14.5C 28.0712,11.8875 28.9045,11.8875 29.5,14.5C 28.6586,16.3792 28.3253,18.3792 28.5,20.5C 27.6981,19.0484 27.1981,17.3817 27,15.5C 26.5831,16.756 25.7498,17.4226 24.5,17.5C 24.595,15.2143 25.2616,13.2143 26.5,11.5 Z"/></g>
<g><path style="opacity:1" fill="#912e35" d="M 111.5,13.5 C 108.975,13.9767 106.975,15.3101 105.5,17.5C 102.213,18.1614 98.8796,18.6614 95.5,19C 92.473,21.35 89.1397,22.85 85.5,23.5C 85.1583,22.6618 84.4916,22.3284 83.5,22.5C 83.4142,21.5041 83.7476,20.6708 84.5,20C 88.3841,19.1362 92.0508,17.9695 95.5,16.5C 100.835,15.7625 106.168,14.7625 111.5,13.5 Z"/></g>
<g><path style="opacity:1" fill="#f7830f" d="M 63.5,-0.5 C 74.1667,-0.5 84.8333,-0.5 95.5,-0.5C 91.904,3.30081 87.904,6.63414 83.5,9.5C 81.4068,10.0447 79.4068,10.878 77.5,12C 70.2499,18.2602 62.2499,23.2602 53.5,27C 51.7605,28.517 50.0938,30.017 48.5,31.5C 47.8333,31.5 47.5,31.8333 47.5,32.5C 43.3488,32.0993 40.0155,33.4326 37.5,36.5C 30.8199,36.1815 25.4865,38.5148 21.5,43.5C 19.2974,45.1002 16.964,46.4335 14.5,47.5C 12.8333,47.5 11.1667,47.5 9.5,47.5C 7.11752,49.0461 4.45085,49.7128 1.5,49.5C 1.5,45.1667 1.5,40.8333 1.5,36.5C 1.5,36.1667 1.5,35.8333 1.5,35.5C 4.79889,36.3761 8.13222,36.5428 11.5,36C 13.0368,34.8904 13.7035,33.3904 13.5,31.5C 14.4916,31.6716 15.1583,31.3382 15.5,30.5C 17.2959,29.2073 18.9625,27.7073 20.5,26C 22.6406,25.4275 24.6406,24.5942 26.5,23.5C 29.5184,23.6646 32.5184,23.498 35.5,23C 36.8115,20.5201 37.8115,18.0201 38.5,15.5C 41.1444,13.3719 44.1444,11.8719 47.5,11C 49.0432,9.28626 50.7099,7.78626 52.5,6.5C 55.2475,8.29129 58.2475,8.79129 61.5,8C 62.8228,7.18405 63.4894,6.01739 63.5,4.5C 63.5,2.83333 63.5,1.16667 63.5,-0.5 Z"/></g>
<g><path style="opacity:1" fill="#942206" d="M 83.5,9.5 C 81.8514,11.7521 79.6847,13.4187 77,14.5C 76.7508,15.624 76.2508,16.624 75.5,17.5C 70.1874,20.6354 65.1874,23.9688 60.5,27.5C 58.6943,28.0241 57.0276,28.6908 55.5,29.5C 53.4418,30.9331 51.1085,31.5997 48.5,31.5C 50.0938,30.017 51.7605,28.517 53.5,27C 62.2499,23.2602 70.2499,18.2602 77.5,12C 79.4068,10.878 81.4068,10.0447 83.5,9.5 Z"/></g>
<g><path style="opacity:1" fill="#9d2529" d="M 17.5,15.5 C 18.3764,15.3691 19.0431,15.7025 19.5,16.5C 18.6906,18.0709 18.3573,19.7376 18.5,21.5C 16.5,21.5 14.5,21.5 12.5,21.5C 12.5567,25.0287 13.5567,28.0287 15.5,30.5C 15.1583,31.3382 14.4916,31.6716 13.5,31.5C 13.1667,31.5 12.8333,31.5 12.5,31.5C 12.6574,28.656 11.324,26.9893 8.5,26.5C 8.41423,25.5041 8.74756,24.6708 9.5,24C 8.90558,23.5357 8.23891,23.369 7.5,23.5C 6.5,23.1667 5.83333,22.5 5.5,21.5C 5.5,21.1667 5.5,20.8333 5.5,20.5C 7.54408,19.9688 9.21075,18.8022 10.5,17C 12.8659,16.5604 15.1992,16.0604 17.5,15.5 Z"/></g>
<g><path style="opacity:1" fill="#f6e0d9" d="M 29.5,14.5 C 30.8333,14.5 32.1667,14.5 33.5,14.5C 35.7188,16.0654 36.0521,18.0654 34.5,20.5C 32.3635,21.7928 30.3635,21.7928 28.5,20.5C 28.3253,18.3792 28.6586,16.3792 29.5,14.5 Z"/></g>
<g><path style="opacity:1" fill="#413331" d="M 159.5,2.5 C 159.5,3.5 159.5,4.5 159.5,5.5C 159.325,8.32887 160.658,9.99554 163.5,10.5C 162.5,12.5 161.5,14.5 160.5,16.5C 161.635,24.4508 161.802,32.4508 161,40.5C 158.395,47.0264 156.228,53.693 154.5,60.5C 151.185,64.1353 149.185,68.4686 148.5,73.5C 147.876,73.0831 147.543,72.4164 147.5,71.5C 148.299,66.1782 148.965,60.8449 149.5,55.5C 149.5,54.8333 149.5,54.1667 149.5,53.5C 149.833,53.5 150.167,53.5 150.5,53.5C 150.192,55.924 150.526,58.2573 151.5,60.5C 151.833,59.8333 152.167,59.1667 152.5,58.5C 154.07,47.5881 153.737,36.7548 151.5,26C 152.65,22.7482 154.983,20.9148 158.5,20.5C 159.452,18.9547 159.785,17.288 159.5,15.5C 157.5,15.5 155.5,15.5 153.5,15.5C 154.051,12.1933 154.384,8.85994 154.5,5.5C 155.486,3.59225 157.152,2.59225 159.5,2.5 Z"/></g>
<g><path style="opacity:1" fill="#8e3c1d" d="M 31.5,11.5 C 33.861,11.6741 36.1944,12.0074 38.5,12.5C 38.5,13.5 38.5,14.5 38.5,15.5C 37.8115,18.0201 36.8115,20.5201 35.5,23C 32.5184,23.498 29.5184,23.6646 26.5,23.5C 24.9192,21.8583 24.2525,19.8583 24.5,17.5C 25.7498,17.4226 26.5831,16.756 27,15.5C 27.1981,17.3817 27.6981,19.0484 28.5,20.5C 30.3635,21.7928 32.3635,21.7928 34.5,20.5C 36.0521,18.0654 35.7188,16.0654 33.5,14.5C 32.6016,13.8423 31.6016,13.1757 30.5,12.5C 30.6236,11.8933 30.9569,11.56 31.5,11.5 Z"/></g>
<g><path style="opacity:1" fill="#f2a49a" d="M 5.5,21.5 C 5.83333,22.5 6.5,23.1667 7.5,23.5C 6.16667,24.8333 4.83333,26.1667 3.5,27.5C 2.95691,27.44 2.62358,27.1067 2.5,26.5C 3.17994,25.1401 3.84661,23.8068 4.5,22.5C 4.5,21.8333 4.83333,21.5 5.5,21.5 Z"/></g>
<g><path style="opacity:1" fill="#983352" d="M -0.5,22.5 C 1.16667,22.5 2.83333,22.5 4.5,22.5C 3.84661,23.8068 3.17994,25.1401 2.5,26.5C 2.62358,27.1067 2.95691,27.44 3.5,27.5C 2.76589,28.7079 2.43255,30.0413 2.5,31.5C 1.59603,32.209 1.26269,33.209 1.5,34.5C 0.833333,34.5 0.166667,34.5 -0.5,34.5C -0.5,30.5 -0.5,26.5 -0.5,22.5 Z"/></g>
<g><path style="opacity:1" fill="#864e3f" d="M 7.5,23.5 C 8.23891,23.369 8.90558,23.5357 9.5,24C 8.74756,24.6708 8.41423,25.5041 8.5,26.5C 5.08968,26.3838 3.75635,28.0504 4.5,31.5C 3.83333,31.5 3.16667,31.5 2.5,31.5C 2.43255,30.0413 2.76589,28.7079 3.5,27.5C 4.83333,26.1667 6.16667,24.8333 7.5,23.5 Z"/></g>
<g><path style="opacity:1" fill="#b5605f" d="M 83.5,22.5 C 84.4916,22.3284 85.1583,22.6618 85.5,23.5C 79.7878,24.4273 74.4544,26.094 69.5,28.5C 69.5,28.1667 69.5,27.8333 69.5,27.5C 70.8333,27.5 71.5,26.8333 71.5,25.5C 75.1997,23.7547 79.1997,22.7547 83.5,22.5 Z"/></g>
<g><path style="opacity:1" fill="#601827" d="M 69.5,27.5 C 69.5,27.8333 69.5,28.1667 69.5,28.5C 67.7837,30.0248 65.7837,31.0248 63.5,31.5C 61.5,31.5 59.5,31.5 57.5,31.5C 55.0065,31.8693 54.3398,31.2027 55.5,29.5C 57.0276,28.6908 58.6943,28.0241 60.5,27.5C 63.2492,28.5095 66.2492,28.5095 69.5,27.5 Z"/></g>
<g><path style="opacity:1" fill="#f1dbcd" d="M 8.5,26.5 C 11.324,26.9893 12.6574,28.656 12.5,31.5C 12.5858,32.4959 12.2524,33.3292 11.5,34C 9.19018,34.4966 6.85684,34.6633 4.5,34.5C 4.5,33.5 4.5,32.5 4.5,31.5C 3.75635,28.0504 5.08968,26.3838 8.5,26.5 Z"/></g>
<g><path style="opacity:1" fill="#621e14" d="M 55.5,29.5 C 54.3398,31.2027 55.0065,31.8693 57.5,31.5C 53.9205,32.6231 50.5872,34.2897 47.5,36.5C 47.0831,35.8761 46.4164,35.5427 45.5,35.5C 42.7213,36.3888 40.0546,37.5555 37.5,39C 35.5273,39.4955 33.5273,39.6621 31.5,39.5C 33.6287,38.7972 35.6287,37.7972 37.5,36.5C 41.0419,35.4597 44.3752,34.1263 47.5,32.5C 47.5,31.8333 47.8333,31.5 48.5,31.5C 51.1085,31.5997 53.4418,30.9331 55.5,29.5 Z"/></g>
<g><path style="opacity:1" fill="#993f16" d="M 2.5,31.5 C 3.16667,31.5 3.83333,31.5 4.5,31.5C 4.5,32.5 4.5,33.5 4.5,34.5C 6.85684,34.6633 9.19018,34.4966 11.5,34C 12.2524,33.3292 12.5858,32.4959 12.5,31.5C 12.8333,31.5 13.1667,31.5 13.5,31.5C 13.7035,33.3904 13.0368,34.8904 11.5,36C 8.13222,36.5428 4.79889,36.3761 1.5,35.5C 1.5,35.1667 1.5,34.8333 1.5,34.5C 1.26269,33.209 1.59603,32.209 2.5,31.5 Z"/></g>
<g><path style="opacity:1" fill="#ce7222" d="M 47.5,32.5 C 44.3752,34.1263 41.0419,35.4597 37.5,36.5C 40.0155,33.4326 43.3488,32.0993 47.5,32.5 Z"/></g>
<g><path style="opacity:1" fill="#c56d19" d="M 37.5,36.5 C 35.6287,37.7972 33.6287,38.7972 31.5,39.5C 31.5,39.8333 31.5,40.1667 31.5,40.5C 28.1295,41.5757 24.7961,42.5757 21.5,43.5C 25.4865,38.5148 30.8199,36.1815 37.5,36.5 Z"/></g>
<g><path style="opacity:1" fill="#7b574b" d="M 148.5,23.5 C 149.222,23.9175 149.722,24.5842 150,25.5C 150.5,34.8274 150.666,44.1607 150.5,53.5C 150.167,53.5 149.833,53.5 149.5,53.5C 149.729,43.4679 149.396,33.4679 148.5,23.5 Z"/></g>
<g><path style="opacity:1" fill="#cd5a4d" d="M -0.5,34.5 C 0.166667,34.5 0.833333,34.5 1.5,34.5C 1.5,34.8333 1.5,35.1667 1.5,35.5C 1.5,35.8333 1.5,36.1667 1.5,36.5C 0.833333,40.1667 0.166667,43.8333 -0.5,47.5C -0.5,43.1667 -0.5,38.8333 -0.5,34.5 Z"/></g>
<g><path style="opacity:1" fill="#dd7b3c" d="M 1.5,36.5 C 1.5,40.8333 1.5,45.1667 1.5,49.5C 4.45085,49.7128 7.11752,49.0461 9.5,47.5C 8.83333,48.5 8.16667,49.5 7.5,50.5C 5.5,50.5 3.5,50.5 1.5,50.5C 0.833333,50.5 0.166667,50.5 -0.5,50.5C -0.5,49.5 -0.5,48.5 -0.5,47.5C 0.166667,43.8333 0.833333,40.1667 1.5,36.5 Z"/></g>
<g><path style="opacity:1" fill="#7b5142" d="M 92.5,51.5 C 92.2089,52.6491 91.3756,53.3158 90,53.5C 81.2674,51.2393 72.4341,49.5726 63.5,48.5C 62.209,48.7373 61.209,48.404 60.5,47.5C 61.3094,46.5313 62.3094,45.6979 63.5,45C 74.2695,42.7611 83.9362,44.9277 92.5,51.5 Z"/></g>
<g><path style="opacity:1" fill="#803919" d="M 31.5,40.5 C 29.9934,41.9755 28.3268,43.3088 26.5,44.5C 24.9731,44.427 23.9731,45.0937 23.5,46.5C 22.1667,46.8333 20.8333,47.1667 19.5,47.5C 17.8333,47.5 16.1667,47.5 14.5,47.5C 16.964,46.4335 19.2974,45.1002 21.5,43.5C 24.7961,42.5757 28.1295,41.5757 31.5,40.5 Z"/></g>
<g><path style="opacity:1" fill="#efc1a7" d="M 60.5,47.5 C 61.209,48.404 62.209,48.7373 63.5,48.5C 66.2145,49.9581 69.2145,50.9581 72.5,51.5C 72.3333,51.8333 72.1667,52.1667 72,52.5C 67.9605,53.7564 63.7939,54.423 59.5,54.5C 59.5,56.8333 59.5,59.1667 59.5,61.5C 61.8333,61.5 64.1667,61.5 66.5,61.5C 69.7149,63.7765 73.3816,65.1098 77.5,65.5C 82.8876,65.9956 88.221,66.9956 93.5,68.5C 93.6781,71.3219 94.3448,73.9885 95.5,76.5C 95,79.5 94.5,82.5 94,85.5C 89.9021,88.7283 87.0688,92.7283 85.5,97.5C 84.2437,99.941 84.2437,102.274 85.5,104.5C 85.5,105.5 85.5,106.5 85.5,107.5C 89.6872,108.26 93.6872,109.593 97.5,111.5C 92.1688,114.243 86.5022,116.243 80.5,117.5C 78.1155,117.443 75.7822,117.777 73.5,118.5C 72.5581,118.392 71.7247,118.059 71,117.5C 70.654,115.782 70.154,114.115 69.5,112.5C 64.3998,112.09 59.5665,111.09 55,109.5C 54.7216,110.416 54.2216,111.082 53.5,111.5C 51.2256,104.741 49.3922,97.7414 48,90.5C 45.0688,82.3796 42.5688,74.2129 40.5,66C 40.7964,59.721 41.6297,53.5543 43,47.5C 46.0448,44.4534 49.3781,41.7867 53,39.5C 53.6172,38.5509 53.4506,37.7175 52.5,37C 54.3453,35.872 56.3453,35.372 58.5,35.5C 58.5,34.5 58.5,33.5 58.5,32.5C 59.8333,32.5 61.1667,32.5 62.5,32.5C 62.4142,33.4959 62.7476,34.3292 63.5,35C 66.1667,35.6667 68.8333,35.6667 71.5,35C 69.8078,33.5993 69.1412,31.7659 69.5,29.5C 72.9322,29.7573 76.2655,30.424 79.5,31.5C 79.5,34.1667 79.5,36.8333 79.5,39.5C 74.7427,39.9017 70.076,40.0684 65.5,40C 64.0267,40.7096 63.3601,41.8762 63.5,43.5C 61.4176,43.472 59.5843,44.1387 58,45.5C 57.3123,46.3317 57.479,46.9984 58.5,47.5C 59.6493,45.0752 60.316,45.0752 60.5,47.5 Z"/></g>
<g><path style="opacity:1" fill="#e9d1d3" d="M 162.5,0.5 C 162.5,0.166667 162.5,-0.166667 162.5,-0.5C 163.833,-0.5 165.167,-0.5 166.5,-0.5C 166.83,20.0069 166.497,40.3402 165.5,60.5C 165.667,43.83 165.5,27.1633 165,10.5C 165.083,6.68871 164.25,3.35538 162.5,0.5 Z"/></g>
<g><path style="opacity:1" fill="#36221c" d="M 154.5,5.5 C 154.384,8.85994 154.051,12.1933 153.5,15.5C 155.5,15.5 157.5,15.5 159.5,15.5C 159.785,17.288 159.452,18.9547 158.5,20.5C 154.983,20.9148 152.65,22.7482 151.5,26C 153.737,36.7548 154.07,47.5881 152.5,58.5C 152.167,59.1667 151.833,59.8333 151.5,60.5C 150.526,58.2573 150.192,55.924 150.5,53.5C 150.666,44.1607 150.5,34.8274 150,25.5C 149.722,24.5842 149.222,23.9175 148.5,23.5C 147.758,21.5742 146.758,19.7409 145.5,18C 142.291,15.9134 139.291,13.7468 136.5,11.5C 136.5,11.1667 136.5,10.8333 136.5,10.5C 138.196,10.3146 139.529,9.48131 140.5,8C 143.713,7.29741 146.879,7.46407 150,8.5C 151.123,6.90027 152.623,5.90027 154.5,5.5 Z"/></g>
<g><path style="opacity:1" fill="#7a4533" d="M 23.5,46.5 C 28.7965,48.7659 30.6298,52.7659 29,58.5C 27.9039,56.1108 27.0706,53.6108 26.5,51C 24.5273,50.5045 22.5273,50.3379 20.5,50.5C 20.5332,53.742 19.1998,54.0754 16.5,51.5C 18.2882,50.7174 19.2882,49.3841 19.5,47.5C 20.8333,47.1667 22.1667,46.8333 23.5,46.5 Z"/></g>
<g><path style="opacity:1" fill="#745545" d="M 9.5,47.5 C 11.1667,47.5 12.8333,47.5 14.5,47.5C 14.5,50.8333 14.5,54.1667 14.5,57.5C 12.8235,56.8166 12.1568,55.4832 12.5,53.5C 12.5,52.5 12.5,51.5 12.5,50.5C 10.8333,50.5 9.16667,50.5 7.5,50.5C 8.16667,49.5 8.83333,48.5 9.5,47.5 Z"/></g>
<g><path style="opacity:1" fill="#977091" d="M -0.5,50.5 C 0.166667,50.5 0.833333,50.5 1.5,50.5C 1.5,50.8333 1.5,51.1667 1.5,51.5C 1.71481,53.1788 1.04814,54.1788 -0.5,54.5C -0.5,53.1667 -0.5,51.8333 -0.5,50.5 Z"/></g>
<g><path style="opacity:1" fill="#3f211a" d="M 47.5,36.5 C 41.9083,40.0226 38.575,45.0226 37.5,51.5C 35.8643,55.2095 35.1977,59.2095 35.5,63.5C 34.6129,67.0958 33.6129,70.7624 32.5,74.5C 31.5489,73.0813 31.2155,71.4147 31.5,69.5C 31.6662,63.4908 31.4995,57.4908 31,51.5C 30.0617,48.7435 28.5617,46.4101 26.5,44.5C 28.3268,43.3088 29.9934,41.9755 31.5,40.5C 31.5,40.1667 31.5,39.8333 31.5,39.5C 33.5273,39.6621 35.5273,39.4955 37.5,39C 40.0546,37.5555 42.7213,36.3888 45.5,35.5C 46.4164,35.5427 47.0831,35.8761 47.5,36.5 Z"/></g>
<g><path style="opacity:1" fill="#f2f0ed" d="M 162.5,0.5 C 164.25,3.35538 165.083,6.68871 165,10.5C 165.5,27.1633 165.667,43.83 165.5,60.5C 164.5,60.5 163.5,60.5 162.5,60.5C 163.308,73.7435 161.975,86.7435 158.5,99.5C 156.876,99.6399 155.71,98.9733 155,97.5C 155.832,85.1682 155.665,72.8349 154.5,60.5C 156.228,53.693 158.395,47.0264 161,40.5C 161.802,32.4508 161.635,24.4508 160.5,16.5C 161.5,14.5 162.5,12.5 163.5,10.5C 160.658,9.99554 159.325,8.32887 159.5,5.5C 159.972,3.46875 160.972,1.80208 162.5,0.5 Z"/></g>
<g><path style="opacity:1" fill="#87876d" d="M 1.5,51.5 C 1.5,51.1667 1.5,50.8333 1.5,50.5C 3.5,50.5 5.5,50.5 7.5,50.5C 6.00117,52.4529 6.3345,54.1196 8.5,55.5C 7.67504,56.3857 6.67504,56.719 5.5,56.5C 4.5,56.5 3.5,56.5 2.5,56.5C 2.78448,54.5853 2.45115,52.9187 1.5,51.5 Z"/></g>
<g><path style="opacity:1" fill="#e1b29e" d="M 26.5,44.5 C 28.5617,46.4101 30.0617,48.7435 31,51.5C 31.4995,57.4908 31.6662,63.4908 31.5,69.5C 30.2469,74.2557 28.5802,78.9223 26.5,83.5C 26.5,83.8333 26.5,84.1667 26.5,84.5C 25.1667,84.5 23.8333,84.5 22.5,84.5C 19.678,76.2006 17.3447,67.8673 15.5,59.5C 15.6716,58.5084 15.3382,57.8417 14.5,57.5C 14.5,54.1667 14.5,50.8333 14.5,47.5C 16.1667,47.5 17.8333,47.5 19.5,47.5C 19.2882,49.3841 18.2882,50.7174 16.5,51.5C 19.1998,54.0754 20.5332,53.742 20.5,50.5C 22.5273,50.3379 24.5273,50.5045 26.5,51C 27.0706,53.6108 27.9039,56.1108 29,58.5C 30.6298,52.7659 28.7965,48.7659 23.5,46.5C 23.9731,45.0937 24.9731,44.427 26.5,44.5 Z"/></g>
<g><path style="opacity:1" fill="#cf9783" d="M 63.5,48.5 C 72.4341,49.5726 81.2674,51.2393 90,53.5C 91.3756,53.3158 92.2089,52.6491 92.5,51.5C 96.3161,52.64 99.6495,54.64 102.5,57.5C 103.466,59.396 103.799,61.396 103.5,63.5C 103.756,69.4099 100.923,72.0765 95,71.5C 94.7679,70.2625 94.2679,69.2625 93.5,68.5C 88.221,66.9956 82.8876,65.9956 77.5,65.5C 81.5138,65.6655 85.5138,65.4988 89.5,65C 90.3366,63.9887 90.67,62.8221 90.5,61.5C 87.0568,56.5097 82.2234,54.5097 76,55.5C 72.097,55.5154 68.2637,56.0154 64.5,57C 64.0426,57.414 63.7093,57.914 63.5,58.5C 64.3398,59.735 65.3398,60.735 66.5,61.5C 64.1667,61.5 61.8333,61.5 59.5,61.5C 59.5,59.1667 59.5,56.8333 59.5,54.5C 63.7939,54.423 67.9605,53.7564 72,52.5C 72.1667,52.1667 72.3333,51.8333 72.5,51.5C 69.2145,50.9581 66.2145,49.9581 63.5,48.5 Z"/></g>
<g><path style="opacity:1" fill="#68372d" d="M 90.5,61.5 C 89.0413,61.5674 87.7079,61.2341 86.5,60.5C 85.3951,59.3995 84.0618,58.7329 82.5,58.5C 80.4305,58.4486 78.5971,59.1153 77,60.5C 74.0782,59.6162 71.2448,58.6162 68.5,57.5C 68.8432,59.4832 68.1765,60.8166 66.5,61.5C 65.3398,60.735 64.3398,59.735 63.5,58.5C 63.7093,57.914 64.0426,57.414 64.5,57C 68.2637,56.0154 72.097,55.5154 76,55.5C 82.2234,54.5097 87.0568,56.5097 90.5,61.5 Z"/></g>
<g><path style="opacity:1" fill="#829b98" d="M 1.5,51.5 C 2.45115,52.9187 2.78448,54.5853 2.5,56.5C 3.5,56.5 4.5,56.5 5.5,56.5C 5.5,57.8333 5.5,59.1667 5.5,60.5C 4.5,60.5 3.5,60.5 2.5,60.5C 2.5,61.5 2.5,62.5 2.5,63.5C 2.10746,65.2838 1.4408,66.9505 0.5,68.5C 0.166667,68.5 -0.166667,68.5 -0.5,68.5C -0.5,63.8333 -0.5,59.1667 -0.5,54.5C 1.04814,54.1788 1.71481,53.1788 1.5,51.5 Z"/></g>
<g><path style="opacity:1" fill="#9b705f" d="M 37.5,51.5 C 37.8023,55.7905 37.1357,59.7905 35.5,63.5C 35.1977,59.2095 35.8643,55.2095 37.5,51.5 Z"/></g>
<g><path style="opacity:1" fill="#6b4135" d="M 147.5,58.5 C 147.5,59.8333 147.5,61.1667 147.5,62.5C 142.86,61.6027 138.194,61.4361 133.5,62C 136.997,63.8626 139.664,66.3626 141.5,69.5C 139.8,69.3739 138.3,68.7073 137,67.5C 134.98,68.0319 134.147,69.3652 134.5,71.5C 131.833,71.5 129.167,71.5 126.5,71.5C 125.5,71.5 124.5,71.5 123.5,71.5C 121.335,71.8841 119.668,71.2174 118.5,69.5C 121.048,66.2068 121.048,62.8735 118.5,59.5C 118.611,58.8826 118.944,58.3826 119.5,58C 125.634,56.6721 131.801,55.5054 138,54.5C 141.583,54.9684 144.75,56.3018 147.5,58.5 Z"/></g>
<g><path style="opacity:1" fill="#e5cbc8" d="M 82.5,58.5 C 84.0618,58.7329 85.3951,59.3995 86.5,60.5C 86.5858,61.4959 86.2524,62.3292 85.5,63C 83.1667,63.6667 80.8333,63.6667 78.5,63C 80.6437,62.2079 81.977,60.7079 82.5,58.5 Z"/></g>
<g><path style="opacity:1" fill="#e3e8de" d="M 7.5,50.5 C 9.16667,50.5 10.8333,50.5 12.5,50.5C 12.5,51.5 12.5,52.5 12.5,53.5C 11.5655,54.5676 11.2322,55.901 11.5,57.5C 8.47746,57.1052 7.47746,58.1052 8.5,60.5C 6.30517,65.433 4.63851,70.433 3.5,75.5C 3.81675,71.2984 3.48342,67.2984 2.5,63.5C 2.5,62.5 2.5,61.5 2.5,60.5C 3.5,60.5 4.5,60.5 5.5,60.5C 5.5,59.1667 5.5,57.8333 5.5,56.5C 6.67504,56.719 7.67504,56.3857 8.5,55.5C 6.3345,54.1196 6.00117,52.4529 7.5,50.5 Z"/></g>
<g><path style="opacity:1" fill="#986f5d" d="M 82.5,58.5 C 81.977,60.7079 80.6437,62.2079 78.5,63C 80.8333,63.6667 83.1667,63.6667 85.5,63C 86.2524,62.3292 86.5858,61.4959 86.5,60.5C 87.7079,61.2341 89.0413,61.5674 90.5,61.5C 90.67,62.8221 90.3366,63.9887 89.5,65C 85.5138,65.4988 81.5138,65.6655 77.5,65.5C 73.3816,65.1098 69.7149,63.7765 66.5,61.5C 68.1765,60.8166 68.8432,59.4832 68.5,57.5C 71.2448,58.6162 74.0782,59.6162 77,60.5C 78.5971,59.1153 80.4305,58.4486 82.5,58.5 Z"/></g>
<g><path style="opacity:1" fill="#b0b1ac" d="M 166.5,-0.5 C 166.833,-0.5 167.167,-0.5 167.5,-0.5C 167.5,30.8333 167.5,62.1667 167.5,93.5C 167.167,93.5 166.833,93.5 166.5,93.5C 166.664,90.8127 166.497,88.146 166,85.5C 163.411,91.0908 160.911,96.7575 158.5,102.5C 159.005,103.919 160.005,104.585 161.5,104.5C 162.167,104.5 162.833,104.5 163.5,104.5C 161.438,106.37 160.105,108.703 159.5,111.5C 158.901,108.157 157.568,105.157 155.5,102.5C 154.833,101.167 154.167,101.167 153.5,102.5C 154.215,105.709 155.382,108.709 157,111.5C 158.11,113.037 159.61,113.703 161.5,113.5C 161.233,116.875 160.233,120.042 158.5,123C 158.57,123.765 158.903,124.265 159.5,124.5C 158.933,126.03 158.267,127.53 157.5,129C 158.094,129.464 158.761,129.631 159.5,129.5C 158.791,130.404 157.791,130.737 156.5,130.5C 156.665,126.818 156.499,123.152 156,119.5C 153.725,114.733 152.225,109.733 151.5,104.5C 149.216,105.029 147.216,106.029 145.5,107.5C 143.05,107.298 140.717,107.631 138.5,108.5C 138.328,107.508 138.662,106.842 139.5,106.5C 142.41,105.461 144.91,103.794 147,101.5C 149.305,95.5966 150.972,89.5966 152,83.5C 149.139,87.7233 147.639,87.3899 147.5,82.5C 148.159,79.5448 148.492,76.5448 148.5,73.5C 149.185,68.4686 151.185,64.1353 154.5,60.5C 155.665,72.8349 155.832,85.1682 155,97.5C 155.71,98.9733 156.876,99.6399 158.5,99.5C 161.975,86.7435 163.308,73.7435 162.5,60.5C 163.5,60.5 164.5,60.5 165.5,60.5C 166.497,40.3402 166.83,20.0069 166.5,-0.5 Z"/></g>
<g><path style="opacity:1" fill="#61987d" d="M 12.5,53.5 C 12.1568,55.4832 12.8235,56.8166 14.5,57.5C 15.3382,57.8417 15.6716,58.5084 15.5,59.5C 15.5,60.1667 15.5,60.8333 15.5,61.5C 13.8333,61.5 12.1667,61.5 10.5,61.5C 10.5958,65.6801 9.42913,69.3468 7,72.5C 6.02298,77.7926 5.52298,83.1259 5.5,88.5C 4.88258,88.3893 4.38258,88.056 4,87.5C 3.50115,83.5138 3.33449,79.5138 3.5,75.5C 4.63851,70.433 6.30517,65.433 8.5,60.5C 7.47746,58.1052 8.47746,57.1052 11.5,57.5C 11.2322,55.901 11.5655,54.5676 12.5,53.5 Z"/></g>
<g><path style="opacity:1" fill="#805542" d="M 27.5,62.5 C 28.8077,66.0187 28.8077,69.6853 27.5,73.5C 24.8417,69.8005 24.8417,66.1339 27.5,62.5 Z"/></g>
<g><path style="opacity:1" fill="#c69a8b" d="M 149.5,55.5 C 148.965,60.8449 148.299,66.1782 147.5,71.5C 147.543,72.4164 147.876,73.0831 148.5,73.5C 148.492,76.5448 148.159,79.5448 147.5,82.5C 146.222,82.7822 145.222,83.4489 144.5,84.5C 145.004,78.924 142.671,75.0907 137.5,73C 133.644,72.8227 129.977,72.3227 126.5,71.5C 129.167,71.5 131.833,71.5 134.5,71.5C 134.147,69.3652 134.98,68.0319 137,67.5C 138.3,68.7073 139.8,69.3739 141.5,69.5C 139.664,66.3626 136.997,63.8626 133.5,62C 138.194,61.4361 142.86,61.6027 147.5,62.5C 147.5,61.1667 147.5,59.8333 147.5,58.5C 148.167,57.5 148.833,56.5 149.5,55.5 Z"/></g>
<g><path style="opacity:1" fill="#e2af97" d="M 103.5,63.5 C 104.156,64.6216 104.489,65.9549 104.5,67.5C 103.273,79.1897 101.94,90.8563 100.5,102.5C 97.8431,102.162 95.5098,102.829 93.5,104.5C 91.677,103.253 89.677,102.586 87.5,102.5C 87.9227,100.219 87.256,98.5521 85.5,97.5C 87.0688,92.7283 89.9021,88.7283 94,85.5C 94.5,82.5 95,79.5 95.5,76.5C 94.3448,73.9885 93.6781,71.3219 93.5,68.5C 94.2679,69.2625 94.7679,70.2625 95,71.5C 100.923,72.0765 103.756,69.4099 103.5,63.5 Z"/></g>
<g><path style="opacity:1" fill="#469973" d="M 15.5,61.5 C 15.3865,67.3757 16.3865,73.0423 18.5,78.5C 17.5184,81.9619 17.185,85.6286 17.5,89.5C 13.8333,89.5 10.1667,89.5 6.5,89.5C 5.83333,89.5 5.5,89.1667 5.5,88.5C 5.52298,83.1259 6.02298,77.7926 7,72.5C 9.42913,69.3468 10.5958,65.6801 10.5,61.5C 12.1667,61.5 13.8333,61.5 15.5,61.5 Z"/></g>
<g><path style="opacity:1" fill="#e0ac95" d="M 57.5,31.5 C 59.5,31.5 61.5,31.5 63.5,31.5C 63.5,32.1667 63.1667,32.5 62.5,32.5C 61.1667,32.5 59.8333,32.5 58.5,32.5C 58.5,33.5 58.5,34.5 58.5,35.5C 56.3453,35.372 54.3453,35.872 52.5,37C 53.4506,37.7175 53.6172,38.5509 53,39.5C 49.3781,41.7867 46.0448,44.4534 43,47.5C 41.6297,53.5543 40.7964,59.721 40.5,66C 42.5688,74.2129 45.0688,82.3796 48,90.5C 49.3922,97.7414 51.2256,104.741 53.5,111.5C 53.5751,114.206 53.9084,116.873 54.5,119.5C 53.0222,119.762 51.6888,119.429 50.5,118.5C 49.7262,114.286 47.8929,110.619 45,107.5C 44.3333,110.5 44.3333,113.5 45,116.5C 46.1356,119.096 46.969,121.763 47.5,124.5C 41.0283,119.737 35.0283,114.403 29.5,108.5C 27.4494,100.229 27.1161,91.8959 28.5,83.5C 30.5918,80.9116 31.9251,77.9116 32.5,74.5C 33.6129,70.7624 34.6129,67.0958 35.5,63.5C 37.1357,59.7905 37.8023,55.7905 37.5,51.5C 38.575,45.0226 41.9083,40.0226 47.5,36.5C 50.5872,34.2897 53.9205,32.6231 57.5,31.5 Z"/></g>
<g><path style="opacity:1" fill="#e8eaf3" d="M 2.5,63.5 C 3.48342,67.2984 3.81675,71.2984 3.5,75.5C 3.33449,79.5138 3.50115,83.5138 4,87.5C 4.38258,88.056 4.88258,88.3893 5.5,88.5C 5.5,89.1667 5.83333,89.5 6.5,89.5C 6.83333,90.1667 7.16667,90.8333 7.5,91.5C 5.73535,92.4614 3.73535,92.7947 1.5,92.5C 0.507609,84.6841 0.174275,76.6841 0.5,68.5C 1.4408,66.9505 2.10746,65.2838 2.5,63.5 Z"/></g>
<g><path style="opacity:1" fill="#524d37" d="M 15.5,59.5 C 17.3447,67.8673 19.678,76.2006 22.5,84.5C 21.8333,85.5 21.1667,86.5 20.5,87.5C 20.1274,84.4261 19.4608,81.4261 18.5,78.5C 16.3865,73.0423 15.3865,67.3757 15.5,61.5C 15.5,60.8333 15.5,60.1667 15.5,59.5 Z"/></g>
<g><path style="opacity:1" fill="#985c53" d="M 31.5,69.5 C 31.2155,71.4147 31.5489,73.0813 32.5,74.5C 31.9251,77.9116 30.5918,80.9116 28.5,83.5C 28.0623,82.4937 27.3957,82.4937 26.5,83.5C 28.5802,78.9223 30.2469,74.2557 31.5,69.5 Z"/></g>
<g><path style="opacity:1" fill="#efc1a9" d="M 123.5,71.5 C 124.5,71.5 125.5,71.5 126.5,71.5C 129.977,72.3227 133.644,72.8227 137.5,73C 142.671,75.0907 145.004,78.924 144.5,84.5C 144.577,88.2148 144.244,91.8815 143.5,95.5C 138.473,102.217 134.473,109.55 131.5,117.5C 129.983,120.035 128.65,122.702 127.5,125.5C 127.265,126.097 126.765,126.43 126,126.5C 122.951,123.943 119.784,121.61 116.5,119.5C 114.796,116.407 112.129,114.74 108.5,114.5C 115.104,113.552 119.104,109.885 120.5,103.5C 120.154,102.151 119.821,100.817 119.5,99.5C 116.991,91.743 115.991,83.743 116.5,75.5C 120.24,76.7193 123.907,78.2193 127.5,80C 132.147,81.4804 135.813,80.3137 138.5,76.5C 138.167,76.1667 137.833,75.8333 137.5,75.5C 132.978,76.9263 128.645,76.4263 124.5,74C 123.748,73.3292 123.414,72.4959 123.5,71.5 Z"/></g>
<g><path style="opacity:1" fill="#b1a3c4" d="M -0.5,68.5 C -0.166667,68.5 0.166667,68.5 0.5,68.5C 0.174275,76.6841 0.507609,84.6841 1.5,92.5C 1.5,92.8333 1.5,93.1667 1.5,93.5C 0.833333,93.5 0.166667,93.5 -0.5,93.5C -0.5,85.1667 -0.5,76.8333 -0.5,68.5 Z"/></g>
<g><path style="opacity:1" fill="#659278" d="M 18.5,78.5 C 19.4608,81.4261 20.1274,84.4261 20.5,87.5C 19.5655,88.5676 19.2322,89.901 19.5,91.5C 15.5,91.5 11.5,91.5 7.5,91.5C 7.16667,90.8333 6.83333,90.1667 6.5,89.5C 10.1667,89.5 13.8333,89.5 17.5,89.5C 17.185,85.6286 17.5184,81.9619 18.5,78.5 Z"/></g>
<g><path style="opacity:1" fill="#424a44" d="M 7.5,91.5 C 11.5,91.5 15.5,91.5 19.5,91.5C 19.5,91.8333 19.5,92.1667 19.5,92.5C 14.5068,92.9157 9.50678,93.2491 4.5,93.5C 3.83333,93.5 3.16667,93.5 2.5,93.5C 2.16667,93.5 1.83333,93.5 1.5,93.5C 1.5,93.1667 1.5,92.8333 1.5,92.5C 3.73535,92.7947 5.73535,92.4614 7.5,91.5 Z"/></g>
<g><path style="opacity:1" fill="#e5e9e5" d="M 166.5,93.5 C 164.025,96.7853 162.358,100.452 161.5,104.5C 160.005,104.585 159.005,103.919 158.5,102.5C 160.911,96.7575 163.411,91.0908 166,85.5C 166.497,88.146 166.664,90.8127 166.5,93.5 Z"/></g>
<g><path style="opacity:1" fill="#1d1d1d" d="M 19.5,92.5 C 18.5184,98.7678 18.5184,105.101 19.5,111.5C 18.1667,111.5 16.8333,111.5 15.5,111.5C 17.6793,116.535 19.0126,121.869 19.5,127.5C 18.1667,127.5 16.8333,127.5 15.5,127.5C 15.5,140.833 15.5,154.167 15.5,167.5C 26.0854,167.515 26.0854,168.182 15.5,169.5C 20.8149,170.387 26.1482,171.054 31.5,171.5C 31.238,172.978 31.5713,174.311 32.5,175.5C 34.491,170.199 34.491,165.032 32.5,160C 34.4727,159.505 36.4727,159.338 38.5,159.5C 39.1667,160.167 39.8333,160.833 40.5,161.5C 41.5384,166.436 42.2051,171.436 42.5,176.5C 42.5,176.833 42.5,177.167 42.5,177.5C 28.1667,177.5 13.8333,177.5 -0.5,177.5C -0.5,177.167 -0.5,176.833 -0.5,176.5C 1.14387,176.714 2.64387,176.38 4,175.5C 4.37291,173.302 4.87291,171.135 5.5,169C 4.51396,143.866 4.18062,118.699 4.5,93.5C 9.50678,93.2491 14.5068,92.9157 19.5,92.5 Z"/></g>
<g><path style="opacity:1" fill="#1a1b22" d="M 8.5,95.5 C 10.1667,95.5 11.8333,95.5 13.5,95.5C 13.6839,121.695 13.3506,147.695 12.5,173.5C 16.5158,174.77 20.5158,174.77 24.5,173.5C 25.5,174 26.5,174.5 27.5,175C 21.1364,176.107 14.803,176.274 8.5,175.5C 8.58607,149.265 8.58607,122.598 8.5,95.5 Z"/></g>
<g><path style="opacity:1" fill="#1c1c20" d="M 30.5,119.5 C 32.8339,128.836 35.1672,138.169 37.5,147.5C 37.5045,151.534 37.8379,155.534 38.5,159.5C 36.4727,159.338 34.4727,159.505 32.5,160C 34.491,165.032 34.491,170.199 32.5,175.5C 31.5713,174.311 31.238,172.978 31.5,171.5C 26.1482,171.054 20.8149,170.387 15.5,169.5C 26.0854,168.182 26.0854,167.515 15.5,167.5C 15.5,154.167 15.5,140.833 15.5,127.5C 16.8333,127.5 18.1667,127.5 19.5,127.5C 19.0126,121.869 17.6793,116.535 15.5,111.5C 16.8333,111.5 18.1667,111.5 19.5,111.5C 18.5184,105.101 18.5184,98.7678 19.5,92.5C 19.5,92.1667 19.5,91.8333 19.5,91.5C 20.7659,88.0687 22.5993,87.7354 25,90.5C 25.3333,96.1667 25.6667,101.833 26,107.5C 26.838,111.86 28.338,115.86 30.5,119.5 Z"/></g>
<g><path style="opacity:1" fill="#6b4639" d="M 28.5,83.5 C 27.1161,91.8959 27.4494,100.229 29.5,108.5C 29.5,108.833 29.5,109.167 29.5,109.5C 27.9318,107.189 27.0984,104.522 27,101.5C 26.6285,95.5928 26.4618,89.9262 26.5,84.5C 26.5,84.1667 26.5,83.8333 26.5,83.5C 27.3957,82.4937 28.0623,82.4937 28.5,83.5 Z"/></g>
<g><path style="opacity:1" fill="#d49e89" d="M 118.5,59.5 C 121.048,62.8735 121.048,66.2068 118.5,69.5C 119.668,71.2174 121.335,71.8841 123.5,71.5C 123.414,72.4959 123.748,73.3292 124.5,74C 128.645,76.4263 132.978,76.9263 137.5,75.5C 137.833,75.8333 138.167,76.1667 138.5,76.5C 135.813,80.3137 132.147,81.4804 127.5,80C 123.907,78.2193 120.24,76.7193 116.5,75.5C 115.991,83.743 116.991,91.743 119.5,99.5C 119.039,107.941 114.373,111.941 105.5,111.5C 100.473,109.022 95.1392,107.188 89.5,106C 87.2324,104.442 86.0657,102.276 86,99.5C 85.5065,101.134 85.3398,102.801 85.5,104.5C 84.2437,102.274 84.2437,99.941 85.5,97.5C 87.256,98.5521 87.9227,100.219 87.5,102.5C 89.677,102.586 91.677,103.253 93.5,104.5C 95.5098,102.829 97.8431,102.162 100.5,102.5C 105.168,106.635 109.501,106.469 113.5,102C 112.526,88.2034 112.193,74.37 112.5,60.5C 114.5,60.1667 116.5,59.8333 118.5,59.5 Z"/></g>
<g><path style="opacity:1" fill="#5d7a6d" d="M 147.5,82.5 C 147.639,87.3899 149.139,87.7233 152,83.5C 150.972,89.5966 149.305,95.5966 147,101.5C 144.91,103.794 142.41,105.461 139.5,106.5C 140.164,104.513 141.331,102.846 143,101.5C 143.495,99.5273 143.662,97.5273 143.5,95.5C 144.244,91.8815 144.577,88.2148 144.5,84.5C 145.222,83.4489 146.222,82.7822 147.5,82.5 Z"/></g>
<g><path style="opacity:1" fill="#8d8e8f" d="M 166.5,93.5 C 166.833,93.5 167.167,93.5 167.5,93.5C 167.5,97.5 167.5,101.5 167.5,105.5C 167.167,105.5 166.833,105.5 166.5,105.5C 166.306,101.995 165.306,101.662 163.5,104.5C 162.833,104.5 162.167,104.5 161.5,104.5C 162.358,100.452 164.025,96.7853 166.5,93.5 Z"/></g>
<g><path style="opacity:1" fill="#645441" d="M 143.5,95.5 C 143.662,97.5273 143.495,99.5273 143,101.5C 141.331,102.846 140.164,104.513 139.5,106.5C 138.662,106.842 138.328,107.508 138.5,108.5C 136.412,110.336 135.079,112.669 134.5,115.5C 133.768,116.808 132.934,118.142 132,119.5C 131.536,118.906 131.369,118.239 131.5,117.5C 134.473,109.55 138.473,102.217 143.5,95.5 Z"/></g>
<g><path style="opacity:1" fill="#dfe3e6" d="M 163.5,104.5 C 165.306,101.662 166.306,101.995 166.5,105.5C 163.836,107.484 162.169,110.151 161.5,113.5C 159.61,113.703 158.11,113.037 157,111.5C 155.382,108.709 154.215,105.709 153.5,102.5C 154.167,101.167 154.833,101.167 155.5,102.5C 157.568,105.157 158.901,108.157 159.5,111.5C 160.105,108.703 161.438,106.37 163.5,104.5 Z"/></g>
<g><path style="opacity:1" fill="#7e4532" d="M 105.5,111.5 C 105.918,112.222 106.584,112.722 107.5,113C 106.833,113.167 106.167,113.333 105.5,113.5C 102.87,112.622 100.203,111.955 97.5,111.5C 93.6872,109.593 89.6872,108.26 85.5,107.5C 85.5,106.5 85.5,105.5 85.5,104.5C 85.3398,102.801 85.5065,101.134 86,99.5C 86.0657,102.276 87.2324,104.442 89.5,106C 95.1392,107.188 100.473,109.022 105.5,111.5 Z"/></g>
<g><path style="opacity:1" fill="#36221d" d="M 22.5,84.5 C 23.8333,84.5 25.1667,84.5 26.5,84.5C 26.4618,89.9262 26.6285,95.5928 27,101.5C 27.0984,104.522 27.9318,107.189 29.5,109.5C 30.4582,111.302 31.1249,113.302 31.5,115.5C 31.5,116.167 31.5,116.833 31.5,117.5C 30.6618,117.842 30.3284,118.508 30.5,119.5C 28.338,115.86 26.838,111.86 26,107.5C 25.6667,101.833 25.3333,96.1667 25,90.5C 22.5993,87.7354 20.7659,88.0687 19.5,91.5C 19.2322,89.901 19.5655,88.5676 20.5,87.5C 21.1667,86.5 21.8333,85.5 22.5,84.5 Z"/></g>
<g><path style="opacity:1" fill="#815b4c" d="M 119.5,99.5 C 119.821,100.817 120.154,102.151 120.5,103.5C 119.104,109.885 115.104,113.552 108.5,114.5C 112.129,114.74 114.796,116.407 116.5,119.5C 112.901,119.262 112.567,120.262 115.5,122.5C 114.465,124.128 114.465,125.795 115.5,127.5C 114.167,127.5 112.833,127.5 111.5,127.5C 111.5,126.5 111.5,125.5 111.5,124.5C 109.5,124.5 107.5,124.5 105.5,124.5C 104.529,121.8 103.529,118.966 102.5,116C 95.175,116.651 87.8416,117.485 80.5,118.5C 80.5,118.167 80.5,117.833 80.5,117.5C 86.5022,116.243 92.1688,114.243 97.5,111.5C 100.203,111.955 102.87,112.622 105.5,113.5C 106.167,113.333 106.833,113.167 107.5,113C 106.584,112.722 105.918,112.222 105.5,111.5C 114.373,111.941 119.039,107.941 119.5,99.5 Z"/></g>
<g><path style="opacity:1" fill="#dcdcc4" d="M 145.5,107.5 C 147.179,107.285 148.179,107.952 148.5,109.5C 148.517,111.565 148.85,113.565 149.5,115.5C 148.883,115.389 148.383,115.056 148,114.5C 145.262,120.073 141.095,124.073 135.5,126.5C 134.756,122.881 134.423,119.215 134.5,115.5C 135.079,112.669 136.412,110.336 138.5,108.5C 140.717,107.631 143.05,107.298 145.5,107.5 Z"/></g>
<g><path style="opacity:1" fill="#626a6e" d="M 166.5,105.5 C 166.833,105.5 167.167,105.5 167.5,105.5C 167.5,108.833 167.5,112.167 167.5,115.5C 165.983,115.511 164.816,116.177 164,117.5C 162.489,119.862 160.989,122.195 159.5,124.5C 158.903,124.265 158.57,123.765 158.5,123C 160.233,120.042 161.233,116.875 161.5,113.5C 162.169,110.151 163.836,107.484 166.5,105.5 Z"/></g>
<g><path style="opacity:1" fill="#1c1922" d="M 2.5,93.5 C 3.16667,93.5 3.83333,93.5 4.5,93.5C 4.18062,118.699 4.51396,143.866 5.5,169C 4.87291,171.135 4.37291,173.302 4,175.5C 2.64387,176.38 1.14387,176.714 -0.5,176.5C -0.5,176.167 -0.5,175.833 -0.5,175.5C 0.5,175.5 1.5,175.5 2.5,175.5C 2.5,148.167 2.5,120.833 2.5,93.5 Z"/></g>
<g><path style="opacity:1" fill="#75554c" d="M 31.5,115.5 C 38.2431,125.306 45.2431,134.972 52.5,144.5C 51.6618,144.842 51.3284,145.508 51.5,146.5C 48.266,142.378 45.266,138.045 42.5,133.5C 38.8079,128.149 35.1412,122.815 31.5,117.5C 31.5,116.833 31.5,116.167 31.5,115.5 Z"/></g>
<g><path style="opacity:1" fill="#754f40" d="M 115.5,127.5 C 116.774,128.189 116.774,129.023 115.5,130C 116.448,130.483 117.448,130.649 118.5,130.5C 118.5,132.167 118.5,133.833 118.5,135.5C 116.958,136.301 115.292,136.634 113.5,136.5C 110.663,134.598 107.329,133.931 103.5,134.5C 102.737,133.732 101.737,133.232 100.5,133C 106.196,133.246 111.862,133.08 117.5,132.5C 114.711,131.636 112.378,130.136 110.5,128C 108.134,127.56 105.801,127.06 103.5,126.5C 93.8558,125.473 84.1891,125.307 74.5,126C 70.7496,126.442 69.7496,128.276 71.5,131.5C 70.5,131.5 69.5,131.5 68.5,131.5C 66.0657,130.361 63.5657,129.361 61,128.5C 60.3333,126.833 60.3333,125.167 61,123.5C 67.0371,120.178 73.5371,118.512 80.5,118.5C 87.8416,117.485 95.175,116.651 102.5,116C 103.529,118.966 104.529,121.8 105.5,124.5C 107.5,124.5 109.5,124.5 111.5,124.5C 111.5,125.5 111.5,126.5 111.5,127.5C 112.833,127.5 114.167,127.5 115.5,127.5 Z"/></g>
<g><path style="opacity:1" fill="#acab93" d="M 134.5,115.5 C 134.423,119.215 134.756,122.881 135.5,126.5C 133.867,129.797 131.2,131.464 127.5,131.5C 127.5,133.5 127.5,135.5 127.5,137.5C 126.566,136.432 126.232,135.099 126.5,133.5C 126.387,130.951 127.054,128.618 128.5,126.5C 128.376,125.893 128.043,125.56 127.5,125.5C 128.65,122.702 129.983,120.035 131.5,117.5C 131.369,118.239 131.536,118.906 132,119.5C 132.934,118.142 133.768,116.808 134.5,115.5 Z"/></g>
<g><path style="opacity:1" fill="#684d41" d="M 116.5,119.5 C 119.784,121.61 122.951,123.943 126,126.5C 126.765,126.43 127.265,126.097 127.5,125.5C 128.043,125.56 128.376,125.893 128.5,126.5C 127.054,128.618 126.387,130.951 126.5,133.5C 125.596,132.791 125.263,131.791 125.5,130.5C 124.5,130.5 123.5,130.5 122.5,130.5C 122.293,133.241 121.293,135.574 119.5,137.5C 119.672,136.508 119.338,135.842 118.5,135.5C 118.5,133.833 118.5,132.167 118.5,130.5C 117.448,130.649 116.448,130.483 115.5,130C 116.774,129.023 116.774,128.189 115.5,127.5C 114.465,125.795 114.465,124.128 115.5,122.5C 112.567,120.262 112.901,119.262 116.5,119.5 Z"/></g>
<g><path style="opacity:1" fill="#d7dde1" d="M 167.5,115.5 C 167.5,117.833 167.5,120.167 167.5,122.5C 164.635,124.509 161.968,126.842 159.5,129.5C 158.761,129.631 158.094,129.464 157.5,129C 158.267,127.53 158.933,126.03 159.5,124.5C 160.989,122.195 162.489,119.862 164,117.5C 164.816,116.177 165.983,115.511 167.5,115.5 Z"/></g>
<g><path style="opacity:1" fill="#cd9986" d="M 29.5,109.5 C 29.5,109.167 29.5,108.833 29.5,108.5C 35.0283,114.403 41.0283,119.737 47.5,124.5C 50.8587,129.586 54.3587,134.586 58,139.5C 60.3588,146.089 63.1921,152.422 66.5,158.5C 65.1266,158.657 63.7932,158.49 62.5,158C 58.5637,153.904 55.2304,149.404 52.5,144.5C 45.2431,134.972 38.2431,125.306 31.5,115.5C 31.1249,113.302 30.4582,111.302 29.5,109.5 Z"/></g>
<g><path style="opacity:1" fill="#e2b19f" d="M 103.5,126.5 C 103.611,127.117 103.944,127.617 104.5,128C 93.4708,129.044 82.4708,130.21 71.5,131.5C 69.7496,128.276 70.7496,126.442 74.5,126C 84.1891,125.307 93.8558,125.473 103.5,126.5 Z"/></g>
<g><path style="opacity:1" fill="#2c2141" d="M -0.5,93.5 C 0.166667,93.5 0.833333,93.5 1.5,93.5C 1.83333,93.5 2.16667,93.5 2.5,93.5C 2.5,120.833 2.5,148.167 2.5,175.5C 1.5,175.5 0.5,175.5 -0.5,175.5C -0.5,148.167 -0.5,120.833 -0.5,93.5 Z"/></g>
<g><path style="opacity:1" fill="#f2f5f6" d="M 149.5,115.5 C 149.5,118.833 149.5,122.167 149.5,125.5C 149.902,133.95 149.235,142.283 147.5,150.5C 147.59,153.152 146.924,155.485 145.5,157.5C 144.442,158.6 143.608,159.934 143,161.5C 142.333,158.833 141.667,158.833 141,161.5C 140.416,156.841 140.583,152.507 141.5,148.5C 139.981,149.017 138.648,148.35 137.5,146.5C 136.913,147.233 136.913,148.233 137.5,149.5C 136.24,147.633 134.573,146.3 132.5,145.5C 130.465,143.057 128.798,140.39 127.5,137.5C 127.5,135.5 127.5,133.5 127.5,131.5C 131.2,131.464 133.867,129.797 135.5,126.5C 141.095,124.073 145.262,120.073 148,114.5C 148.383,115.056 148.883,115.389 149.5,115.5 Z"/></g>
<g><path style="opacity:1" fill="#d5dcd9" d="M 156.5,130.5 C 155.662,130.842 155.328,131.508 155.5,132.5C 153.91,125.793 152.41,118.793 151,111.5C 150.583,110.244 149.75,109.577 148.5,109.5C 148.179,107.952 147.179,107.285 145.5,107.5C 147.216,106.029 149.216,105.029 151.5,104.5C 152.225,109.733 153.725,114.733 156,119.5C 156.499,123.152 156.665,126.818 156.5,130.5 Z"/></g>
<g><path style="opacity:1" fill="#bb8273" d="M 103.5,126.5 C 105.801,127.06 108.134,127.56 110.5,128C 112.378,130.136 114.711,131.636 117.5,132.5C 111.862,133.08 106.196,133.246 100.5,133C 101.737,133.232 102.737,133.732 103.5,134.5C 94.8667,133.623 86.2,133.289 77.5,133.5C 74.1709,133.785 71.1709,133.118 68.5,131.5C 69.5,131.5 70.5,131.5 71.5,131.5C 82.4708,130.21 93.4708,129.044 104.5,128C 103.944,127.617 103.611,127.117 103.5,126.5 Z"/></g>
<g><path style="opacity:1" fill="#6d7578" d="M 167.5,122.5 C 167.5,125.5 167.5,128.5 167.5,131.5C 163.994,132.248 160.66,133.581 157.5,135.5C 156.833,135.833 156.167,136.167 155.5,136.5C 155.5,135.167 155.5,133.833 155.5,132.5C 155.328,131.508 155.662,130.842 156.5,130.5C 157.791,130.737 158.791,130.404 159.5,129.5C 161.968,126.842 164.635,124.509 167.5,122.5 Z"/></g>
<g><path style="opacity:1" fill="#989d9d" d="M 148.5,109.5 C 149.75,109.577 150.583,110.244 151,111.5C 152.41,118.793 153.91,125.793 155.5,132.5C 155.5,133.833 155.5,135.167 155.5,136.5C 152.712,134.775 151.712,132.442 152.5,129.5C 151.965,127.739 150.965,126.406 149.5,125.5C 149.5,122.167 149.5,118.833 149.5,115.5C 148.85,113.565 148.517,111.565 148.5,109.5 Z"/></g>
<g><path style="opacity:1" fill="#d69e8a" d="M 77.5,133.5 C 86.2,133.289 94.8667,133.623 103.5,134.5C 107.329,133.931 110.663,134.598 113.5,136.5C 103.955,139.411 94.2885,139.911 84.5,138C 82.24,136.212 79.9066,134.712 77.5,133.5 Z"/></g>
<g><path style="opacity:1" fill="#edeff0" d="M 167.5,131.5 C 167.5,134.167 167.5,136.833 167.5,139.5C 161.851,140.99 157.184,143.99 153.5,148.5C 153.167,148.5 152.833,148.5 152.5,148.5C 151.387,147.054 151.22,145.387 152,143.5C 154.08,140.935 155.913,138.268 157.5,135.5C 160.66,133.581 163.994,132.248 167.5,131.5 Z"/></g>
<g><path style="opacity:1" fill="#eec0a8" d="M 53.5,111.5 C 54.2216,111.082 54.7216,110.416 55,109.5C 59.5665,111.09 64.3998,112.09 69.5,112.5C 70.154,114.115 70.654,115.782 71,117.5C 71.7247,118.059 72.5581,118.392 73.5,118.5C 75.7822,117.777 78.1155,117.443 80.5,117.5C 80.5,117.833 80.5,118.167 80.5,118.5C 73.5371,118.512 67.0371,120.178 61,123.5C 60.3333,125.167 60.3333,126.833 61,128.5C 63.5657,129.361 66.0657,130.361 68.5,131.5C 71.1709,133.118 74.1709,133.785 77.5,133.5C 79.9066,134.712 82.24,136.212 84.5,138C 94.2885,139.911 103.955,139.411 113.5,136.5C 115.292,136.634 116.958,136.301 118.5,135.5C 119.338,135.842 119.672,136.508 119.5,137.5C 118.659,139.379 118.325,141.379 118.5,143.5C 115.404,148.557 112.571,153.891 110,159.5C 108.348,160.399 106.848,161.399 105.5,162.5C 96.8154,162.536 88.1487,162.203 79.5,161.5C 74.7646,162.038 70.4313,161.038 66.5,158.5C 63.1921,152.422 60.3588,146.089 58,139.5C 54.3587,134.586 50.8587,129.586 47.5,124.5C 46.969,121.763 46.1356,119.096 45,116.5C 44.3333,113.5 44.3333,110.5 45,107.5C 47.8929,110.619 49.7262,114.286 50.5,118.5C 51.6888,119.429 53.0222,119.762 54.5,119.5C 53.9084,116.873 53.5751,114.206 53.5,111.5 Z"/></g>
<g><path style="opacity:1" fill="#b4b8b9" d="M 149.5,125.5 C 150.965,126.406 151.965,127.739 152.5,129.5C 151.712,132.442 152.712,134.775 155.5,136.5C 156.167,136.167 156.833,135.833 157.5,135.5C 155.913,138.268 154.08,140.935 152,143.5C 151.22,145.387 151.387,147.054 152.5,148.5C 151.365,150.213 149.698,150.88 147.5,150.5C 149.235,142.283 149.902,133.95 149.5,125.5 Z"/></g>
<g><path style="opacity:1" fill="#1f1d1e" d="M 126.5,133.5 C 126.232,135.099 126.566,136.432 127.5,137.5C 128.798,140.39 130.465,143.057 132.5,145.5C 133.656,149.793 134.656,154.126 135.5,158.5C 136.833,158.5 138.167,158.5 139.5,158.5C 139.206,162.567 140.54,165.9 143.5,168.5C 143.5,168.833 143.5,169.167 143.5,169.5C 143.738,171.404 144.738,172.738 146.5,173.5C 146.5,173.833 146.5,174.167 146.5,174.5C 146.5,175.167 146.5,175.833 146.5,176.5C 130.422,176.183 114.422,176.516 98.5,177.5C 98.8143,171.337 96.4809,170.004 91.5,173.5C 89.2417,173.225 88.9084,172.225 90.5,170.5C 97.4716,169.787 104.138,167.954 110.5,165C 111.406,163.301 111.739,161.467 111.5,159.5C 113.167,159.5 114.833,159.5 116.5,159.5C 118.183,154.337 118.85,149.004 118.5,143.5C 118.325,141.379 118.659,139.379 119.5,137.5C 121.293,135.574 122.293,133.241 122.5,130.5C 123.5,130.5 124.5,130.5 125.5,130.5C 125.263,131.791 125.596,132.791 126.5,133.5 Z"/></g>
<g><path style="opacity:1" fill="#cf9c85" d="M 89.5,143.5 C 92.3198,143.248 94.9865,143.748 97.5,145C 95.6602,147.826 94.9935,150.993 95.5,154.5C 88.6416,154.425 84.6416,151.092 83.5,144.5C 85.7354,144.795 87.7354,144.461 89.5,143.5 Z"/></g>
<g><path style="opacity:1" fill="#c6bebd" d="M 31.5,117.5 C 35.1412,122.815 38.8079,128.149 42.5,133.5C 41.5041,133.586 40.6708,133.252 40,132.5C 39.3333,135.833 39.3333,139.167 40,142.5C 43.3798,153.635 46.5465,164.802 49.5,176C 48.5842,176.278 47.9175,176.778 47.5,177.5C 45.7085,177.634 44.0418,177.301 42.5,176.5C 42.2051,171.436 41.5384,166.436 40.5,161.5C 39.7838,156.651 38.7838,151.985 37.5,147.5C 35.1672,138.169 32.8339,128.836 30.5,119.5C 30.3284,118.508 30.6618,117.842 31.5,117.5 Z"/></g>
<g><path style="opacity:1" fill="#404958" d="M 155.5,156.5 C 153.082,157.866 150.416,158.866 147.5,159.5C 146.287,159.253 145.62,158.586 145.5,157.5C 146.924,155.485 147.59,153.152 147.5,150.5C 149.698,150.88 151.365,150.213 152.5,148.5C 152.833,148.5 153.167,148.5 153.5,148.5C 155.54,147.481 157.54,147.481 159.5,148.5C 157.626,150.915 156.293,153.581 155.5,156.5 Z"/></g>
<g><path style="opacity:1" fill="#6d8481" d="M 167.5,139.5 C 167.5,143.833 167.5,148.167 167.5,152.5C 163.257,153.248 159.257,154.581 155.5,156.5C 156.293,153.581 157.626,150.915 159.5,148.5C 157.54,147.481 155.54,147.481 153.5,148.5C 157.184,143.99 161.851,140.99 167.5,139.5 Z"/></g>
<g><path style="opacity:1" fill="#717c7a" d="M 132.5,145.5 C 134.573,146.3 136.24,147.633 137.5,149.5C 138.323,152.461 138.99,155.461 139.5,158.5C 138.167,158.5 136.833,158.5 135.5,158.5C 134.656,154.126 133.656,149.793 132.5,145.5 Z"/></g>
<g><path style="opacity:1" fill="#5b5353" d="M 37.5,147.5 C 38.7838,151.985 39.7838,156.651 40.5,161.5C 39.8333,160.833 39.1667,160.167 38.5,159.5C 37.8379,155.534 37.5045,151.534 37.5,147.5 Z"/></g>
<g><path style="opacity:1" fill="#f4f1ef" d="M 42.5,133.5 C 45.266,138.045 48.266,142.378 51.5,146.5C 56.815,154.143 62.4817,161.476 68.5,168.5C 70.1004,170.571 70.6004,172.905 70,175.5C 67.2219,176.325 64.3886,176.992 61.5,177.5C 56.8333,177.5 52.1667,177.5 47.5,177.5C 47.9175,176.778 48.5842,176.278 49.5,176C 46.5465,164.802 43.3798,153.635 40,142.5C 39.3333,139.167 39.3333,135.833 40,132.5C 40.6708,133.252 41.5041,133.586 42.5,133.5 Z"/></g>
<g><path style="opacity:1" fill="#657375" d="M 167.5,156.5 C 167.5,158.167 167.5,159.833 167.5,161.5C 164.505,161.294 161.838,161.96 159.5,163.5C 156.421,163.26 153.421,163.593 150.5,164.5C 149.205,163.902 147.872,163.402 146.5,163C 153.201,159.763 160.201,157.596 167.5,156.5 Z"/></g>
<g><path style="opacity:1" fill="#e4e8e9" d="M 145.5,157.5 C 145.62,158.586 146.287,159.253 147.5,159.5C 150.416,158.866 153.082,157.866 155.5,156.5C 159.257,154.581 163.257,153.248 167.5,152.5C 167.5,153.833 167.5,155.167 167.5,156.5C 160.201,157.596 153.201,159.763 146.5,163C 147.872,163.402 149.205,163.902 150.5,164.5C 153.421,163.593 156.421,163.26 159.5,163.5C 161.861,163.326 164.194,162.993 166.5,162.5C 166.5,164.167 166.5,165.833 166.5,167.5C 158.813,167.46 151.146,167.793 143.5,168.5C 140.54,165.9 139.206,162.567 139.5,158.5C 138.99,155.461 138.323,152.461 137.5,149.5C 136.913,148.233 136.913,147.233 137.5,146.5C 138.648,148.35 139.981,149.017 141.5,148.5C 140.583,152.507 140.416,156.841 141,161.5C 141.667,158.833 142.333,158.833 143,161.5C 143.608,159.934 144.442,158.6 145.5,157.5 Z"/></g>
<g><path style="opacity:1" fill="#3d2c25" d="M 118.5,143.5 C 118.85,149.004 118.183,154.337 116.5,159.5C 114.833,159.5 113.167,159.5 111.5,159.5C 111.739,161.467 111.406,163.301 110.5,165C 104.138,167.954 97.4716,169.787 90.5,170.5C 88.9084,172.225 89.2417,173.225 91.5,173.5C 92.038,175.117 92.3713,176.784 92.5,178.5C 90.5,178.5 88.5,178.5 86.5,178.5C 86.5,176.5 86.5,174.5 86.5,172.5C 81.9057,173.343 78.2391,172.009 75.5,168.5C 73.2743,167.244 70.941,167.244 68.5,168.5C 62.4817,161.476 56.815,154.143 51.5,146.5C 51.3284,145.508 51.6618,144.842 52.5,144.5C 55.2304,149.404 58.5637,153.904 62.5,158C 63.7932,158.49 65.1266,158.657 66.5,158.5C 70.4313,161.038 74.7646,162.038 79.5,161.5C 84.4127,163.007 89.5793,163.674 95,163.5C 98.6833,163.499 102.183,163.165 105.5,162.5C 106.848,161.399 108.348,160.399 110,159.5C 112.571,153.891 115.404,148.557 118.5,143.5 Z"/></g>
<g><path style="opacity:1" fill="#6a4b38" d="M 79.5,161.5 C 88.1487,162.203 96.8154,162.536 105.5,162.5C 102.183,163.165 98.6833,163.499 95,163.5C 89.5793,163.674 84.4127,163.007 79.5,161.5 Z"/></g>
<g><path style="opacity:1" fill="#bdc7c4" d="M 167.5,161.5 C 167.5,163.833 167.5,166.167 167.5,168.5C 159.5,168.833 151.5,169.167 143.5,169.5C 143.5,169.167 143.5,168.833 143.5,168.5C 151.146,167.793 158.813,167.46 166.5,167.5C 166.5,165.833 166.5,164.167 166.5,162.5C 164.194,162.993 161.861,163.326 159.5,163.5C 161.838,161.96 164.505,161.294 167.5,161.5 Z"/></g>
<g><path style="opacity:1" fill="#798983" d="M 167.5,168.5 C 167.5,169.833 167.5,171.167 167.5,172.5C 160.313,172.175 153.313,172.509 146.5,173.5C 144.738,172.738 143.738,171.404 143.5,169.5C 151.5,169.167 159.5,168.833 167.5,168.5 Z"/></g>
<g><path style="opacity:1" fill="#cb9284" d="M 75.5,168.5 C 78.2391,172.009 81.9057,173.343 86.5,172.5C 86.5,174.5 86.5,176.5 86.5,178.5C 82.5,178.5 78.5,178.5 74.5,178.5C 73.9181,175.183 72.5847,172.183 70.5,169.5C 72.0453,168.548 73.712,168.215 75.5,168.5 Z"/></g>
<g><path style="opacity:1" fill="#c9bdbb" d="M 98.5,177.5 C 98.5,177.833 98.5,178.167 98.5,178.5C 96.5,178.5 94.5,178.5 92.5,178.5C 92.3713,176.784 92.038,175.117 91.5,173.5C 96.4809,170.004 98.8143,171.337 98.5,177.5 Z"/></g>
<g><path style="opacity:1" fill="#a39997" d="M 146.5,174.5 C 151.844,174.334 157.177,174.501 162.5,175C 159.899,175.92 157.232,176.587 154.5,177C 158.821,177.499 163.154,177.666 167.5,177.5C 167.5,177.833 167.5,178.167 167.5,178.5C 161.5,178.5 155.5,178.5 149.5,178.5C 149.027,177.094 148.027,176.427 146.5,176.5C 146.5,175.833 146.5,175.167 146.5,174.5 Z"/></g>
<g><path style="opacity:1" fill="#f0ecea" d="M 167.5,172.5 C 167.5,174.167 167.5,175.833 167.5,177.5C 163.154,177.666 158.821,177.499 154.5,177C 157.232,176.587 159.899,175.92 162.5,175C 157.177,174.501 151.844,174.334 146.5,174.5C 146.5,174.167 146.5,173.833 146.5,173.5C 153.313,172.509 160.313,172.175 167.5,172.5 Z"/></g>
<g><path style="opacity:1" fill="#d6a19d" d="M 42.5,176.5 C 44.0418,177.301 45.7085,177.634 47.5,177.5C 52.1667,177.5 56.8333,177.5 61.5,177.5C 61.5,177.833 61.5,178.167 61.5,178.5C 54.9779,178.823 48.6446,178.49 42.5,177.5C 42.5,177.167 42.5,176.833 42.5,176.5 Z"/></g>
<g><path style="opacity:1" fill="#77433b" d="M 75.5,168.5 C 73.712,168.215 72.0453,168.548 70.5,169.5C 72.5847,172.183 73.9181,175.183 74.5,178.5C 70.1667,178.5 65.8333,178.5 61.5,178.5C 61.5,178.167 61.5,177.833 61.5,177.5C 64.3886,176.992 67.2219,176.325 70,175.5C 70.6004,172.905 70.1004,170.571 68.5,168.5C 70.941,167.244 73.2743,167.244 75.5,168.5 Z"/></g>
<g><path style="opacity:1" fill="#3b1a10" d="M 146.5,176.5 C 148.027,176.427 149.027,177.094 149.5,178.5C 132.5,178.5 115.5,178.5 98.5,178.5C 98.5,178.167 98.5,177.833 98.5,177.5C 114.422,176.516 130.422,176.183 146.5,176.5 Z"/></g>
<g><path style="opacity:1" fill="#7d1c4a" d="M -0.5,177.5 C 13.8333,177.5 28.1667,177.5 42.5,177.5C 48.6446,178.49 54.9779,178.823 61.5,178.5C 65.8333,178.5 70.1667,178.5 74.5,178.5C 78.5,178.5 82.5,178.5 86.5,178.5C 88.5,178.5 90.5,178.5 92.5,178.5C 94.5,178.5 96.5,178.5 98.5,178.5C 115.5,178.5 132.5,178.5 149.5,178.5C 155.5,178.5 161.5,178.5 167.5,178.5C 167.5,178.833 167.5,179.167 167.5,179.5C 111.5,179.5 55.5,179.5 -0.5,179.5C -0.5,178.833 -0.5,178.167 -0.5,177.5 Z"/></g>
<g><path style="opacity:1" fill="#a5278c" d="M -0.5,179.5 C 55.5,179.5 111.5,179.5 167.5,179.5C 167.5,180.167 167.5,180.833 167.5,181.5C 137.5,181.5 107.5,181.5 77.5,181.5C 71.1667,181.5 64.8333,181.5 58.5,181.5C 52.5,181.5 46.5,181.5 40.5,181.5C 38.5,181.5 36.5,181.5 34.5,181.5C 30.1667,181.5 25.8333,181.5 21.5,181.5C 18.1667,181.5 14.8333,181.5 11.5,181.5C 7.5,181.5 3.5,181.5 -0.5,181.5C -0.5,180.833 -0.5,180.167 -0.5,179.5 Z"/></g>
<g><path style="opacity:1" fill="#bc7488" d="M 58.5,182.5 C 58.5,182.167 58.5,181.833 58.5,181.5C 64.8333,181.5 71.1667,181.5 77.5,181.5C 77.5,181.833 77.5,182.167 77.5,182.5C 71.1322,183.35 64.7989,183.35 58.5,182.5 Z"/></g>
<g><path style="opacity:1" fill="#980033" d="M 167.5,184.5 C 167.5,185.167 167.5,185.833 167.5,186.5C 71.5,185.833 71.5,185.167 167.5,184.5 Z"/></g>
<g><path style="opacity:1" fill="#f3c7cc" d="M 11.5,181.5 C 14.8333,181.5 18.1667,181.5 21.5,181.5C 21.5,181.833 21.5,182.167 21.5,182.5C 18.4281,182.183 15.4281,182.516 12.5,183.5C 11.7174,185.288 10.3841,186.288 8.5,186.5C 9.92499,185.078 10.925,183.411 11.5,181.5 Z"/></g>
<g><path style="opacity:1" fill="#9b0123" d="M 167.5,182.5 C 167.5,183.167 167.5,183.833 167.5,184.5C 71.5,185.167 71.5,185.833 167.5,186.5C 167.5,197.167 167.5,207.833 167.5,218.5C 166.5,218.5 165.5,218.5 164.5,218.5C 165.019,210.613 164.352,202.947 162.5,195.5C 160.473,195.662 158.473,195.495 156.5,195C 157.5,194.167 158.5,193.333 159.5,192.5C 153.537,191.504 147.537,191.171 141.5,191.5C 141.5,194.167 141.5,196.833 141.5,199.5C 140.508,207.316 140.174,215.316 140.5,223.5C 139.5,223.5 138.5,223.5 137.5,223.5C 137.18,212.918 137.513,202.418 138.5,192C 135.041,192.675 131.541,193.508 128,194.5C 127.517,193.552 127.351,192.552 127.5,191.5C 121.619,192.775 115.619,192.775 109.5,191.5C 108.5,191.833 107.5,192.167 106.5,192.5C 108.145,193.696 109.811,194.696 111.5,195.5C 111.5,196.5 111.5,197.5 111.5,198.5C 109.5,197.833 107.5,197.167 105.5,196.5C 104.699,194.958 104.366,193.292 104.5,191.5C 99.8774,191.416 95.7107,192.082 92,193.5C 91.5,193 91,192.5 90.5,192C 92.291,189.894 92.9577,187.394 92.5,184.5C 88.6249,184.915 84.9582,184.415 81.5,183C 110.165,182.5 138.831,182.333 167.5,182.5 Z"/></g>
<g><path style="opacity:1" fill="#ae3d54" d="M 40.5,182.5 C 40.5,182.167 40.5,181.833 40.5,181.5C 46.5,181.5 52.5,181.5 58.5,181.5C 58.5,181.833 58.5,182.167 58.5,182.5C 57.7659,183.708 57.4326,185.041 57.5,186.5C 56.5655,185.432 56.2322,184.099 56.5,182.5C 51.8333,182.5 47.1667,182.5 42.5,182.5C 42.5,196.167 42.5,209.833 42.5,223.5C 41.8333,209.833 41.1667,196.167 40.5,182.5 Z"/></g>
<g><path style="opacity:1" fill="#ecb9b2" d="M 120.5,195.5 C 121.11,196.391 121.443,197.391 121.5,198.5C 119.283,197.631 116.95,197.298 114.5,197.5C 114.5,198.5 114.5,199.5 114.5,200.5C 114.167,200.5 113.833,200.5 113.5,200.5C 113.735,196.197 116.069,194.53 120.5,195.5 Z"/></g>
<g><path style="opacity:1" fill="#f8e6d5" d="M 58.5,182.5 C 64.7989,183.35 71.1322,183.35 77.5,182.5C 78.4916,182.328 79.1583,182.662 79.5,183.5C 79.4614,184.756 79.9614,185.756 81,186.5C 81.4998,196.828 81.6665,207.161 81.5,217.5C 78.0993,220.529 74.0993,221.862 69.5,221.5C 67.955,222.23 67.1216,223.563 67,225.5C 66.5008,230.155 66.3342,234.821 66.5,239.5C 64.8333,239.5 63.1667,239.5 61.5,239.5C 60.8924,221.991 59.8924,204.657 58.5,187.5C 58.5,186.833 58.1667,186.5 57.5,186.5C 57.4326,185.041 57.7659,183.708 58.5,182.5 Z"/></g>
<g><path style="opacity:1" fill="#c36c72" d="M 74.5,207.5 C 74.5,201.167 74.5,194.833 74.5,188.5C 72.8333,188.5 71.1667,188.5 69.5,188.5C 69.7373,189.791 69.404,190.791 68.5,191.5C 68.5,190.167 68.5,188.833 68.5,187.5C 70.8333,187.5 73.1667,187.5 75.5,187.5C 75.824,194.354 75.4907,201.021 74.5,207.5 Z"/></g>
<g><path style="opacity:1" fill="#cf7f84" d="M 68.5,191.5 C 68.5,199.5 68.5,207.5 68.5,215.5C 69.5,215.5 70.5,215.5 71.5,215.5C 70.4324,216.434 69.099,216.768 67.5,216.5C 67.1739,207.983 67.5073,199.65 68.5,191.5 Z"/></g>
<g><path style="opacity:1" fill="#c97b7f" d="M 79.5,183.5 C 80.4584,183.953 81.2917,184.619 82,185.5C 82.8255,196.341 82.6588,207.008 81.5,217.5C 81.6665,207.161 81.4998,196.828 81,186.5C 79.9614,185.756 79.4614,184.756 79.5,183.5 Z"/></g>
<g><path style="opacity:1" fill="#f7ead7" d="M 101.5,196.5 C 102.167,196.5 102.833,196.5 103.5,196.5C 103.973,197.906 104.973,198.573 106.5,198.5C 106.513,212.176 106.846,225.843 107.5,239.5C 105.833,239.5 104.167,239.5 102.5,239.5C 101.167,239.5 99.8333,239.5 98.5,239.5C 95.8333,239.5 93.1667,239.5 90.5,239.5C 88.7581,234.697 88.0915,229.697 88.5,224.5C 90.5272,221.806 92.8605,219.473 95.5,217.5C 97.2972,216.27 99.2972,215.604 101.5,215.5C 101.817,211.298 101.483,207.298 100.5,203.5C 99.8333,203.167 99.1667,202.833 98.5,202.5C 97.1667,201.167 95.8333,201.167 94.5,202.5C 92.9891,204.476 92.1558,206.809 92,209.5C 91.3109,210.357 90.4776,211.023 89.5,211.5C 88.5108,207.893 88.1774,204.226 88.5,200.5C 90.3084,200.509 91.9751,200.009 93.5,199C 94.8333,198.333 94.8333,197.667 93.5,197C 96.146,196.503 98.8127,196.336 101.5,196.5 Z"/></g>
<g><path style="opacity:1" fill="#fcf0de" d="M 121.5,198.5 C 121.5,198.833 121.5,199.167 121.5,199.5C 120.672,205.987 120.172,212.654 120,219.5C 119.83,213.472 119.33,207.472 118.5,201.5C 117.675,205.122 117.175,208.789 117,212.5C 116.817,209.635 116.317,206.969 115.5,204.5C 115.768,202.901 115.434,201.568 114.5,200.5C 114.5,199.5 114.5,198.5 114.5,197.5C 116.95,197.298 119.283,197.631 121.5,198.5 Z"/></g>
<g><path style="opacity:1" fill="#f2c8c3" d="M 101.5,196.5 C 98.8127,196.336 96.146,196.503 93.5,197C 94.8333,197.667 94.8333,198.333 93.5,199C 91.9751,200.009 90.3084,200.509 88.5,200.5C 88.1774,204.226 88.5108,207.893 89.5,211.5C 90.4776,211.023 91.3109,210.357 92,209.5C 92.1558,206.809 92.9891,204.476 94.5,202.5C 94.5,205.833 94.5,209.167 94.5,212.5C 92.1047,213.814 89.6047,213.814 87,212.5C 84.3086,199.704 89.1419,194.37 101.5,196.5 Z"/></g>
<g><path style="opacity:1" fill="#9c0728" d="M -0.5,181.5 C 3.5,181.5 7.5,181.5 11.5,181.5C 10.925,183.411 9.92499,185.078 8.5,186.5C 7.33846,202.661 7.1718,218.995 8,235.5C 8.61187,238.115 10.1119,239.781 12.5,240.5C 15.9619,241.482 19.6286,241.815 23.5,241.5C 27.8333,241.5 32.1667,241.5 36.5,241.5C 44.6232,242.516 46.6232,239.516 42.5,232.5C 42.5,229.5 42.5,226.5 42.5,223.5C 42.5,209.833 42.5,196.167 42.5,182.5C 47.1667,182.5 51.8333,182.5 56.5,182.5C 56.2322,184.099 56.5655,185.432 57.5,186.5C 58.1667,186.5 58.5,186.833 58.5,187.5C 58.5,194.167 58.5,200.833 58.5,207.5C 57.5119,212.64 57.1786,217.974 57.5,223.5C 56.5,223.5 55.5,223.5 54.5,223.5C 54.0343,229.491 53.701,235.491 53.5,241.5C 52.1667,241.5 50.8333,241.5 49.5,241.5C 49.5,242.5 49.5,243.5 49.5,244.5C 51.3588,244.461 52.6921,245.294 53.5,247C 49.9348,248.758 46.2681,249.924 42.5,250.5C 28.1667,250.5 13.8333,250.5 -0.5,250.5C -0.5,227.5 -0.5,204.5 -0.5,181.5 Z"/></g>
<g><path style="opacity:1" fill="#9c0f29" d="M 27.5,239.5 C 27.5,238.833 27.5,238.167 27.5,237.5C 27.3284,236.508 27.6618,235.842 28.5,235.5C 29.4794,232.375 29.8128,229.042 29.5,225.5C 26.6965,224.362 23.6965,224.195 20.5,225C 19.8641,227.394 19.8641,229.894 20.5,232.5C 18.8333,232.5 17.1667,232.5 15.5,232.5C 15.5,227.5 15.5,222.5 15.5,217.5C 17.8568,217.663 20.1902,217.497 22.5,217C 23.056,216.617 23.3893,216.117 23.5,215.5C 24.4614,213.735 24.7947,211.735 24.5,209.5C 22.8333,209.5 21.1667,209.5 19.5,209.5C 17.4458,209.635 15.7791,208.968 14.5,207.5C 14.5,201.167 14.5,194.833 14.5,188.5C 15.8333,188.5 17.1667,188.5 18.5,188.5C 19.1667,188.5 19.8333,188.5 20.5,188.5C 21.9193,192.015 22.586,195.681 22.5,199.5C 24.4147,199.784 26.0813,199.451 27.5,198.5C 28.7943,196.952 29.4609,194.952 29.5,192.5C 29.4954,190.304 29.162,188.304 28.5,186.5C 27.6935,185.272 26.6935,184.272 25.5,183.5C 27.9479,182.527 30.6146,182.194 33.5,182.5C 33.5,201.5 33.5,220.5 33.5,239.5C 31.5,239.5 29.5,239.5 27.5,239.5 Z"/></g>
<g><path style="opacity:1" fill="#eba9a9" d="M 20.5,188.5 C 20.8333,188.5 21.1667,188.5 21.5,188.5C 22.9395,190.588 23.6061,192.921 23.5,195.5C 23.5,196.5 23.5,197.5 23.5,198.5C 24.8333,198.5 26.1667,198.5 27.5,198.5C 26.0813,199.451 24.4147,199.784 22.5,199.5C 22.586,195.681 21.9193,192.015 20.5,188.5 Z"/></g>
<g><path style="opacity:1" fill="#d17a80" d="M 28.5,186.5 C 29.162,188.304 29.4954,190.304 29.5,192.5C 29.4609,194.952 28.7943,196.952 27.5,198.5C 28.4299,194.6 28.7633,190.6 28.5,186.5 Z"/></g>
<g><path style="opacity:1" fill="#f8efdc" d="M 21.5,182.5 C 18.8106,183.973 16.1439,185.639 13.5,187.5C 13.176,194.354 13.5093,201.021 14.5,207.5C 15.7791,208.968 17.4458,209.635 19.5,209.5C 20.5676,210.434 21.901,210.768 23.5,210.5C 23.5,212.167 23.5,213.833 23.5,215.5C 20.4552,215.508 17.4552,215.841 14.5,216.5C 13.6618,216.842 13.3284,217.508 13.5,218.5C 11.7074,218.884 10.7074,220.05 10.5,222C 11.723,225.503 11.723,229.003 10.5,232.5C 9.91395,232.291 9.41395,231.957 9,231.5C 8.50008,216.504 8.33342,201.504 8.5,186.5C 10.3841,186.288 11.7174,185.288 12.5,183.5C 15.4281,182.516 18.4281,182.183 21.5,182.5 Z"/></g>
<g><path style="opacity:1" fill="#fee9de" d="M 39.5,223.5 C 38.8333,211.66 38.1667,199.66 37.5,187.5C 36.5005,204.821 36.1672,222.154 36.5,239.5C 35.6618,239.158 35.3284,238.492 35.5,237.5C 35.5,219.167 35.5,200.833 35.5,182.5C 36.8333,182.5 38.1667,182.5 39.5,182.5C 39.5,196.167 39.5,209.833 39.5,223.5 Z"/></g>
<g><path style="opacity:1" fill="#f8f1de" d="M 39.5,223.5 C 39.3304,228.813 39.9971,233.98 41.5,239C 39.8659,239.494 38.1992,239.66 36.5,239.5C 36.1672,222.154 36.5005,204.821 37.5,187.5C 38.1667,199.66 38.8333,211.66 39.5,223.5 Z"/></g>
<g><path style="opacity:1" fill="#be7072" d="M 13.5,187.5 C 15.4147,187.216 17.0813,187.549 18.5,188.5C 17.1667,188.5 15.8333,188.5 14.5,188.5C 14.5,194.833 14.5,201.167 14.5,207.5C 13.5093,201.021 13.176,194.354 13.5,187.5 Z"/></g>
<g><path style="opacity:1" fill="#eef5dc" d="M 23.5,195.5 C 23.6061,192.921 22.9395,190.588 21.5,188.5C 22.5718,186.16 24.2385,185.827 26.5,187.5C 27.6517,190.106 27.8184,192.773 27,195.5C 25.8545,196.684 24.6879,196.684 23.5,195.5 Z"/></g>
<g><path style="opacity:1" fill="#fadfd9" d="M 21.5,182.5 C 22.8333,182.833 24.1667,183.167 25.5,183.5C 26.6935,184.272 27.6935,185.272 28.5,186.5C 28.7633,190.6 28.4299,194.6 27.5,198.5C 26.1667,198.5 24.8333,198.5 23.5,198.5C 23.5,197.5 23.5,196.5 23.5,195.5C 24.6879,196.684 25.8545,196.684 27,195.5C 27.8184,192.773 27.6517,190.106 26.5,187.5C 24.2385,185.827 22.5718,186.16 21.5,188.5C 21.1667,188.5 20.8333,188.5 20.5,188.5C 19.8333,188.5 19.1667,188.5 18.5,188.5C 17.0813,187.549 15.4147,187.216 13.5,187.5C 16.1439,185.639 18.8106,183.973 21.5,182.5 Z"/></g>
<g><path style="opacity:1" fill="#dc8b92" d="M 129.5,196.5 C 129.5,196.167 129.5,195.833 129.5,195.5C 131.833,195.5 134.167,195.5 136.5,195.5C 136.829,209.01 136.496,222.344 135.5,235.5C 136.148,222.124 135.481,209.124 133.5,196.5C 132.167,196.5 130.833,196.5 129.5,196.5 Z"/></g>
<g><path style="opacity:1" fill="#eba9ae" d="M 143.5,198.5 C 142.545,209.449 142.211,220.449 142.5,231.5C 141.506,221.013 141.172,210.346 141.5,199.5C 142.167,199.167 142.833,198.833 143.5,198.5 Z"/></g>
<g><path style="opacity:1" fill="#f5aeba" d="M 161.5,210.5 C 161.598,212.553 160.931,214.22 159.5,215.5C 159.077,213.219 159.744,211.552 161.5,210.5 Z"/></g>
<g><path style="opacity:1" fill="#c47077" d="M 19.5,209.5 C 21.1667,209.5 22.8333,209.5 24.5,209.5C 24.7947,211.735 24.4614,213.735 23.5,215.5C 23.5,213.833 23.5,212.167 23.5,210.5C 21.901,210.768 20.5676,210.434 19.5,209.5 Z"/></g>
<g><path style="opacity:1" fill="#96142a" d="M 74.5,207.5 C 74.5,210.167 74.5,212.833 74.5,215.5C 73.5,215.5 72.5,215.5 71.5,215.5C 70.5,215.5 69.5,215.5 68.5,215.5C 68.5,207.5 68.5,199.5 68.5,191.5C 69.404,190.791 69.7373,189.791 69.5,188.5C 71.1667,188.5 72.8333,188.5 74.5,188.5C 74.5,194.833 74.5,201.167 74.5,207.5 Z"/></g>
<g><path style="opacity:1" fill="#ce7b85" d="M 113.5,201.5 C 113.5,201.167 113.5,200.833 113.5,200.5C 113.833,200.5 114.167,200.5 114.5,200.5C 115.434,201.568 115.768,202.901 115.5,204.5C 115.5,210.833 115.5,217.167 115.5,223.5C 114.833,216.167 114.167,208.833 113.5,201.5 Z"/></g>
<g><path style="opacity:1" fill="#9c1c30" d="M 141.5,199.5 C 141.172,210.346 141.506,221.013 142.5,231.5C 142.5,232.167 142.5,232.833 142.5,233.5C 142.338,235.527 142.505,237.527 143,239.5C 143.671,240.252 144.504,240.586 145.5,240.5C 145.5,240.833 145.5,241.167 145.5,241.5C 144.178,241.33 143.011,241.663 142,242.5C 141.82,239.044 141.153,235.711 140,232.5C 138.249,234.49 137.249,236.823 137,239.5C 136.501,243.152 136.335,246.818 136.5,250.5C 136.167,250.5 135.833,250.5 135.5,250.5C 135.5,245.5 135.5,240.5 135.5,235.5C 136.496,222.344 136.829,209.01 136.5,195.5C 134.167,195.5 131.833,195.5 129.5,195.5C 128.47,204.657 127.804,213.99 127.5,223.5C 127.747,226.939 127.414,230.272 126.5,233.5C 124.856,233.714 123.356,233.38 122,232.5C 121.5,221.505 121.333,210.505 121.5,199.5C 121.5,199.167 121.5,198.833 121.5,198.5C 121.443,197.391 121.11,196.391 120.5,195.5C 117.638,194.319 114.638,194.319 111.5,195.5C 109.811,194.696 108.145,193.696 106.5,192.5C 107.5,192.167 108.5,191.833 109.5,191.5C 115.619,192.775 121.619,192.775 127.5,191.5C 127.351,192.552 127.517,193.552 128,194.5C 131.541,193.508 135.041,192.675 138.5,192C 137.513,202.418 137.18,212.918 137.5,223.5C 138.5,223.5 139.5,223.5 140.5,223.5C 140.174,215.316 140.508,207.316 141.5,199.5 Z"/></g>
<g><path style="opacity:1" fill="#b2565d" d="M 129.5,195.5 C 129.5,195.833 129.5,196.167 129.5,196.5C 129.666,203.508 129.5,210.508 129,217.5C 128.809,219.708 128.309,221.708 127.5,223.5C 127.804,213.99 128.47,204.657 129.5,195.5 Z"/></g>
<g><path style="opacity:1" fill="#981a2f" d="M 167.5,218.5 C 167.5,221.5 167.5,224.5 167.5,227.5C 166.566,226.432 166.232,225.099 166.5,223.5C 165.5,223.5 164.5,223.5 163.5,223.5C 163.815,227.371 163.482,231.038 162.5,234.5C 162.5,231.5 162.5,228.5 162.5,225.5C 160.167,225.5 157.833,225.5 155.5,225.5C 155.5,226.833 155.5,228.167 155.5,229.5C 155.5,231.167 155.5,232.833 155.5,234.5C 153.208,234.756 151.041,234.423 149,233.5C 148.333,230.167 148.333,226.833 149,223.5C 152.62,220.946 156.12,218.279 159.5,215.5C 160.931,214.22 161.598,212.553 161.5,210.5C 162.808,206.981 162.808,203.315 161.5,199.5C 156.728,195.911 151.394,194.745 145.5,196C 144.619,196.708 143.953,197.542 143.5,198.5C 142.833,198.833 142.167,199.167 141.5,199.5C 141.5,196.833 141.5,194.167 141.5,191.5C 147.537,191.171 153.537,191.504 159.5,192.5C 158.5,193.333 157.5,194.167 156.5,195C 158.473,195.495 160.473,195.662 162.5,195.5C 164.352,202.947 165.019,210.613 164.5,218.5C 165.5,218.5 166.5,218.5 167.5,218.5 Z"/></g>
<g><path style="opacity:1" fill="#f6e5d5" d="M 161.5,210.5 C 159.744,211.552 159.077,213.219 159.5,215.5C 156.12,218.279 152.62,220.946 149,223.5C 148.333,226.833 148.333,230.167 149,233.5C 151.041,234.423 153.208,234.756 155.5,234.5C 155.5,232.833 155.5,231.167 155.5,229.5C 156.404,228.791 156.737,227.791 156.5,226.5C 158.167,226.5 159.833,226.5 161.5,226.5C 161.5,229.167 161.5,231.833 161.5,234.5C 160.942,236.564 159.775,238.23 158,239.5C 154.025,241.22 149.859,241.887 145.5,241.5C 145.5,241.167 145.5,240.833 145.5,240.5C 144.131,238.268 143.131,235.934 142.5,233.5C 142.5,232.833 142.5,232.167 142.5,231.5C 142.211,220.449 142.545,209.449 143.5,198.5C 143.953,197.542 144.619,196.708 145.5,196C 151.394,194.745 156.728,195.911 161.5,199.5C 162.808,203.315 162.808,206.981 161.5,210.5 Z"/></g>
<g><path style="opacity:1" fill="#c37979" d="M 154.5,202.5 C 152.833,202.5 151.167,202.5 149.5,202.5C 148.911,206.971 149.577,210.971 151.5,214.5C 151.189,215.478 150.522,216.145 149.5,216.5C 148.395,211.555 147.728,206.555 147.5,201.5C 150.059,201.198 152.393,201.532 154.5,202.5 Z"/></g>
<g><path style="opacity:1" fill="#92252f" d="M 154.5,202.5 C 156.263,207.112 155.263,211.112 151.5,214.5C 149.577,210.971 148.911,206.971 149.5,202.5C 151.167,202.5 152.833,202.5 154.5,202.5 Z"/></g>
<g><path style="opacity:1" fill="#eca0a5" d="M 40.5,182.5 C 41.1667,196.167 41.8333,209.833 42.5,223.5C 42.5,226.5 42.5,229.5 42.5,232.5C 42.5,233.833 42.5,235.167 42.5,236.5C 41.6909,234.708 41.1909,232.708 41,230.5C 40.5001,214.503 40.3334,198.503 40.5,182.5 Z"/></g>
<g><path style="opacity:1" fill="#e0a4a4" d="M 106.5,198.5 C 107.295,211.371 108.628,224.038 110.5,236.5C 110.67,237.822 110.337,238.989 109.5,240C 106.961,240.796 104.628,240.629 102.5,239.5C 104.167,239.5 105.833,239.5 107.5,239.5C 106.846,225.843 106.513,212.176 106.5,198.5 Z"/></g>
<g><path style="opacity:1" fill="#9a2c3b" d="M 120.5,195.5 C 116.069,194.53 113.735,196.197 113.5,200.5C 113.5,200.833 113.5,201.167 113.5,201.5C 112.167,201.5 110.833,201.5 109.5,201.5C 109.189,213.247 109.522,224.914 110.5,236.5C 108.628,224.038 107.295,211.371 106.5,198.5C 104.973,198.573 103.973,197.906 103.5,196.5C 104.167,196.5 104.833,196.5 105.5,196.5C 107.5,197.167 109.5,197.833 111.5,198.5C 111.5,197.5 111.5,196.5 111.5,195.5C 114.638,194.319 117.638,194.319 120.5,195.5 Z"/></g>
<g><path style="opacity:1" fill="#eeccc2" d="M 121.5,199.5 C 121.333,210.505 121.5,221.505 122,232.5C 123.356,233.38 124.856,233.714 126.5,233.5C 124.643,234.754 122.643,234.754 120.5,233.5C 119.52,230.914 119.187,228.247 119.5,225.5C 118.5,225.5 117.5,225.5 116.5,225.5C 116.5,228.5 116.5,231.5 116.5,234.5C 115.518,231.038 115.185,227.371 115.5,223.5C 115.5,217.167 115.5,210.833 115.5,204.5C 116.317,206.969 116.817,209.635 117,212.5C 117.175,208.789 117.675,205.122 118.5,201.5C 119.33,207.472 119.83,213.472 120,219.5C 120.172,212.654 120.672,205.987 121.5,199.5 Z"/></g>
<g><path style="opacity:1" fill="#f6e2d5" d="M 129.5,196.5 C 130.833,196.5 132.167,196.5 133.5,196.5C 134.326,214.381 134.66,232.381 134.5,250.5C 145.116,252.477 156.116,253.144 167.5,252.5C 167.5,252.833 167.5,253.167 167.5,253.5C 151.167,253.5 134.833,253.5 118.5,253.5C 121.833,251.833 125.167,250.167 128.5,248.5C 129.479,245.375 129.813,242.042 129.5,238.5C 126.5,238.5 123.5,238.5 120.5,238.5C 118.167,238.167 116.833,236.833 116.5,234.5C 116.5,231.5 116.5,228.5 116.5,225.5C 117.5,225.5 118.5,225.5 119.5,225.5C 119.187,228.247 119.52,230.914 120.5,233.5C 122.643,234.754 124.643,234.754 126.5,233.5C 127.414,230.272 127.747,226.939 127.5,223.5C 128.309,221.708 128.809,219.708 129,217.5C 129.5,210.508 129.666,203.508 129.5,196.5 Z"/></g>
<g><path style="opacity:1" fill="#fbd7d1" d="M 133.5,196.5 C 135.481,209.124 136.148,222.124 135.5,235.5C 135.5,240.5 135.5,245.5 135.5,250.5C 135.167,250.5 134.833,250.5 134.5,250.5C 134.66,232.381 134.326,214.381 133.5,196.5 Z"/></g>
<g><path style="opacity:1" fill="#eebeba" d="M 34.5,181.5 C 36.5,181.5 38.5,181.5 40.5,181.5C 40.5,181.833 40.5,182.167 40.5,182.5C 40.3334,198.503 40.5001,214.503 41,230.5C 41.1909,232.708 41.6909,234.708 42.5,236.5C 43.7911,237.542 43.7911,238.708 42.5,240C 40.5273,240.495 38.5273,240.662 36.5,240.5C 36.5,240.167 36.5,239.833 36.5,239.5C 38.1992,239.66 39.8659,239.494 41.5,239C 39.9971,233.98 39.3304,228.813 39.5,223.5C 39.5,209.833 39.5,196.167 39.5,182.5C 38.1667,182.5 36.8333,182.5 35.5,182.5C 35.5,200.833 35.5,219.167 35.5,237.5C 34.5031,219.007 34.1698,200.341 34.5,181.5 Z"/></g>
<g><path style="opacity:1" fill="#e3a29e" d="M 14.5,216.5 C 14.5,222.167 14.5,227.833 14.5,233.5C 12.9827,231.538 12.3161,229.205 12.5,226.5C 12.7027,223.803 13.036,221.136 13.5,218.5C 13.3284,217.508 13.6618,216.842 14.5,216.5 Z"/></g>
<g><path style="opacity:1" fill="#eda7a9" d="M 29.5,225.5 C 29.8128,229.042 29.4794,232.375 28.5,235.5C 28.5,232.5 28.5,229.5 28.5,226.5C 26.8333,226.5 25.1667,226.5 23.5,226.5C 23.7947,228.735 23.4614,230.735 22.5,232.5C 22.5,230.167 22.5,227.833 22.5,225.5C 24.8333,225.5 27.1667,225.5 29.5,225.5 Z"/></g>
<g><path style="opacity:1" fill="#95343c" d="M 58.5,187.5 C 59.8924,204.657 60.8924,221.991 61.5,239.5C 60.1883,237.257 59.5217,234.59 59.5,231.5C 58.8341,223.512 58.5007,215.512 58.5,207.5C 58.5,200.833 58.5,194.167 58.5,187.5 Z"/></g>
<g><path style="opacity:1" fill="#e599a0" d="M 162.5,234.5 C 162.167,234.5 161.833,234.5 161.5,234.5C 161.5,231.833 161.5,229.167 161.5,226.5C 159.833,226.5 158.167,226.5 156.5,226.5C 156.737,227.791 156.404,228.791 155.5,229.5C 155.5,228.167 155.5,226.833 155.5,225.5C 157.833,225.5 160.167,225.5 162.5,225.5C 162.5,228.5 162.5,231.5 162.5,234.5 Z"/></g>
<g><path style="opacity:1" fill="#9b0f2a" d="M 77.5,182.5 C 77.5,182.167 77.5,181.833 77.5,181.5C 107.5,181.5 137.5,181.5 167.5,181.5C 167.5,181.833 167.5,182.167 167.5,182.5C 138.831,182.333 110.165,182.5 81.5,183C 84.9582,184.415 88.6249,184.915 92.5,184.5C 92.9577,187.394 92.291,189.894 90.5,192C 91,192.5 91.5,193 92,193.5C 95.7107,192.082 99.8774,191.416 104.5,191.5C 104.366,193.292 104.699,194.958 105.5,196.5C 104.833,196.5 104.167,196.5 103.5,196.5C 102.833,196.5 102.167,196.5 101.5,196.5C 89.1419,194.37 84.3086,199.704 87,212.5C 89.6047,213.814 92.1047,213.814 94.5,212.5C 95.4794,209.375 95.8128,206.042 95.5,202.5C 96.5,202.5 97.5,202.5 98.5,202.5C 99.1667,202.833 99.8333,203.167 100.5,203.5C 100.665,206.85 100.498,210.183 100,213.5C 97.8816,214.283 96.3816,215.616 95.5,217.5C 92.8605,219.473 90.5272,221.806 88.5,224.5C 87.353,228.646 87.1864,232.98 88,237.5C 88.4169,238.756 89.2502,239.423 90.5,239.5C 90.6107,240.117 90.944,240.617 91.5,241C 93.4727,241.495 95.4727,241.662 97.5,241.5C 101.146,242.283 104.812,242.45 108.5,242C 111.689,240.456 112.855,237.956 112,234.5C 111.722,235.416 111.222,236.082 110.5,236.5C 109.522,224.914 109.189,213.247 109.5,201.5C 110.833,201.5 112.167,201.5 113.5,201.5C 114.167,208.833 114.833,216.167 115.5,223.5C 115.185,227.371 115.518,231.038 116.5,234.5C 116.833,236.833 118.167,238.167 120.5,238.5C 122.948,239.473 125.615,239.806 128.5,239.5C 128.5,241.5 128.5,243.5 128.5,245.5C 127.292,246.234 125.959,246.567 124.5,246.5C 124.286,244.856 124.62,243.356 125.5,242C 121.514,241.501 117.514,241.334 113.5,241.5C 113.777,244.448 113.444,247.281 112.5,250C 89.169,250.5 65.8357,250.667 42.5,250.5C 46.2681,249.924 49.9348,248.758 53.5,247C 52.6921,245.294 51.3588,244.461 49.5,244.5C 49.5,243.5 49.5,242.5 49.5,241.5C 50.8333,241.5 52.1667,241.5 53.5,241.5C 53.701,235.491 54.0343,229.491 54.5,223.5C 55.5,223.5 56.5,223.5 57.5,223.5C 57.1786,217.974 57.5119,212.64 58.5,207.5C 58.5007,215.512 58.8341,223.512 59.5,231.5C 59.5217,234.59 60.1883,237.257 61.5,239.5C 63.1667,239.5 64.8333,239.5 66.5,239.5C 68.2093,233.842 69.2093,227.842 69.5,221.5C 74.0993,221.862 78.0993,220.529 81.5,217.5C 82.6588,207.008 82.8255,196.341 82,185.5C 81.2917,184.619 80.4584,183.953 79.5,183.5C 79.1583,182.662 78.4916,182.328 77.5,182.5 Z"/></g>
<g><path style="opacity:1" fill="#a82f39" d="M 98.5,223.5 C 99.5,223.5 100.5,223.5 101.5,223.5C 101.5,226.833 101.5,230.167 101.5,233.5C 100.209,233.263 99.209,233.596 98.5,234.5C 97.5,234.5 96.5,234.5 95.5,234.5C 95.3899,230.39 96.3899,226.723 98.5,223.5 Z"/></g>
<g><path style="opacity:1" fill="#b46f6d" d="M 98.5,223.5 C 96.3899,226.723 95.3899,230.39 95.5,234.5C 96.5,234.5 97.5,234.5 98.5,234.5C 94.7757,235.922 93.1091,234.422 93.5,230C 93.4883,226.515 95.1549,224.348 98.5,223.5 Z"/></g>
<g><path style="opacity:1" fill="#934143" d="M 100.5,203.5 C 101.483,207.298 101.817,211.298 101.5,215.5C 99.2972,215.604 97.2972,216.27 95.5,217.5C 96.3816,215.616 97.8816,214.283 100,213.5C 100.498,210.183 100.665,206.85 100.5,203.5 Z"/></g>
<g><path style="opacity:1" fill="#9c675f" d="M 98.5,202.5 C 97.5,202.5 96.5,202.5 95.5,202.5C 95.8128,206.042 95.4794,209.375 94.5,212.5C 94.5,209.167 94.5,205.833 94.5,202.5C 95.8333,201.167 97.1667,201.167 98.5,202.5 Z"/></g>
<g><path style="opacity:1" fill="#96323b" d="M 23.5,215.5 C 23.3893,216.117 23.056,216.617 22.5,217C 20.1902,217.497 17.8568,217.663 15.5,217.5C 15.5,222.5 15.5,227.5 15.5,232.5C 17.1667,232.5 18.8333,232.5 20.5,232.5C 19.8641,229.894 19.8641,227.394 20.5,225C 23.6965,224.195 26.6965,224.362 29.5,225.5C 27.1667,225.5 24.8333,225.5 22.5,225.5C 22.5,227.833 22.5,230.167 22.5,232.5C 20.092,235.778 17.4254,236.111 14.5,233.5C 14.5,227.833 14.5,222.167 14.5,216.5C 17.4552,215.841 20.4552,215.508 23.5,215.5 Z"/></g>
<g><path style="opacity:1" fill="#fae5d7" d="M 8.5,186.5 C 8.33342,201.504 8.50008,216.504 9,231.5C 9.41395,231.957 9.91395,232.291 10.5,232.5C 11.723,229.003 11.723,225.503 10.5,222C 10.7074,220.05 11.7074,218.884 13.5,218.5C 13.036,221.136 12.7027,223.803 12.5,226.5C 12.3161,229.205 12.9827,231.538 14.5,233.5C 17.4254,236.111 20.092,235.778 22.5,232.5C 23.4614,230.735 23.7947,228.735 23.5,226.5C 25.1667,226.5 26.8333,226.5 28.5,226.5C 28.5,229.5 28.5,232.5 28.5,235.5C 27.6618,235.842 27.3284,236.508 27.5,237.5C 22.9277,240.133 17.9277,241.133 12.5,240.5C 10.1119,239.781 8.61187,238.115 8,235.5C 7.1718,218.995 7.33846,202.661 8.5,186.5 Z"/></g>
<g><path style="opacity:1" fill="#b75a63" d="M 69.5,221.5 C 69.2093,227.842 68.2093,233.842 66.5,239.5C 66.3342,234.821 66.5008,230.155 67,225.5C 67.1216,223.563 67.955,222.23 69.5,221.5 Z"/></g>
<g><path style="opacity:1" fill="#db878d" d="M 88.5,224.5 C 88.0915,229.697 88.7581,234.697 90.5,239.5C 89.2502,239.423 88.4169,238.756 88,237.5C 87.1864,232.98 87.353,228.646 88.5,224.5 Z"/></g>
<g><path style="opacity:1" fill="#8e2333" d="M 21.5,182.5 C 21.5,182.167 21.5,181.833 21.5,181.5C 25.8333,181.5 30.1667,181.5 34.5,181.5C 34.1698,200.341 34.5031,219.007 35.5,237.5C 35.3284,238.492 35.6618,239.158 36.5,239.5C 36.5,239.833 36.5,240.167 36.5,240.5C 36.5,240.833 36.5,241.167 36.5,241.5C 32.1667,241.5 27.8333,241.5 23.5,241.5C 24.6715,240.655 26.0048,239.989 27.5,239.5C 29.5,239.5 31.5,239.5 33.5,239.5C 33.5,220.5 33.5,201.5 33.5,182.5C 30.6146,182.194 27.9479,182.527 25.5,183.5C 24.1667,183.167 22.8333,182.833 21.5,182.5 Z"/></g>
<g><path style="opacity:1" fill="#d29e95" d="M 120.5,238.5 C 123.5,238.5 126.5,238.5 129.5,238.5C 129.813,242.042 129.479,245.375 128.5,248.5C 128.5,247.5 128.5,246.5 128.5,245.5C 128.5,243.5 128.5,241.5 128.5,239.5C 125.615,239.806 122.948,239.473 120.5,238.5 Z"/></g>
<g><path style="opacity:1" fill="#ae505d" d="M 42.5,232.5 C 46.6232,239.516 44.6232,242.516 36.5,241.5C 36.5,241.167 36.5,240.833 36.5,240.5C 38.5273,240.662 40.5273,240.495 42.5,240C 43.7911,238.708 43.7911,237.542 42.5,236.5C 42.5,235.167 42.5,233.833 42.5,232.5 Z"/></g>
<g><path style="opacity:1" fill="#c5787d" d="M 27.5,237.5 C 27.5,238.167 27.5,238.833 27.5,239.5C 26.0048,239.989 24.6715,240.655 23.5,241.5C 19.6286,241.815 15.9619,241.482 12.5,240.5C 17.9277,241.133 22.9277,240.133 27.5,237.5 Z"/></g>
<g><path style="opacity:1" fill="#f4a4b1" d="M 90.5,239.5 C 93.1667,239.5 95.8333,239.5 98.5,239.5C 98.1667,240.167 97.8333,240.833 97.5,241.5C 95.4727,241.662 93.4727,241.495 91.5,241C 90.944,240.617 90.6107,240.117 90.5,239.5 Z"/></g>
<g><path style="opacity:1" fill="#a53a4a" d="M 97.5,241.5 C 97.8333,240.833 98.1667,240.167 98.5,239.5C 99.8333,239.5 101.167,239.5 102.5,239.5C 104.628,240.629 106.961,240.796 109.5,240C 110.337,238.989 110.67,237.822 110.5,236.5C 111.222,236.082 111.722,235.416 112,234.5C 112.855,237.956 111.689,240.456 108.5,242C 104.812,242.45 101.146,242.283 97.5,241.5 Z"/></g>
<g><path style="opacity:1" fill="#9b0727" d="M 167.5,227.5 C 167.5,235.167 167.5,242.833 167.5,250.5C 159.493,250.666 151.493,250.5 143.5,250C 140.772,248.495 138.439,248.662 136.5,250.5C 136.335,246.818 136.501,243.152 137,239.5C 137.249,236.823 138.249,234.49 140,232.5C 141.153,235.711 141.82,239.044 142,242.5C 143.011,241.663 144.178,241.33 145.5,241.5C 149.859,241.887 154.025,241.22 158,239.5C 159.775,238.23 160.942,236.564 161.5,234.5C 161.833,234.5 162.167,234.5 162.5,234.5C 163.482,231.038 163.815,227.371 163.5,223.5C 164.5,223.5 165.5,223.5 166.5,223.5C 166.232,225.099 166.566,226.432 167.5,227.5 Z"/></g>
<g><path style="opacity:1" fill="#de959b" d="M 142.5,233.5 C 143.131,235.934 144.131,238.268 145.5,240.5C 144.504,240.586 143.671,240.252 143,239.5C 142.505,237.527 142.338,235.527 142.5,233.5 Z"/></g>
<g><path style="opacity:1" fill="#fce6da" d="M 115.5,243.5 C 117.5,243.5 119.5,243.5 121.5,243.5C 121.5,245.833 121.5,248.167 121.5,250.5C 119.5,250.5 117.5,250.5 115.5,250.5C 115.5,248.167 115.5,245.833 115.5,243.5 Z"/></g>
<g><path style="opacity:1" fill="#8d112a" d="M 128.5,245.5 C 128.5,246.5 128.5,247.5 128.5,248.5C 126.5,248.5 124.5,248.5 122.5,248.5C 122.5,246.5 122.5,244.5 122.5,242.5C 119.941,242.198 117.607,242.532 115.5,243.5C 115.5,245.833 115.5,248.167 115.5,250.5C 76.9059,251.494 38.2393,251.827 -0.5,251.5C -0.5,251.167 -0.5,250.833 -0.5,250.5C 13.8333,250.5 28.1667,250.5 42.5,250.5C 65.8357,250.667 89.169,250.5 112.5,250C 113.444,247.281 113.777,244.448 113.5,241.5C 117.514,241.334 121.514,241.501 125.5,242C 124.62,243.356 124.286,244.856 124.5,246.5C 125.959,246.567 127.292,246.234 128.5,245.5 Z"/></g>
<g><path style="opacity:1" fill="#f3b8bf" d="M 115.5,243.5 C 117.607,242.532 119.941,242.198 122.5,242.5C 122.5,244.5 122.5,246.5 122.5,248.5C 124.5,248.5 126.5,248.5 128.5,248.5C 125.167,250.167 121.833,251.833 118.5,253.5C 78.8333,253.5 39.1667,253.5 -0.5,253.5C -0.5,253.167 -0.5,252.833 -0.5,252.5C 38.5014,252.667 77.5014,252.5 116.5,252C 115.944,251.617 115.611,251.117 115.5,250.5C 117.5,250.5 119.5,250.5 121.5,250.5C 121.5,248.167 121.5,245.833 121.5,243.5C 119.5,243.5 117.5,243.5 115.5,243.5 Z"/></g>
<g><path style="opacity:1" fill="#80162c" d="M 115.5,250.5 C 115.611,251.117 115.944,251.617 116.5,252C 77.5014,252.5 38.5014,252.667 -0.5,252.5C -0.5,252.167 -0.5,251.833 -0.5,251.5C 38.2393,251.827 76.9059,251.494 115.5,250.5 Z"/></g>
<g><path style="opacity:1" fill="#840d28" d="M 167.5,250.5 C 167.5,251.167 167.5,251.833 167.5,252.5C 156.116,253.144 145.116,252.477 134.5,250.5C 134.833,250.5 135.167,250.5 135.5,250.5C 135.833,250.5 136.167,250.5 136.5,250.5C 138.439,248.662 140.772,248.495 143.5,250C 151.493,250.5 159.493,250.666 167.5,250.5 Z"/></g>
</svg>
