<?xml version="1.0" encoding="UTF-8"?>
<!DOCTYPE svg PUBLIC "-//W3C//DTD SVG 1.1//EN" "http://www.w3.org/Graphics/SVG/1.1/DTD/svg11.dtd">
<svg xmlns="http://www.w3.org/2000/svg" version="1.1" width="166px" height="73px" style="shape-rendering:geometricPrecision; text-rendering:geometricPrecision; image-rendering:optimizeQuality; fill-rule:evenodd; clip-rule:evenodd" xmlns:xlink="http://www.w3.org/1999/xlink">
<g><path style="opacity:1" fill="#d09794" d="M 56.5,0.5 C 56.5,0.166667 56.5,-0.166667 56.5,-0.5C 58.5,-0.5 60.5,-0.5 62.5,-0.5C 62.5,0.166667 62.5,0.833333 62.5,1.5C 60.1417,1.2525 58.1417,1.91917 56.5,3.5C 57.1157,2.20222 57.1157,1.20222 56.5,0.5 Z"/></g>
<g><path style="opacity:1" fill="#be616c" d="M 62.5,-0.5 C 64.8333,-0.5 67.1667,-0.5 69.5,-0.5C 69.5,0.166667 69.5,0.833333 69.5,1.5C 67.1667,1.5 64.8333,1.5 62.5,1.5C 62.5,0.833333 62.5,0.166667 62.5,-0.5 Z"/></g>
<g><path style="opacity:1" fill="#902431" d="M 33.5,56.5 C 31.7202,55.0101 31.0535,53.0101 31.5,50.5C 32.6357,34.8777 32.8023,19.211 32,3.5C 31.3333,2.16667 30.6667,2.16667 30,3.5C 29.8255,8.3514 29.3255,13.0181 28.5,17.5C 28.8168,13.2984 28.4834,9.29841 27.5,5.5C 27.1667,5.5 26.8333,5.5 26.5,5.5C 26.1436,3.81018 25.1436,2.81018 23.5,2.5C 23.3893,1.88258 23.056,1.38258 22.5,1C 26.1516,0.50137 29.8183,0.334703 33.5,0.5C 33.5,19.1667 33.5,37.8333 33.5,56.5 Z"/></g>
<g><path style="opacity:1" fill="#da8a92" d="M 69.5,-0.5 C 101.5,-0.5 133.5,-0.5 165.5,-0.5C 165.5,-0.166667 165.5,0.166667 165.5,0.5C 140.833,0.5 116.167,0.5 91.5,0.5C 89.5,0.5 87.5,0.5 85.5,0.5C 84.1667,0.5 82.8333,0.5 81.5,0.5C 79.5853,0.215521 77.9187,0.548855 76.5,1.5C 74.1667,1.5 71.8333,1.5 69.5,1.5C 69.5,0.833333 69.5,0.166667 69.5,-0.5 Z"/></g>
<g><path style="opacity:1" fill="#862032" d="M 76.5,1.5 C 77.9187,0.548855 79.5853,0.215521 81.5,0.5C 81.5,1.83333 81.5,3.16667 81.5,4.5C 80.8333,4.16667 80.1667,3.83333 79.5,3.5C 78.7095,2.59872 77.7095,1.93205 76.5,1.5 Z"/></g>
<g><path style="opacity:1" fill="#880b29" d="M 91.5,0.5 C 116.167,0.5 140.833,0.5 165.5,0.5C 165.5,1.16667 165.5,1.83333 165.5,2.5C 163.5,2.5 161.5,2.5 159.5,2.5C 136.833,1.83333 114.167,1.16667 91.5,0.5 Z"/></g>
<g><path style="opacity:1" fill="#a33243" d="M -0.5,-0.5 C 3.16667,-0.5 6.83333,-0.5 10.5,-0.5C 10.4312,2.08423 9.26451,4.08423 7,5.5C 6.50009,19.496 6.33343,33.496 6.5,47.5C 5.51836,44.0381 5.18503,40.3714 5.5,36.5C 5.61922,25.4816 5.28588,14.4816 4.5,3.5C 2.83333,3.5 1.16667,3.5 -0.5,3.5C -0.5,2.16667 -0.5,0.833333 -0.5,-0.5 Z"/></g>
<g><path style="opacity:1" fill="#9a0024" d="M 94.5,3.5 C 115.994,2.50265 137.66,2.16932 159.5,2.5C 161.5,2.5 163.5,2.5 165.5,2.5C 165.5,3.16667 165.5,3.83333 165.5,4.5C 141.852,3.56185 118.186,3.22851 94.5,3.5 Z"/></g>
<g><path style="opacity:1" fill="#fae0d4" d="M 62.5,1.5 C 64.8333,1.5 67.1667,1.5 69.5,1.5C 71.8333,1.5 74.1667,1.5 76.5,1.5C 77.7095,1.93205 78.7095,2.59872 79.5,3.5C 80.4553,14.4489 80.7886,25.4489 80.5,36.5C 79.3406,38.2503 77.674,39.2503 75.5,39.5C 75.281,38.325 75.6143,37.325 76.5,36.5C 77.7387,36.0576 78.7387,35.3909 79.5,34.5C 79.8314,25.8078 79.498,17.1411 78.5,8.5C 77.2782,10.9769 75.9449,13.3102 74.5,15.5C 74.5,12.5 74.5,9.5 74.5,6.5C 72.2646,6.20528 70.2646,6.53862 68.5,7.5C 67.71,8.60853 67.21,9.94186 67,11.5C 66.5006,16.8229 66.334,22.1563 66.5,27.5C 65.6762,23.6877 65.1762,19.6877 65,15.5C 64.6667,20.1667 64.3333,24.8333 64,29.5C 63.7216,30.4158 63.2216,31.0825 62.5,31.5C 62.334,26.1563 62.5006,20.8229 63,15.5C 64.9416,12.1283 66.1083,8.46161 66.5,4.5C 65.3333,4.16667 64.1667,3.83333 63,3.5C 60.9919,3.30684 59.4919,3.9735 58.5,5.5C 57.1667,5.5 56.5,4.83333 56.5,3.5C 58.1417,1.91917 60.1417,1.2525 62.5,1.5 Z"/></g>
<g><path style="opacity:1" fill="#960427" d="M 85.5,0.5 C 87.5,0.5 89.5,0.5 91.5,0.5C 114.167,1.16667 136.833,1.83333 159.5,2.5C 137.66,2.16932 115.994,2.50265 94.5,3.5C 94.0618,3.43456 93.7284,3.60123 93.5,4C 94.1258,4.75044 94.6258,5.58377 95,6.5C 99.2532,5.61805 103.587,4.95138 108,4.5C 109.681,4.60826 110.848,5.27493 111.5,6.5C 106.604,8.44613 101.271,9.1128 95.5,8.5C 93.744,9.55213 93.0773,11.2188 93.5,13.5C 91.1667,13.5 88.8333,13.5 86.5,13.5C 87.9187,12.5489 89.5853,12.2155 91.5,12.5C 91.5,11.5 91.5,10.5 91.5,9.5C 89.5,9.5 87.5,9.5 85.5,9.5C 85.5,6.5 85.5,3.5 85.5,0.5 Z"/></g>
<g><path style="opacity:1" fill="#a00027" d="M 94.5,3.5 C 118.186,3.22851 141.852,3.56185 165.5,4.5C 165.5,5.5 165.5,6.5 165.5,7.5C 161.817,7.0534 158.15,6.38673 154.5,5.5C 150.837,5.9442 147.171,6.27753 143.5,6.5C 133.014,5.90561 122.348,5.90561 111.5,6.5C 110.848,5.27493 109.681,4.60826 108,4.5C 103.587,4.95138 99.2532,5.61805 95,6.5C 94.6258,5.58377 94.1258,4.75044 93.5,4C 93.7284,3.60123 94.0618,3.43456 94.5,3.5 Z"/></g>
<g><path style="opacity:1" fill="#f9ddd4" d="M 10.5,-0.5 C 13.5,-0.5 16.5,-0.5 19.5,-0.5C 20.2623,1.26242 21.5956,2.26242 23.5,2.5C 25.1436,2.81018 26.1436,3.81018 26.5,5.5C 26.8333,5.5 27.1667,5.5 27.5,5.5C 27.7633,9.60023 27.4299,13.6002 26.5,17.5C 25.1667,17.5 23.8333,17.5 22.5,17.5C 22.7947,15.2646 22.4614,13.2646 21.5,11.5C 20.1981,6.81239 17.3648,5.47905 13,7.5C 12.3766,14.5226 12.5432,21.5226 13.5,28.5C 12.7784,28.0825 12.2784,27.4158 12,26.5C 11.1376,28.087 10.4709,29.7536 10,31.5C 9.83333,28.8333 9.66667,26.1667 9.5,23.5C 9.60147,20.3004 10.2681,17.3004 11.5,14.5C 10.0078,9.37528 9.00784,9.37528 8.5,14.5C 6.87686,27.3971 7.21019,40.0638 9.5,52.5C 9.26057,54.4672 9.59391,56.3005 10.5,58C 14.0601,59.2367 17.7267,59.7367 21.5,59.5C 21.5,59.8333 21.5,60.1667 21.5,60.5C 10.5925,62.8886 5.59247,58.5552 6.5,47.5C 6.33343,33.496 6.50009,19.496 7,5.5C 9.26451,4.08423 10.4312,2.08423 10.5,-0.5 Z"/></g>
<g><path style="opacity:1" fill="#f0f5df" d="M 26.5,5.5 C 26.8747,8.39653 26.3747,11.0632 25,13.5C 23.2776,10.7209 22.1109,7.72091 21.5,4.5C 23.2161,4.62867 24.8828,4.962 26.5,5.5 Z"/></g>
<g><path style="opacity:1" fill="#c8576c" d="M 40.5,-0.5 C 45.8333,-0.5 51.1667,-0.5 56.5,-0.5C 56.5,-0.166667 56.5,0.166667 56.5,0.5C 55.1667,0.5 53.8333,0.5 52.5,0.5C 48.8333,0.5 45.1667,0.5 41.5,0.5C 41.5,1.5 41.5,2.5 41.5,3.5C 41.5,18.1667 41.5,32.8333 41.5,47.5C 41.5,49.5 41.5,51.5 41.5,53.5C 40.5032,35.6744 40.1699,17.6744 40.5,-0.5 Z"/></g>
<g><path style="opacity:1" fill="#9b0226" d="M 165.5,7.5 C 165.5,16.8333 165.5,26.1667 165.5,35.5C 162.603,39.5956 161.936,39.0956 163.5,34C 162.787,28.524 162.287,23.024 162,17.5C 160.599,15.8078 158.766,15.1412 156.5,15.5C 155.833,15.5 155.167,15.5 154.5,15.5C 154.5,15.1667 154.5,14.8333 154.5,14.5C 151.316,12.5864 147.649,11.9197 143.5,12.5C 150.018,11.2219 150.018,9.88853 143.5,8.5C 143.5,7.83333 143.5,7.16667 143.5,6.5C 147.171,6.27753 150.837,5.9442 154.5,5.5C 158.15,6.38673 161.817,7.0534 165.5,7.5 Z"/></g>
<g><path style="opacity:1" fill="#960226" d="M 143.5,6.5 C 143.5,7.16667 143.5,7.83333 143.5,8.5C 138.433,9.18819 133.267,9.85486 128,10.5C 126.989,9.66337 125.822,9.33003 124.5,9.5C 122.856,9.28649 121.356,9.61983 120,10.5C 111.735,9.84699 103.568,9.18032 95.5,8.5C 101.271,9.1128 106.604,8.44613 111.5,6.5C 122.348,5.90561 133.014,5.90561 143.5,6.5 Z"/></g>
<g><path style="opacity:1" fill="#c68184" d="M 27.5,5.5 C 28.4834,9.29841 28.8168,13.2984 28.5,17.5C 27.8333,17.5 27.1667,17.5 26.5,17.5C 27.4299,13.6002 27.7633,9.60023 27.5,5.5 Z"/></g>
<g><path style="opacity:1" fill="#bd676e" d="M 68.5,7.5 C 70.2646,6.53862 72.2646,6.20528 74.5,6.5C 74.5,9.5 74.5,12.5 74.5,15.5C 74.5,18.1667 74.5,20.8333 74.5,23.5C 74.1667,23.5 73.8333,23.5 73.5,23.5C 73.5,18.1667 73.5,12.8333 73.5,7.5C 71.8333,7.5 70.1667,7.5 68.5,7.5 Z"/></g>
<g><path style="opacity:1" fill="#a10026" d="M 143.5,8.5 C 150.018,9.88853 150.018,11.2219 143.5,12.5C 143.5,12.8333 143.5,13.1667 143.5,13.5C 136.745,13.7934 130.078,13.4601 123.5,12.5C 123.389,11.8826 123.056,11.3826 122.5,11C 123.416,10.7216 124.082,10.2216 124.5,9.5C 125.822,9.33003 126.989,9.66337 128,10.5C 133.267,9.85486 138.433,9.18819 143.5,8.5 Z"/></g>
<g><path style="opacity:1" fill="#9f0025" d="M 95.5,8.5 C 103.568,9.18032 111.735,9.84699 120,10.5C 121.356,9.61983 122.856,9.28649 124.5,9.5C 124.082,10.2216 123.416,10.7216 122.5,11C 123.056,11.3826 123.389,11.8826 123.5,12.5C 113.456,13.418 103.456,13.7513 93.5,13.5C 93.0773,11.2188 93.744,9.55213 95.5,8.5 Z"/></g>
<g><path style="opacity:1" fill="#970327" d="M 52.5,0.5 C 51.5449,2.70992 50.0449,3.04325 48,1.5C 47.8119,3.0613 48.6453,3.72797 50.5,3.5C 50.4679,7.9829 49.4679,11.9829 47.5,15.5C 46.5056,25.9869 46.1722,36.6536 46.5,47.5C 45.5,47.5 44.5,47.5 43.5,47.5C 43.1059,32.4369 43.7726,17.4369 45.5,2.5C 44.0413,2.43255 42.7079,2.76589 41.5,3.5C 41.5,2.5 41.5,1.5 41.5,0.5C 45.1667,0.5 48.8333,0.5 52.5,0.5 Z"/></g>
<g><path style="opacity:1" fill="#feeade" d="M 34.5,-0.5 C 36.1667,-0.5 37.8333,-0.5 39.5,-0.5C 38.5192,12.7541 38.1858,26.0875 38.5,39.5C 36.6245,45.2303 35.6245,51.2303 35.5,57.5C 35.1667,57.5 34.8333,57.5 34.5,57.5C 34.5,38.1667 34.5,18.8333 34.5,-0.5 Z"/></g>
<g><path style="opacity:1" fill="#960828" d="M 52.5,0.5 C 53.8333,0.5 55.1667,0.5 56.5,0.5C 57.1157,1.20222 57.1157,2.20222 56.5,3.5C 56.5,4.83333 57.1667,5.5 58.5,5.5C 58.5,5.83333 58.5,6.16667 58.5,6.5C 58.5,9.5 58.5,12.5 58.5,15.5C 56.7202,12.1446 55.7202,8.47798 55.5,4.5C 54.325,4.28099 53.325,4.61432 52.5,5.5C 53.4173,8.75768 53.7507,12.091 53.5,15.5C 52.5,15.5 51.5,15.5 50.5,15.5C 50.5,26.1667 50.5,36.8333 50.5,47.5C 50.1667,47.5 49.8333,47.5 49.5,47.5C 48.1787,37.0258 47.512,26.3591 47.5,15.5C 49.4679,11.9829 50.4679,7.9829 50.5,3.5C 48.6453,3.72797 47.8119,3.0613 48,1.5C 50.0449,3.04325 51.5449,2.70992 52.5,0.5 Z"/></g>
<g><path style="opacity:1" fill="#920f29" d="M 123.5,12.5 C 130.078,13.4601 136.745,13.7934 143.5,13.5C 141.052,14.4731 138.385,14.8064 135.5,14.5C 132.615,14.1936 129.948,14.5269 127.5,15.5C 125.5,15.5 123.5,15.5 121.5,15.5C 119.282,13.1559 116.615,12.8226 113.5,14.5C 111.393,14.7221 109.726,15.7221 108.5,17.5C 107.646,16.4783 106.646,15.6449 105.5,15C 100.98,14.1864 96.6463,14.353 92.5,15.5C 91.5084,15.3284 90.8417,15.6618 90.5,16.5C 88.2254,17.1112 86.5588,18.4446 85.5,20.5C 85.1984,17.9407 85.5318,15.6074 86.5,13.5C 88.8333,13.5 91.1667,13.5 93.5,13.5C 103.456,13.7513 113.456,13.418 123.5,12.5 Z"/></g>
<g><path style="opacity:1" fill="#b44e5d" d="M 121.5,15.5 C 121.5,20.8333 121.5,26.1667 121.5,31.5C 121.167,31.5 120.833,31.5 120.5,31.5C 120.821,25.9738 120.488,20.6405 119.5,15.5C 117.5,15.5 115.5,15.5 113.5,15.5C 113.5,15.1667 113.5,14.8333 113.5,14.5C 116.615,12.8226 119.282,13.1559 121.5,15.5 Z"/></g>
<g><path style="opacity:1" fill="#a10026" d="M 43.5,47.5 C 42.8333,47.5 42.1667,47.5 41.5,47.5C 41.5,32.8333 41.5,18.1667 41.5,3.5C 42.7079,2.76589 44.0413,2.43255 45.5,2.5C 43.7726,17.4369 43.1059,32.4369 43.5,47.5 Z"/></g>
<g><path style="opacity:1" fill="#9e0025" d="M 53.5,15.5 C 53.5,26.1667 53.5,36.8333 53.5,47.5C 52.5,47.5 51.5,47.5 50.5,47.5C 50.5,36.8333 50.5,26.1667 50.5,15.5C 51.5,15.5 52.5,15.5 53.5,15.5 Z"/></g>
<g><path style="opacity:1" fill="#930d28" d="M 53.5,15.5 C 54.5,15.5 55.5,15.5 56.5,15.5C 56.6665,26.1719 56.4998,36.8385 56,47.5C 55.6264,49.4913 54.793,51.158 53.5,52.5C 52.8485,53.0906 52.1818,53.7573 51.5,54.5C 50.5258,52.2573 50.1924,49.924 50.5,47.5C 51.5,47.5 52.5,47.5 53.5,47.5C 53.5,36.8333 53.5,26.1667 53.5,15.5 Z"/></g>
<g><path style="opacity:1" fill="#fad6cd" d="M 58.5,6.5 C 59.1174,6.61071 59.6174,6.94404 60,7.5C 60.4999,20.8292 60.6666,34.1625 60.5,47.5C 60.5,50.1667 60.5,52.8333 60.5,55.5C 59.8333,42.1667 59.1667,28.8333 58.5,15.5C 58.5,12.5 58.5,9.5 58.5,6.5 Z"/></g>
<g><path style="opacity:1" fill="#f8ecd8" d="M 79.5,34.5 C 78.1266,34.6567 76.7932,34.49 75.5,34C 75.9574,33.586 76.2907,33.086 76.5,32.5C 74.7397,29.7877 74.073,26.7877 74.5,23.5C 74.5,20.8333 74.5,18.1667 74.5,15.5C 75.9449,13.3102 77.2782,10.9769 78.5,8.5C 79.498,17.1411 79.8314,25.8078 79.5,34.5 Z"/></g>
<g><path style="opacity:1" fill="#e499a0" d="M 21.5,11.5 C 22.4614,13.2646 22.7947,15.2646 22.5,17.5C 23.8333,17.5 25.1667,17.5 26.5,17.5C 25.0813,18.4511 23.4147,18.7845 21.5,18.5C 21.5,16.1667 21.5,13.8333 21.5,11.5 Z"/></g>
<g><path style="opacity:1" fill="#93152a" d="M 68.5,7.5 C 70.1667,7.5 71.8333,7.5 73.5,7.5C 73.5,12.8333 73.5,18.1667 73.5,23.5C 74.0803,27.649 73.4136,31.3157 71.5,34.5C 70.1667,34.5 68.8333,34.5 67.5,34.5C 67.3195,25.4719 67.6529,16.4719 68.5,7.5 Z"/></g>
<g><path style="opacity:1" fill="#a00325" d="M 68.5,13.5 C 69.8333,13.5 71.1667,13.5 72.5,13.5C 72.5,20.1667 72.5,26.8333 72.5,33.5C 71.1667,33.5 69.8333,33.5 68.5,33.5C 68.5,26.8333 68.5,20.1667 68.5,13.5 Z"/></g>
<g><path style="opacity:1" fill="#a10123" d="M 81.5,0.5 C 82.8333,0.5 84.1667,0.5 85.5,0.5C 85.5,3.5 85.5,6.5 85.5,9.5C 87.5,9.5 89.5,9.5 91.5,9.5C 91.5,10.5 91.5,11.5 91.5,12.5C 89.5853,12.2155 87.9187,12.5489 86.5,13.5C 85.5318,15.6074 85.1984,17.9407 85.5,20.5C 84.5,20.5 83.5,20.5 82.5,20.5C 82.8205,15.3054 82.4872,10.3054 81.5,5.5C 81.5,5.16667 81.5,4.83333 81.5,4.5C 81.5,3.16667 81.5,1.83333 81.5,0.5 Z"/></g>
<g><path style="opacity:1" fill="#ecb7b4" d="M 90.5,16.5 C 90.5,17.5 90.5,18.5 90.5,19.5C 89.5,19.5 88.5,19.5 87.5,19.5C 86.7279,23.4517 86.3946,27.4517 86.5,31.5C 86.1667,31.5 85.8333,31.5 85.5,31.5C 85.5,27.8333 85.5,24.1667 85.5,20.5C 86.5588,18.4446 88.2254,17.1112 90.5,16.5 Z"/></g>
<g><path style="opacity:1" fill="#f8efdc" d="M 92.5,15.5 C 92.3505,16.552 92.5172,17.552 93,18.5C 95.0266,18.0137 97.1933,18.0137 99.5,18.5C 99.4326,19.9587 99.7659,21.2921 100.5,22.5C 99.5084,22.6716 98.8417,22.3382 98.5,21.5C 96.7354,20.5386 94.7354,20.2053 92.5,20.5C 92.5,24.1667 92.5,27.8333 92.5,31.5C 90.5,31.5 88.5,31.5 86.5,31.5C 86.3946,27.4517 86.7279,23.4517 87.5,19.5C 88.5,19.5 89.5,19.5 90.5,19.5C 90.5,18.5 90.5,17.5 90.5,16.5C 90.8417,15.6618 91.5084,15.3284 92.5,15.5 Z"/></g>
<g><path style="opacity:1" fill="#faecdc" d="M 113.5,15.5 C 115.5,15.5 117.5,15.5 119.5,15.5C 119.666,23.1739 119.5,30.8406 119,38.5C 118.83,32.8042 118.33,27.1376 117.5,21.5C 116.676,24.7848 116.176,28.1182 116,31.5C 115.472,27.3007 114.639,23.3007 113.5,19.5C 112.167,18.1667 112.167,16.8333 113.5,15.5 Z"/></g>
<g><path style="opacity:1" fill="#f6f3da" d="M 92.5,15.5 C 96.8131,14.9905 100.813,15.6571 104.5,17.5C 104.526,30.8429 104.859,44.1762 105.5,57.5C 103.5,57.5 101.5,57.5 99.5,57.5C 98.7769,55.8361 99.1103,54.1694 100.5,52.5C 100.761,42.8181 100.761,33.1514 100.5,23.5C 100.5,23.1667 100.5,22.8333 100.5,22.5C 99.7659,21.2921 99.4326,19.9587 99.5,18.5C 97.1933,18.0137 95.0266,18.0137 93,18.5C 92.5172,17.552 92.3505,16.552 92.5,15.5 Z"/></g>
<g><path style="opacity:1" fill="#a20829" d="M 21.5,18.5 C 22.0283,19.7206 22.695,20.8873 23.5,22C 23.1667,22.3333 22.8333,22.6667 22.5,23C 25.9518,23.8917 28.9518,25.5584 31.5,28C 29.9116,30.4787 27.9116,30.9787 25.5,29.5C 25.1667,29.5 24.8333,29.5 24.5,29.5C 24.1583,28.6618 23.4916,28.3284 22.5,28.5C 20.3021,27.8347 17.9688,27.1681 15.5,26.5C 16.6461,25.2813 17.6461,23.9479 18.5,22.5C 18.8333,23.1667 19.1667,23.8333 19.5,24.5C 20.3857,23.675 20.719,22.675 20.5,21.5C 18.2341,21.1412 16.4007,21.8078 15,23.5C 14.5008,18.8452 14.3342,14.1785 14.5,9.5C 19.4616,10.2848 19.7949,12.1181 15.5,15C 15.6667,15.5 15.8333,16 16,16.5C 17.8148,17.2444 19.6481,17.9111 21.5,18.5 Z"/></g>
<g><path style="opacity:1" fill="#9e2a36" d="M 21.5,11.5 C 21.5,13.8333 21.5,16.1667 21.5,18.5C 19.6481,17.9111 17.8148,17.2444 16,16.5C 15.8333,16 15.6667,15.5 15.5,15C 19.7949,12.1181 19.4616,10.2848 14.5,9.5C 14.3342,14.1785 14.5008,18.8452 15,23.5C 16.4007,21.8078 18.2341,21.1412 20.5,21.5C 20.719,22.675 20.3857,23.675 19.5,24.5C 19.1667,23.8333 18.8333,23.1667 18.5,22.5C 17.6461,23.9479 16.6461,25.2813 15.5,26.5C 17.9688,27.1681 20.3021,27.8347 22.5,28.5C 20.5,28.5 18.5,28.5 16.5,28.5C 15.5,28.5 14.5,28.5 13.5,28.5C 12.5432,21.5226 12.3766,14.5226 13,7.5C 17.3648,5.47905 20.1981,6.81239 21.5,11.5 Z"/></g>
<g><path style="opacity:1" fill="#e9bfbb" d="M 39.5,-0.5 C 39.8333,-0.5 40.1667,-0.5 40.5,-0.5C 40.1699,17.6744 40.5032,35.6744 41.5,53.5C 41.5,54.1667 41.5,54.8333 41.5,55.5C 40.8826,55.3893 40.3826,55.056 40,54.5C 39.8261,49.3165 39.3261,44.3165 38.5,39.5C 38.1858,26.0875 38.5192,12.7541 39.5,-0.5 Z"/></g>
<g><path style="opacity:1" fill="#96353a" d="M 98.5,21.5 C 98.8417,22.3382 99.5084,22.6716 100.5,22.5C 100.5,22.8333 100.5,23.1667 100.5,23.5C 100.665,26.8499 100.498,30.1832 100,33.5C 98.6703,34.5822 97.1703,35.2488 95.5,35.5C 95.8212,33.9519 96.8212,33.2852 98.5,33.5C 98.5,30.1667 98.5,26.8333 98.5,23.5C 97.1779,23.33 96.0113,23.6634 95,24.5C 94.8138,27.0356 94.3138,29.369 93.5,31.5C 93.5,28.1667 93.5,24.8333 93.5,21.5C 95.1667,21.5 96.8333,21.5 98.5,21.5 Z"/></g>
<g><path style="opacity:1" fill="#edadb0" d="M 158.5,16.5 C 159.458,16.9528 160.292,17.6195 161,18.5C 161.81,22.3575 161.643,26.0242 160.5,29.5C 160.945,24.8986 160.278,20.5653 158.5,16.5 Z"/></g>
<g><path style="opacity:1" fill="#e8a6a2" d="M 98.5,21.5 C 96.8333,21.5 95.1667,21.5 93.5,21.5C 93.5,24.8333 93.5,28.1667 93.5,31.5C 91.1667,32.8333 88.8333,32.8333 86.5,31.5C 88.5,31.5 90.5,31.5 92.5,31.5C 92.5,27.8333 92.5,24.1667 92.5,20.5C 94.7354,20.2053 96.7354,20.5386 98.5,21.5 Z"/></g>
<g><path style="opacity:1" fill="#b7696b" d="M 152.5,21.5 C 151.167,21.5 149.833,21.5 148.5,21.5C 148.182,26.0323 148.515,30.3656 149.5,34.5C 149.158,35.3382 148.492,35.6716 147.5,35.5C 147.5,30.5 147.5,25.5 147.5,20.5C 149.415,20.2155 151.081,20.5489 152.5,21.5 Z"/></g>
<g><path style="opacity:1" fill="#c57d7d" d="M 153.5,21.5 C 153.833,21.5 154.167,21.5 154.5,21.5C 154.747,24.9387 154.414,28.272 153.5,31.5C 153.167,31.5 152.833,31.5 152.5,31.5C 153.324,28.2356 153.658,24.9023 153.5,21.5 Z"/></g>
<g><path style="opacity:1" fill="#d68689" d="M 105.5,17.5 C 106.167,23.1667 106.833,28.8333 107.5,34.5C 107.5,37.1667 107.5,39.8333 107.5,42.5C 107.167,42.5 106.833,42.5 106.5,42.5C 105.507,34.3501 105.174,26.0168 105.5,17.5 Z"/></g>
<g><path style="opacity:1" fill="#c98081" d="M 68.5,7.5 C 67.6529,16.4719 67.3195,25.4719 67.5,34.5C 68.8333,34.5 70.1667,34.5 71.5,34.5C 70.0813,35.4511 68.4147,35.7845 66.5,35.5C 66.5,32.8333 66.5,30.1667 66.5,27.5C 66.334,22.1563 66.5006,16.8229 67,11.5C 67.21,9.94186 67.71,8.60853 68.5,7.5 Z"/></g>
<g><path style="opacity:1" fill="#9b0525" d="M 112.5,53.5 C 112.672,54.4916 112.338,55.1583 111.5,55.5C 110.791,54.596 109.791,54.2627 108.5,54.5C 108.802,51.9407 108.468,49.6074 107.5,47.5C 107.5,45.8333 107.5,44.1667 107.5,42.5C 107.5,39.8333 107.5,37.1667 107.5,34.5C 107.335,30.8183 107.501,27.1516 108,23.5C 109.398,22.9491 110.732,22.6158 112,22.5C 112.5,32.828 112.666,43.1613 112.5,53.5 Z"/></g>
<g><path style="opacity:1" fill="#f7e4d5" d="M 154.5,15.5 C 155.167,15.5 155.833,15.5 156.5,15.5C 156.842,16.3382 157.508,16.6716 158.5,16.5C 160.278,20.5653 160.945,24.8986 160.5,29.5C 159.513,33.5073 157.18,36.5073 153.5,38.5C 153.5,36.8333 153.5,35.1667 153.5,33.5C 157.252,33.4993 158.252,31.8326 156.5,28.5C 155.859,29.9935 154.859,30.9935 153.5,31.5C 154.414,28.272 154.747,24.9387 154.5,21.5C 154.123,19.742 153.456,18.0754 152.5,16.5C 152.957,15.7025 153.624,15.3691 154.5,15.5 Z"/></g>
<g><path style="opacity:1" fill="#f5cfc9" d="M 13.5,28.5 C 14.5,28.5 15.5,28.5 16.5,28.5C 18.2646,29.4614 20.2646,29.7947 22.5,29.5C 22.5,31.1667 22.5,32.8333 22.5,34.5C 19.7131,35.4767 16.7131,35.81 13.5,35.5C 13.5,41.1667 13.5,46.8333 13.5,52.5C 12.5151,48.3656 12.1818,44.0323 12.5,39.5C 12.7244,35.8212 13.0578,32.1545 13.5,28.5 Z"/></g>
<g><path style="opacity:1" fill="#fad3cd" d="M 154.5,14.5 C 154.5,14.8333 154.5,15.1667 154.5,15.5C 153.624,15.3691 152.957,15.7025 152.5,16.5C 153.456,18.0754 154.123,19.742 154.5,21.5C 154.167,21.5 153.833,21.5 153.5,21.5C 153.167,21.5 152.833,21.5 152.5,21.5C 151.081,20.5489 149.415,20.2155 147.5,20.5C 147.5,25.5 147.5,30.5 147.5,35.5C 146.305,35.1344 145.639,34.301 145.5,33C 146.412,28.5536 146.745,24.0536 146.5,19.5C 145.178,19.33 144.011,19.6634 143,20.5C 142.251,32.5262 142.418,44.5262 143.5,56.5C 147.253,58.1392 151.253,58.8059 155.5,58.5C 152.375,59.4794 149.042,59.8128 145.5,59.5C 144.833,59.5 144.167,59.5 143.5,59.5C 142.137,56.3376 141.303,53.0043 141,49.5C 140.192,38.7568 140.358,28.0901 141.5,17.5C 145.274,14.738 149.607,13.738 154.5,14.5 Z"/></g>
<g><path style="opacity:1" fill="#941d2b" d="M 152.5,21.5 C 152.833,21.5 153.167,21.5 153.5,21.5C 153.658,24.9023 153.324,28.2356 152.5,31.5C 151.167,32.1667 150.167,33.1667 149.5,34.5C 148.515,30.3656 148.182,26.0323 148.5,21.5C 149.833,21.5 151.167,21.5 152.5,21.5 Z"/></g>
<g><path style="opacity:1" fill="#a85159" d="M 16.5,28.5 C 18.5,28.5 20.5,28.5 22.5,28.5C 23.4916,28.3284 24.1583,28.6618 24.5,29.5C 24.8799,31.698 24.2132,33.3646 22.5,34.5C 22.5,32.8333 22.5,31.1667 22.5,29.5C 20.2646,29.7947 18.2646,29.4614 16.5,28.5 Z"/></g>
<g><path style="opacity:1" fill="#b57073" d="M 79.5,3.5 C 80.1667,3.83333 80.8333,4.16667 81.5,4.5C 81.5,4.83333 81.5,5.16667 81.5,5.5C 81.8276,16.0135 81.4942,26.3468 80.5,36.5C 80.7886,25.4489 80.4553,14.4489 79.5,3.5 Z"/></g>
<g><path style="opacity:1" fill="#f6d6c8" d="M 104.5,17.5 C 104.833,17.5 105.167,17.5 105.5,17.5C 105.174,26.0168 105.507,34.3501 106.5,42.5C 106.5,47.8333 106.5,53.1667 106.5,58.5C 104.833,58.5 103.167,58.5 101.5,58.5C 99.7085,58.366 98.0418,58.6993 96.5,59.5C 93.7718,59.8294 91.4385,59.1628 89.5,57.5C 92.8333,57.5 96.1667,57.5 99.5,57.5C 101.5,57.5 103.5,57.5 105.5,57.5C 104.859,44.1762 104.526,30.8429 104.5,17.5 Z"/></g>
<g><path style="opacity:1" fill="#f8e8d8" d="M 133.5,15.5 C 134.495,26.3206 134.828,37.3206 134.5,48.5C 133.402,54.9793 132.735,61.6459 132.5,68.5C 131.167,68.5 129.833,68.5 128.5,68.5C 128.5,66.8333 128.5,65.1667 128.5,63.5C 129.488,58.3595 129.821,53.0262 129.5,47.5C 130.5,47.5 131.5,47.5 132.5,47.5C 132.455,40.4637 132.288,33.4637 132,26.5C 132.333,26.8333 132.667,27.1667 133,27.5C 133.499,23.5138 133.666,19.5138 133.5,15.5 Z"/></g>
<g><path style="opacity:1" fill="#f2edd7" d="M 147.5,35.5 C 148.492,35.6716 149.158,35.3382 149.5,34.5C 150.167,33.1667 151.167,32.1667 152.5,31.5C 152.833,31.5 153.167,31.5 153.5,31.5C 154.859,30.9935 155.859,29.9935 156.5,28.5C 158.252,31.8326 157.252,33.4993 153.5,33.5C 153.5,35.1667 153.5,36.8333 153.5,38.5C 152.833,38.8333 152.167,39.1667 151.5,39.5C 149.833,39.5 148.167,39.5 146.5,39.5C 146.539,37.6412 145.706,36.3079 144,35.5C 143.154,39.0835 143.654,42.4169 145.5,45.5C 144.963,46.7412 144.296,47.9079 143.5,49C 146.11,54.6046 149.777,55.7713 154.5,52.5C 154.5,51.5 154.5,50.5 154.5,49.5C 155.434,48.4324 155.768,47.099 155.5,45.5C 156.833,45.5 158.167,45.5 159.5,45.5C 159.68,49.682 159.013,53.682 157.5,57.5C 157.5,57.8333 157.5,58.1667 157.5,58.5C 156.833,58.5 156.167,58.5 155.5,58.5C 151.253,58.8059 147.253,58.1392 143.5,56.5C 142.418,44.5262 142.251,32.5262 143,20.5C 144.011,19.6634 145.178,19.33 146.5,19.5C 146.745,24.0536 146.412,28.5536 145.5,33C 145.639,34.301 146.305,35.1344 147.5,35.5 Z"/></g>
<g><path style="opacity:1" fill="#9a0228" d="M -0.5,3.5 C 1.16667,3.5 2.83333,3.5 4.5,3.5C 5.28588,14.4816 5.61922,25.4816 5.5,36.5C 4.52693,38.9479 4.1936,41.6146 4.5,44.5C 3.5,44.5 2.5,44.5 1.5,44.5C 1.71481,46.1788 1.04814,47.1788 -0.5,47.5C -0.5,32.8333 -0.5,18.1667 -0.5,3.5 Z"/></g>
<g><path style="opacity:1" fill="#9d0a28" d="M 31.5,50.5 C 30.2947,49.3281 30.2947,47.9948 31.5,46.5C 31.0431,45.7025 30.3764,45.3691 29.5,45.5C 29.4431,44.391 29.1098,43.391 28.5,42.5C 26.4168,41.0269 24.0835,39.8602 21.5,39C 23.0629,38.2411 24.0629,37.0744 24.5,35.5C 25.3414,33.6208 25.6747,31.6208 25.5,29.5C 27.9116,30.9787 29.9116,30.4787 31.5,28C 28.9518,25.5584 25.9518,23.8917 22.5,23C 22.8333,22.6667 23.1667,22.3333 23.5,22C 22.695,20.8873 22.0283,19.7206 21.5,18.5C 23.4147,18.7845 25.0813,18.4511 26.5,17.5C 27.1667,17.5 27.8333,17.5 28.5,17.5C 29.3255,13.0181 29.8255,8.3514 30,3.5C 30.6667,2.16667 31.3333,2.16667 32,3.5C 32.8023,19.211 32.6357,34.8777 31.5,50.5 Z"/></g>
<g><path style="opacity:1" fill="#9c1228" d="M 95.5,35.5 C 94.4168,35.4606 93.4168,35.1272 92.5,34.5C 84.6559,39.6514 81.6559,37.6514 83.5,28.5C 84.1757,29.6016 84.8423,30.6016 85.5,31.5C 85.8333,31.5 86.1667,31.5 86.5,31.5C 88.8333,32.8333 91.1667,32.8333 93.5,31.5C 94.3138,29.369 94.8138,27.0356 95,24.5C 96.0113,23.6634 97.1779,23.33 98.5,23.5C 98.5,26.8333 98.5,30.1667 98.5,33.5C 96.8212,33.2852 95.8212,33.9519 95.5,35.5 Z"/></g>
<g><path style="opacity:1" fill="#980a28" d="M 121.5,15.5 C 123.5,15.5 125.5,15.5 127.5,15.5C 127.167,26.1667 126.833,36.8333 126.5,47.5C 126.771,49.3797 126.104,50.713 124.5,51.5C 123.5,51.5 122.5,51.5 121.5,51.5C 121.5,44.8333 121.5,38.1667 121.5,31.5C 121.5,26.1667 121.5,20.8333 121.5,15.5 Z"/></g>
<g><path style="opacity:1" fill="#f5f2db" d="M 13.5,28.5 C 13.0578,32.1545 12.7244,35.8212 12.5,39.5C 10.8651,43.573 9.86507,47.9063 9.5,52.5C 7.21019,40.0638 6.87686,27.3971 8.5,14.5C 9.00784,9.37528 10.0078,9.37528 11.5,14.5C 10.2681,17.3004 9.60147,20.3004 9.5,23.5C 9.66667,26.1667 9.83333,28.8333 10,31.5C 10.4709,29.7536 11.1376,28.087 12,26.5C 12.2784,27.4158 12.7784,28.0825 13.5,28.5 Z"/></g>
<g><path style="opacity:1" fill="#f7dccd" d="M 100.5,23.5 C 100.761,33.1514 100.761,42.8181 100.5,52.5C 100.5,48.8333 100.5,45.1667 100.5,41.5C 98.7839,41.6287 97.1172,41.962 95.5,42.5C 96.1534,41.1932 96.8201,39.8599 97.5,38.5C 97.0431,37.7025 96.3764,37.3691 95.5,37.5C 95.5,36.8333 95.5,36.1667 95.5,35.5C 97.1703,35.2488 98.6703,34.5822 100,33.5C 100.498,30.1832 100.665,26.8499 100.5,23.5 Z"/></g>
<g><path style="opacity:1" fill="#9a182f" d="M 156.5,15.5 C 158.766,15.1412 160.599,15.8078 162,17.5C 162.287,23.024 162.787,28.524 163.5,34C 161.936,39.0956 162.603,39.5956 165.5,35.5C 165.5,39.5 165.5,43.5 165.5,47.5C 164.5,47.5 163.5,47.5 162.5,47.5C 162.515,51.5598 162.015,55.5598 161,59.5C 158.49,62.4493 155.49,63.116 152,61.5C 150.135,61.7055 148.468,62.3722 147,63.5C 145.144,62.7977 143.977,61.4643 143.5,59.5C 144.167,59.5 144.833,59.5 145.5,59.5C 148.976,60.6433 152.642,60.8099 156.5,60C 157.056,59.6174 157.389,59.1174 157.5,58.5C 157.5,58.1667 157.5,57.8333 157.5,57.5C 159.335,56.8777 160.502,55.5444 161,53.5C 161.498,50.5184 161.665,47.5184 161.5,44.5C 159.167,44.5 156.833,44.5 154.5,44.5C 154.5,46.1667 154.5,47.8333 154.5,49.5C 154.5,50.5 154.5,51.5 154.5,52.5C 152.33,53.768 150.163,53.768 148,52.5C 147.333,49.1667 147.333,45.8333 148,42.5C 149.145,41.3636 150.312,40.3636 151.5,39.5C 152.167,39.1667 152.833,38.8333 153.5,38.5C 157.18,36.5073 159.513,33.5073 160.5,29.5C 161.643,26.0242 161.81,22.3575 161,18.5C 160.292,17.6195 159.458,16.9528 158.5,16.5C 157.508,16.6716 156.842,16.3382 156.5,15.5 Z"/></g>
<g><path style="opacity:1" fill="#932b36" d="M 24.5,29.5 C 24.8333,29.5 25.1667,29.5 25.5,29.5C 25.6747,31.6208 25.3414,33.6208 24.5,35.5C 21.4583,36.8692 18.2916,37.8692 15,38.5C 14.5008,43.1548 14.3342,47.8215 14.5,52.5C 19.4363,52.059 19.7697,50.559 15.5,48C 16.448,47.5172 17.448,47.3505 18.5,47.5C 18.2606,45.5328 18.5939,43.6995 19.5,42C 22.5547,41.3658 25.5547,41.5325 28.5,42.5C 29.1098,43.391 29.4431,44.391 29.5,45.5C 30.9193,52.0377 28.9193,57.0377 23.5,60.5C 22.8333,60.5 22.1667,60.5 21.5,60.5C 21.5,60.1667 21.5,59.8333 21.5,59.5C 24.5,58.5 26.5,56.5 27.5,53.5C 28.4767,50.7131 28.81,47.7131 28.5,44.5C 26.1667,44.5 23.8333,44.5 21.5,44.5C 21.5,46.8333 21.5,49.1667 21.5,51.5C 20.1295,53.1412 18.2961,54.1412 16,54.5C 14.699,54.3613 13.8656,53.6946 13.5,52.5C 13.5,46.8333 13.5,41.1667 13.5,35.5C 16.7131,35.81 19.7131,35.4767 22.5,34.5C 24.2132,33.3646 24.8799,31.698 24.5,29.5 Z"/></g>
<g><path style="opacity:1" fill="#fbe6d8" d="M 66.5,27.5 C 66.5,30.1667 66.5,32.8333 66.5,35.5C 68.4147,35.7845 70.0813,35.4511 71.5,34.5C 73.4136,31.3157 74.0803,27.649 73.5,23.5C 73.8333,23.5 74.1667,23.5 74.5,23.5C 74.073,26.7877 74.7397,29.7877 76.5,32.5C 76.2907,33.086 75.9574,33.586 75.5,34C 76.7932,34.49 78.1266,34.6567 79.5,34.5C 78.7387,35.3909 77.7387,36.0576 76.5,36.5C 75.6143,37.325 75.281,38.325 75.5,39.5C 73.283,40.3686 70.9496,40.702 68.5,40.5C 66.6565,42.2789 65.9898,44.6122 66.5,47.5C 65.5206,50.6248 65.1872,53.9581 65.5,57.5C 63.8333,57.5 62.1667,57.5 60.5,57.5C 60.5,56.8333 60.5,56.1667 60.5,55.5C 60.5,52.8333 60.5,50.1667 60.5,47.5C 61.4731,49.9479 61.8064,52.6146 61.5,55.5C 62.5,55.5 63.5,55.5 64.5,55.5C 63.1757,47.5682 62.5091,39.5682 62.5,31.5C 63.2216,31.0825 63.7216,30.4158 64,29.5C 64.3333,24.8333 64.6667,20.1667 65,15.5C 65.1762,19.6877 65.6762,23.6877 66.5,27.5 Z"/></g>
<g><path style="opacity:1" fill="#98182c" d="M 81.5,5.5 C 82.4872,10.3054 82.8205,15.3054 82.5,20.5C 83.5,20.5 84.5,20.5 85.5,20.5C 85.5,24.1667 85.5,27.8333 85.5,31.5C 84.8423,30.6016 84.1757,29.6016 83.5,28.5C 81.6559,37.6514 84.6559,39.6514 92.5,34.5C 93.4168,35.1272 94.4168,35.4606 95.5,35.5C 95.5,36.1667 95.5,36.8333 95.5,37.5C 95.1667,37.5 94.8333,37.5 94.5,37.5C 91.7547,38.7381 89.4214,40.5714 87.5,43C 86.3493,47.8216 86.3493,52.6549 87.5,57.5C 86.0689,57.1193 85.2355,56.1193 85,54.5C 84.5034,52.1902 84.3367,49.8568 84.5,47.5C 83.5,47.5 82.5,47.5 81.5,47.5C 81.6204,45.8014 81.9537,44.1347 82.5,42.5C 82.5472,40.9996 81.8805,39.9996 80.5,39.5C 77.3113,42.0567 73.6446,43.0567 69.5,42.5C 69.5,43.5 69.5,44.5 69.5,45.5C 72.0101,45.0535 74.0101,45.7202 75.5,47.5C 74.9348,49.3864 73.9348,51.0531 72.5,52.5C 71.7492,51.624 71.2492,50.624 71,49.5C 70.3345,54.1561 69.8345,58.8228 69.5,63.5C 68.1667,63.5 66.8333,63.5 65.5,63.5C 65.5,62.5 65.5,61.5 65.5,60.5C 66.1174,60.3893 66.6174,60.056 67,59.5C 67.2068,53.0865 67.7068,46.7531 68.5,40.5C 70.9496,40.702 73.283,40.3686 75.5,39.5C 77.674,39.2503 79.3406,38.2503 80.5,36.5C 81.4942,26.3468 81.8276,16.0135 81.5,5.5 Z"/></g>
<g><path style="opacity:1" fill="#9b1129" d="M 24.5,35.5 C 24.0629,37.0744 23.0629,38.2411 21.5,39C 24.0835,39.8602 26.4168,41.0269 28.5,42.5C 25.5547,41.5325 22.5547,41.3658 19.5,42C 18.5939,43.6995 18.2606,45.5328 18.5,47.5C 17.448,47.3505 16.448,47.5172 15.5,48C 19.7697,50.559 19.4363,52.059 14.5,52.5C 14.3342,47.8215 14.5008,43.1548 15,38.5C 18.2916,37.8692 21.4583,36.8692 24.5,35.5 Z"/></g>
<g><path style="opacity:1" fill="#fad9cd" d="M 151.5,39.5 C 150.312,40.3636 149.145,41.3636 148,42.5C 147.333,45.8333 147.333,49.1667 148,52.5C 150.163,53.768 152.33,53.768 154.5,52.5C 149.777,55.7713 146.11,54.6046 143.5,49C 144.296,47.9079 144.963,46.7412 145.5,45.5C 143.654,42.4169 143.154,39.0835 144,35.5C 145.706,36.3079 146.539,37.6412 146.5,39.5C 148.167,39.5 149.833,39.5 151.5,39.5 Z"/></g>
<g><path style="opacity:1" fill="#f5f0d9" d="M 62.5,31.5 C 62.5091,39.5682 63.1757,47.5682 64.5,55.5C 63.5,55.5 62.5,55.5 61.5,55.5C 61.8064,52.6146 61.4731,49.9479 60.5,47.5C 60.6666,34.1625 60.4999,20.8292 60,7.5C 59.6174,6.94404 59.1174,6.61071 58.5,6.5C 58.5,6.16667 58.5,5.83333 58.5,5.5C 59.4919,3.9735 60.9919,3.30684 63,3.5C 64.1667,3.83333 65.3333,4.16667 66.5,4.5C 66.1083,8.46161 64.9416,12.1283 63,15.5C 62.5006,20.8229 62.334,26.1563 62.5,31.5 Z"/></g>
<g><path style="opacity:1" fill="#9d2638" d="M 92.5,15.5 C 96.6463,14.353 100.98,14.1864 105.5,15C 106.646,15.6449 107.646,16.4783 108.5,17.5C 109.726,15.7221 111.393,14.7221 113.5,14.5C 113.5,14.8333 113.5,15.1667 113.5,15.5C 112.167,16.8333 112.167,18.1667 113.5,19.5C 113.334,31.1871 113.667,42.8538 114.5,54.5C 113.833,54.1667 113.167,53.8333 112.5,53.5C 112.666,43.1613 112.5,32.828 112,22.5C 110.732,22.6158 109.398,22.9491 108,23.5C 107.501,27.1516 107.335,30.8183 107.5,34.5C 106.833,28.8333 106.167,23.1667 105.5,17.5C 105.167,17.5 104.833,17.5 104.5,17.5C 100.813,15.6571 96.8131,14.9905 92.5,15.5 Z"/></g>
<g><path style="opacity:1" fill="#cc757f" d="M 135.5,14.5 C 135.829,28.3435 135.496,42.0102 134.5,55.5C 134.5,53.1667 134.5,50.8333 134.5,48.5C 134.828,37.3206 134.495,26.3206 133.5,15.5C 132.167,15.5 130.833,15.5 129.5,15.5C 128.765,26.188 127.765,36.8546 126.5,47.5C 126.833,36.8333 127.167,26.1667 127.5,15.5C 129.948,14.5269 132.615,14.1936 135.5,14.5 Z"/></g>
<g><path style="opacity:1" fill="#f4e9d6" d="M 129.5,15.5 C 130.833,15.5 132.167,15.5 133.5,15.5C 133.666,19.5138 133.499,23.5138 133,27.5C 132.667,27.1667 132.333,26.8333 132,26.5C 132.288,33.4637 132.455,40.4637 132.5,47.5C 131.5,47.5 130.5,47.5 129.5,47.5C 129.5,36.8333 129.5,26.1667 129.5,15.5 Z"/></g>
<g><path style="opacity:1" fill="#8d1c2e" d="M 5.5,36.5 C 5.18503,40.3714 5.51836,44.0381 6.5,47.5C 5.59247,58.5552 10.5925,62.8886 21.5,60.5C 17.3537,61.647 13.0204,61.8136 8.5,61C 5.33526,56.0255 4.00193,50.5255 4.5,44.5C 4.1936,41.6146 4.52693,38.9479 5.5,36.5 Z"/></g>
<g><path style="opacity:1" fill="#cd8485" d="M 19.5,-0.5 C 24.5,-0.5 29.5,-0.5 34.5,-0.5C 34.5,18.8333 34.5,38.1667 34.5,57.5C 33.8333,57.5 33.5,57.1667 33.5,56.5C 33.5,37.8333 33.5,19.1667 33.5,0.5C 29.8183,0.334703 26.1516,0.50137 22.5,1C 23.056,1.38258 23.3893,1.88258 23.5,2.5C 21.5956,2.26242 20.2623,1.26242 19.5,-0.5 Z"/></g>
<g><path style="opacity:1" fill="#961d35" d="M 143.5,12.5 C 147.649,11.9197 151.316,12.5864 154.5,14.5C 149.607,13.738 145.274,14.738 141.5,17.5C 141.179,15.9519 140.179,15.2852 138.5,15.5C 136.707,32.1466 135.707,49.1466 135.5,66.5C 135.5,67.8333 135.5,69.1667 135.5,70.5C 145.5,70.5 155.5,70.5 165.5,70.5C 165.5,70.8333 165.5,71.1667 165.5,71.5C 154.833,71.5 144.167,71.5 133.5,71.5C 134.4,66.228 134.733,60.8947 134.5,55.5C 135.496,42.0102 135.829,28.3435 135.5,14.5C 138.385,14.8064 141.052,14.4731 143.5,13.5C 143.5,13.1667 143.5,12.8333 143.5,12.5 Z"/></g>
<g><path style="opacity:1" fill="#ecaaaa" d="M 94.5,37.5 C 92.2912,39.8709 90.2912,42.3709 88.5,45C 88.2935,46.366 87.9602,47.6994 87.5,49C 88.6868,51.7236 89.3535,54.5569 89.5,57.5C 91.4385,59.1628 93.7718,59.8294 96.5,59.5C 96.5,59.8333 96.5,60.1667 96.5,60.5C 94.1432,60.6633 91.8098,60.4966 89.5,60C 88.9341,59.0053 88.2674,58.172 87.5,57.5C 86.3493,52.6549 86.3493,47.8216 87.5,43C 89.4214,40.5714 91.7547,38.7381 94.5,37.5 Z"/></g>
<g><path style="opacity:1" fill="#c27475" d="M 100.5,52.5 C 100.167,52.5 99.8333,52.5 99.5,52.5C 99.5,49.5 99.5,46.5 99.5,43.5C 98.1667,43.5 96.8333,43.5 95.5,43.5C 95.5,43.1667 95.5,42.8333 95.5,42.5C 97.1172,41.962 98.7839,41.6287 100.5,41.5C 100.5,45.1667 100.5,48.8333 100.5,52.5 Z"/></g>
<g><path style="opacity:1" fill="#cb7a80" d="M 120.5,31.5 C 120.833,31.5 121.167,31.5 121.5,31.5C 121.5,38.1667 121.5,44.8333 121.5,51.5C 122.5,51.5 123.5,51.5 124.5,51.5C 124.5,51.8333 124.5,52.1667 124.5,52.5C 123.167,52.5 121.833,52.5 120.5,52.5C 120.5,45.5 120.5,38.5 120.5,31.5 Z"/></g>
<g><path style="opacity:1" fill="#9f2636" d="M 95.5,43.5 C 96.8333,43.5 98.1667,43.5 99.5,43.5C 99.5,46.5 99.5,49.5 99.5,52.5C 99.1667,52.5 98.8333,52.5 98.5,52.5C 97.1667,52.5 95.8333,52.5 94.5,52.5C 94.3677,49.4299 94.701,46.4299 95.5,43.5 Z"/></g>
<g><path style="opacity:1" fill="#f7dcce" d="M 129.5,15.5 C 129.5,26.1667 129.5,36.8333 129.5,47.5C 129.821,53.0262 129.488,58.3595 128.5,63.5C 128.5,61.5 128.5,59.5 128.5,57.5C 125.482,57.6646 122.482,57.498 119.5,57C 118.619,56.2917 117.953,55.4584 117.5,54.5C 119.833,53.8333 122.167,53.1667 124.5,52.5C 124.5,52.1667 124.5,51.8333 124.5,51.5C 126.104,50.713 126.771,49.3797 126.5,47.5C 127.765,36.8546 128.765,26.188 129.5,15.5 Z"/></g>
<g><path style="opacity:1" fill="#e9adac" d="M 27.5,53.5 C 27.5,50.8333 27.5,48.1667 27.5,45.5C 25.8333,45.5 24.1667,45.5 22.5,45.5C 22.7947,47.7354 22.4614,49.7354 21.5,51.5C 21.5,49.1667 21.5,46.8333 21.5,44.5C 23.8333,44.5 26.1667,44.5 28.5,44.5C 28.81,47.7131 28.4767,50.7131 27.5,53.5 Z"/></g>
<g><path style="opacity:1" fill="#9f0c28" d="M 87.5,57.5 C 87.5,58.8333 87.5,60.1667 87.5,61.5C 95.1447,61.1119 102.645,61.7785 110,63.5C 110.333,62.8333 110.667,62.1667 111,61.5C 111.399,61.7284 111.565,62.0618 111.5,62.5C 105.588,64.4563 99.2547,65.1229 92.5,64.5C 92.189,63.5222 91.5223,62.8555 90.5,62.5C 87.9159,63.3928 85.2492,63.7261 82.5,63.5C 82.6653,59.8183 82.4986,56.1516 82,52.5C 78.99,51.6558 77.49,52.9891 77.5,56.5C 77.6692,58.8395 78.3358,61.0061 79.5,63C 77.5273,63.4955 75.5273,63.6621 73.5,63.5C 73.252,57.9559 73.9187,52.6226 75.5,47.5C 74.0101,45.7202 72.0101,45.0535 69.5,45.5C 69.5,44.5 69.5,43.5 69.5,42.5C 73.6446,43.0567 77.3113,42.0567 80.5,39.5C 81.8805,39.9996 82.5472,40.9996 82.5,42.5C 81.9537,44.1347 81.6204,45.8014 81.5,47.5C 82.5,47.5 83.5,47.5 84.5,47.5C 84.3367,49.8568 84.5034,52.1902 85,54.5C 85.2355,56.1193 86.0689,57.1193 87.5,57.5 Z"/></g>
<g><path style="opacity:1" fill="#982031" d="M 138.5,15.5 C 140.179,15.2852 141.179,15.9519 141.5,17.5C 140.358,28.0901 140.192,38.7568 141,49.5C 141.303,53.0043 142.137,56.3376 143.5,59.5C 142.292,60.2341 140.959,60.5674 139.5,60.5C 138.771,45.5113 138.438,30.5113 138.5,15.5 Z"/></g>
<g><path style="opacity:1" fill="#a30a29" d="M 58.5,15.5 C 58.5,26.1667 58.5,36.8333 58.5,47.5C 57.8339,50.6893 57.1672,54.0227 56.5,57.5C 55.8333,57.8333 55.1667,58.1667 54.5,58.5C 53.5344,56.604 53.2011,54.604 53.5,52.5C 54.793,51.158 55.6264,49.4913 56,47.5C 56.4998,36.8385 56.6665,26.1719 56.5,15.5C 55.5,15.5 54.5,15.5 53.5,15.5C 53.7507,12.091 53.4173,8.75768 52.5,5.5C 53.325,4.61432 54.325,4.28099 55.5,4.5C 55.7202,8.47798 56.7202,12.1446 58.5,15.5 Z"/></g>
<g><path style="opacity:1" fill="#f7ecdb" d="M 38.5,39.5 C 39.3261,44.3165 39.8261,49.3165 40,54.5C 40.3826,55.056 40.8826,55.3893 41.5,55.5C 43.0497,58.317 42.0497,59.6503 38.5,59.5C 36.9704,59.3601 35.9704,58.6935 35.5,57.5C 35.6245,51.2303 36.6245,45.2303 38.5,39.5 Z"/></g>
<g><path style="opacity:1" fill="#a00125" d="M 47.5,15.5 C 47.512,26.3591 48.1787,37.0258 49.5,47.5C 49.6643,52.4855 48.1643,56.8188 45,60.5C 44.4167,56.1679 43.9167,51.8346 43.5,47.5C 44.5,47.5 45.5,47.5 46.5,47.5C 46.1722,36.6536 46.5056,25.9869 47.5,15.5 Z"/></g>
<g><path style="opacity:1" fill="#e9c6bc" d="M 119.5,15.5 C 120.488,20.6405 120.821,25.9738 120.5,31.5C 120.5,38.5 120.5,45.5 120.5,52.5C 121.833,52.5 123.167,52.5 124.5,52.5C 122.167,53.1667 119.833,53.8333 117.5,54.5C 116.833,54.5 116.167,54.5 115.5,54.5C 115.167,54.5 114.833,54.5 114.5,54.5C 113.667,42.8538 113.334,31.1871 113.5,19.5C 114.639,23.3007 115.472,27.3007 116,31.5C 116.176,28.1182 116.676,24.7848 117.5,21.5C 118.33,27.1376 118.83,32.8042 119,38.5C 119.5,30.8406 119.666,23.1739 119.5,15.5 Z"/></g>
<g><path style="opacity:1" fill="#af4653" d="M 68.5,40.5 C 67.7068,46.7531 67.2068,53.0865 67,59.5C 66.6174,60.056 66.1174,60.3893 65.5,60.5C 63.6943,59.9759 62.0276,59.3092 60.5,58.5C 62.5,58.5 64.5,58.5 66.5,58.5C 66.5,54.8333 66.5,51.1667 66.5,47.5C 65.9898,44.6122 66.6565,42.2789 68.5,40.5 Z"/></g>
<g><path style="opacity:1" fill="#f6c4c6" d="M 157.5,57.5 C 159.013,53.682 159.68,49.682 159.5,45.5C 158.167,45.5 156.833,45.5 155.5,45.5C 155.768,47.099 155.434,48.4324 154.5,49.5C 154.5,47.8333 154.5,46.1667 154.5,44.5C 156.833,44.5 159.167,44.5 161.5,44.5C 161.665,47.5184 161.498,50.5184 161,53.5C 160.502,55.5444 159.335,56.8777 157.5,57.5 Z"/></g>
<g><path style="opacity:1" fill="#b46567" d="M 95.5,43.5 C 94.701,46.4299 94.3677,49.4299 94.5,52.5C 95.8333,52.5 97.1667,52.5 98.5,52.5C 96.4537,53.9653 94.6204,53.632 93,51.5C 91.8343,48.0732 92.6676,45.4065 95.5,43.5 Z"/></g>
<g><path style="opacity:1" fill="#f7babc" d="M 106.5,42.5 C 106.833,42.5 107.167,42.5 107.5,42.5C 107.5,44.1667 107.5,45.8333 107.5,47.5C 107.553,51.3326 108.053,54.9993 109,58.5C 106.395,59.8143 103.895,59.8143 101.5,58.5C 103.167,58.5 104.833,58.5 106.5,58.5C 106.5,53.1667 106.5,47.8333 106.5,42.5 Z"/></g>
<g><path style="opacity:1" fill="#9c3342" d="M 107.5,47.5 C 108.468,49.6074 108.802,51.9407 108.5,54.5C 109.791,54.2627 110.791,54.596 111.5,55.5C 112.035,58.2385 111.035,60.0718 108.5,61C 104.541,60.8418 100.541,60.6751 96.5,60.5C 96.5,60.1667 96.5,59.8333 96.5,59.5C 98.0418,58.6993 99.7085,58.366 101.5,58.5C 103.895,59.8143 106.395,59.8143 109,58.5C 108.053,54.9993 107.553,51.3326 107.5,47.5 Z"/></g>
<g><path style="opacity:1" fill="#f8eada" d="M 12.5,39.5 C 12.1818,44.0323 12.5151,48.3656 13.5,52.5C 13.8656,53.6946 14.699,54.3613 16,54.5C 18.2961,54.1412 20.1295,53.1412 21.5,51.5C 22.4614,49.7354 22.7947,47.7354 22.5,45.5C 24.1667,45.5 25.8333,45.5 27.5,45.5C 27.5,48.1667 27.5,50.8333 27.5,53.5C 26.5,56.5 24.5,58.5 21.5,59.5C 17.7267,59.7367 14.0601,59.2367 10.5,58C 9.59391,56.3005 9.26057,54.4672 9.5,52.5C 9.86507,47.9063 10.8651,43.573 12.5,39.5 Z"/></g>
<g><path style="opacity:1" fill="#f7ecd8" d="M 94.5,37.5 C 94.8333,37.5 95.1667,37.5 95.5,37.5C 96.3764,37.3691 97.0431,37.7025 97.5,38.5C 96.8201,39.8599 96.1534,41.1932 95.5,42.5C 95.5,42.8333 95.5,43.1667 95.5,43.5C 92.6676,45.4065 91.8343,48.0732 93,51.5C 94.6204,53.632 96.4537,53.9653 98.5,52.5C 98.8333,52.5 99.1667,52.5 99.5,52.5C 99.8333,52.5 100.167,52.5 100.5,52.5C 99.1103,54.1694 98.7769,55.8361 99.5,57.5C 96.1667,57.5 92.8333,57.5 89.5,57.5C 89.3535,54.5569 88.6868,51.7236 87.5,49C 87.9602,47.6994 88.2935,46.366 88.5,45C 90.2912,42.3709 92.2912,39.8709 94.5,37.5 Z"/></g>
<g><path style="opacity:1" fill="#9d0223" d="M 138.5,15.5 C 138.438,30.5113 138.771,45.5113 139.5,60.5C 138.978,62.047 138.644,64.047 138.5,66.5C 137.5,66.5 136.5,66.5 135.5,66.5C 135.707,49.1466 136.707,32.1466 138.5,15.5 Z"/></g>
<g><path style="opacity:1" fill="#d68e91" d="M 115.5,54.5 C 116.167,54.5 116.833,54.5 117.5,54.5C 117.953,55.4584 118.619,56.2917 119.5,57C 122.482,57.498 125.482,57.6646 128.5,57.5C 128.5,59.5 128.5,61.5 128.5,63.5C 128.167,63.5 127.833,63.5 127.5,63.5C 127.5,61.8333 127.5,60.1667 127.5,58.5C 123.513,58.9903 119.846,58.3236 116.5,56.5C 116.167,55.8333 115.833,55.1667 115.5,54.5 Z"/></g>
<g><path style="opacity:1" fill="#df999d" d="M 155.5,58.5 C 156.167,58.5 156.833,58.5 157.5,58.5C 157.389,59.1174 157.056,59.6174 156.5,60C 152.642,60.8099 148.976,60.6433 145.5,59.5C 149.042,59.8128 152.375,59.4794 155.5,58.5 Z"/></g>
<g><path style="opacity:1" fill="#9d0326" d="M 4.5,44.5 C 4.00193,50.5255 5.33526,56.0255 8.5,61C 13.0204,61.8136 17.3537,61.647 21.5,60.5C 22.1667,60.5 22.8333,60.5 23.5,60.5C 24.8333,60.5 26.1667,60.5 27.5,60.5C 27.6399,62.1238 26.9733,63.2904 25.5,64C 38.1623,64.4999 50.8289,64.6666 63.5,64.5C 73.1667,64.5 82.8333,64.5 92.5,64.5C 99.2547,65.1229 105.588,64.4563 111.5,62.5C 112.791,63.5417 112.791,64.7083 111.5,66C 101.506,66.4998 91.5056,66.6665 81.5,66.5C 54.1667,66.5 26.8333,66.5 -0.5,66.5C -0.5,60.1667 -0.5,53.8333 -0.5,47.5C 1.04814,47.1788 1.71481,46.1788 1.5,44.5C 2.5,44.5 3.5,44.5 4.5,44.5 Z"/></g>
<g><path style="opacity:1" fill="#992130" d="M 58.5,15.5 C 59.1667,28.8333 59.8333,42.1667 60.5,55.5C 60.5,56.1667 60.5,56.8333 60.5,57.5C 60.5,57.8333 60.5,58.1667 60.5,58.5C 62.0276,59.3092 63.6943,59.9759 65.5,60.5C 65.5,61.5 65.5,62.5 65.5,63.5C 66.8333,63.5 68.1667,63.5 69.5,63.5C 69.8345,58.8228 70.3345,54.1561 71,49.5C 71.2492,50.624 71.7492,51.624 72.5,52.5C 73.9348,51.0531 74.9348,49.3864 75.5,47.5C 73.9187,52.6226 73.252,57.9559 73.5,63.5C 75.5273,63.6621 77.5273,63.4955 79.5,63C 78.3358,61.0061 77.6692,58.8395 77.5,56.5C 77.49,52.9891 78.99,51.6558 82,52.5C 82.4986,56.1516 82.6653,59.8183 82.5,63.5C 85.2492,63.7261 87.9159,63.3928 90.5,62.5C 91.5223,62.8555 92.189,63.5222 92.5,64.5C 82.8333,64.5 73.1667,64.5 63.5,64.5C 63.5,63.1667 63.5,61.8333 63.5,60.5C 61.549,60.7733 60.049,60.1066 59,58.5C 58.5014,54.8484 58.3347,51.1817 58.5,47.5C 58.5,36.8333 58.5,26.1667 58.5,15.5 Z"/></g>
<g><path style="opacity:1" fill="#cf8689" d="M 66.5,47.5 C 66.5,51.1667 66.5,54.8333 66.5,58.5C 64.5,58.5 62.5,58.5 60.5,58.5C 60.5,58.1667 60.5,57.8333 60.5,57.5C 62.1667,57.5 63.8333,57.5 65.5,57.5C 65.1872,53.9581 65.5206,50.6248 66.5,47.5 Z"/></g>
<g><path style="opacity:1" fill="#d4878e" d="M 120.5,61.5 C 121.461,63.2646 121.795,65.2646 121.5,67.5C 123.5,67.5 125.5,67.5 127.5,67.5C 125.401,68.6118 123.067,69.2785 120.5,69.5C 120.5,67.1667 120.5,64.8333 120.5,62.5C 118.585,62.2155 116.919,62.5489 115.5,63.5C 115.167,63.5 114.833,63.5 114.5,63.5C 115.918,61.6921 117.918,61.0254 120.5,61.5 Z"/></g>
<g><path style="opacity:1" fill="#9c0126" d="M 165.5,47.5 C 165.5,55.1667 165.5,62.8333 165.5,70.5C 155.5,70.5 145.5,70.5 135.5,70.5C 135.5,69.1667 135.5,67.8333 135.5,66.5C 136.5,66.5 137.5,66.5 138.5,66.5C 138.644,64.047 138.978,62.047 139.5,60.5C 140.959,60.5674 142.292,60.2341 143.5,59.5C 143.977,61.4643 145.144,62.7977 147,63.5C 148.468,62.3722 150.135,61.7055 152,61.5C 155.49,63.116 158.49,62.4493 161,59.5C 162.015,55.5598 162.515,51.5598 162.5,47.5C 163.5,47.5 164.5,47.5 165.5,47.5 Z"/></g>
<g><path style="opacity:1" fill="#980f28" d="M 29.5,45.5 C 30.3764,45.3691 31.0431,45.7025 31.5,46.5C 30.2947,47.9948 30.2947,49.3281 31.5,50.5C 31.0535,53.0101 31.7202,55.0101 33.5,56.5C 33.5,57.1667 33.8333,57.5 34.5,57.5C 34.8333,57.5 35.1667,57.5 35.5,57.5C 35.9704,58.6935 36.9704,59.3601 38.5,59.5C 42.0497,59.6503 43.0497,58.317 41.5,55.5C 41.5,54.8333 41.5,54.1667 41.5,53.5C 41.5,51.5 41.5,49.5 41.5,47.5C 42.1667,47.5 42.8333,47.5 43.5,47.5C 43.9167,51.8346 44.4167,56.1679 45,60.5C 48.1643,56.8188 49.6643,52.4855 49.5,47.5C 49.8333,47.5 50.1667,47.5 50.5,47.5C 50.1924,49.924 50.5258,52.2573 51.5,54.5C 52.1818,53.7573 52.8485,53.0906 53.5,52.5C 53.2011,54.604 53.5344,56.604 54.5,58.5C 55.1667,58.1667 55.8333,57.8333 56.5,57.5C 57.1672,54.0227 57.8339,50.6893 58.5,47.5C 58.3347,51.1817 58.5014,54.8484 59,58.5C 60.049,60.1066 61.549,60.7733 63.5,60.5C 63.5,61.8333 63.5,63.1667 63.5,64.5C 50.8289,64.6666 38.1623,64.4999 25.5,64C 26.9733,63.2904 27.6399,62.1238 27.5,60.5C 26.1667,60.5 24.8333,60.5 23.5,60.5C 28.9193,57.0377 30.9193,52.0377 29.5,45.5 Z"/></g>
<g><path style="opacity:1" fill="#9b0e29" d="M 116.5,56.5 C 119.846,58.3236 123.513,58.9903 127.5,58.5C 127.5,60.1667 127.5,61.8333 127.5,63.5C 127.5,64.8333 127.5,66.1667 127.5,67.5C 125.5,67.5 123.5,67.5 121.5,67.5C 121.795,65.2646 121.461,63.2646 120.5,61.5C 118.393,60.5318 116.059,60.1984 113.5,60.5C 113.5,59.1667 113.5,57.8333 113.5,56.5C 114.5,56.5 115.5,56.5 116.5,56.5 Z"/></g>
<g><path style="opacity:1" fill="#930927" d="M -0.5,66.5 C 26.8333,66.5 54.1667,66.5 81.5,66.5C 80.8333,67.1667 80.1667,67.8333 79.5,68.5C 52.8333,68.5 26.1667,68.5 -0.5,68.5C -0.5,67.8333 -0.5,67.1667 -0.5,66.5 Z"/></g>
<g><path style="opacity:1" fill="#96102c" d="M 112.5,53.5 C 113.167,53.8333 113.833,54.1667 114.5,54.5C 114.833,54.5 115.167,54.5 115.5,54.5C 115.833,55.1667 116.167,55.8333 116.5,56.5C 115.5,56.5 114.5,56.5 113.5,56.5C 113.5,57.8333 113.5,59.1667 113.5,60.5C 116.059,60.1984 118.393,60.5318 120.5,61.5C 117.918,61.0254 115.918,61.6921 114.5,63.5C 114.5,65.5 114.5,67.5 114.5,69.5C 114.158,70.3382 113.492,70.6716 112.5,70.5C 112.649,69.448 112.483,68.448 112,67.5C 101.248,68.487 90.415,68.8203 79.5,68.5C 80.1667,67.8333 80.8333,67.1667 81.5,66.5C 91.5056,66.6665 101.506,66.4998 111.5,66C 112.791,64.7083 112.791,63.5417 111.5,62.5C 111.565,62.0618 111.399,61.7284 111,61.5C 110.667,62.1667 110.333,62.8333 110,63.5C 102.645,61.7785 95.1447,61.1119 87.5,61.5C 87.5,60.1667 87.5,58.8333 87.5,57.5C 88.2674,58.172 88.9341,59.0053 89.5,60C 91.8098,60.4966 94.1432,60.6633 96.5,60.5C 100.541,60.6751 104.541,60.8418 108.5,61C 111.035,60.0718 112.035,58.2385 111.5,55.5C 112.338,55.1583 112.672,54.4916 112.5,53.5 Z"/></g>
<g><path style="opacity:1" fill="#a3022a" d="M 112.5,70.5 C 74.8333,70.5 37.1667,70.5 -0.5,70.5C -0.5,69.8333 -0.5,69.1667 -0.5,68.5C 26.1667,68.5 52.8333,68.5 79.5,68.5C 90.415,68.8203 101.248,68.487 112,67.5C 112.483,68.448 112.649,69.448 112.5,70.5 Z"/></g>
<g><path style="opacity:1" fill="#f9d1d1" d="M 134.5,48.5 C 134.5,50.8333 134.5,53.1667 134.5,55.5C 134.733,60.8947 134.4,66.228 133.5,71.5C 130.756,71.7521 128.256,71.0855 126,69.5C 122.843,70.9073 119.676,71.9073 116.5,72.5C 77.5,72.5 38.5,72.5 -0.5,72.5C -0.5,72.1667 -0.5,71.8333 -0.5,71.5C 38.1724,71.8332 76.8391,71.4999 115.5,70.5C 115.376,69.8933 115.043,69.56 114.5,69.5C 114.5,67.5 114.5,65.5 114.5,63.5C 114.833,63.5 115.167,63.5 115.5,63.5C 116.919,62.5489 118.585,62.2155 120.5,62.5C 120.5,64.8333 120.5,67.1667 120.5,69.5C 123.067,69.2785 125.401,68.6118 127.5,67.5C 127.5,66.1667 127.5,64.8333 127.5,63.5C 127.833,63.5 128.167,63.5 128.5,63.5C 128.5,65.1667 128.5,66.8333 128.5,68.5C 129.833,68.5 131.167,68.5 132.5,68.5C 132.735,61.6459 133.402,54.9793 134.5,48.5 Z"/></g>
<g><path style="opacity:1" fill="#f2f9e1" d="M 115.5,63.5 C 116.833,63.5 118.167,63.5 119.5,63.5C 119.833,66.5 118.5,67.8333 115.5,67.5C 115.5,66.1667 115.5,64.8333 115.5,63.5 Z"/></g>
<g><path style="opacity:1" fill="#8b112e" d="M 114.5,69.5 C 115.043,69.56 115.376,69.8933 115.5,70.5C 76.8391,71.4999 38.1724,71.8332 -0.5,71.5C -0.5,71.1667 -0.5,70.8333 -0.5,70.5C 37.1667,70.5 74.8333,70.5 112.5,70.5C 113.492,70.6716 114.158,70.3382 114.5,69.5 Z"/></g>
<g><path style="opacity:1" fill="#fae4e2" d="M 133.5,71.5 C 144.167,71.5 154.833,71.5 165.5,71.5C 165.5,71.8333 165.5,72.1667 165.5,72.5C 149.167,72.5 132.833,72.5 116.5,72.5C 119.676,71.9073 122.843,70.9073 126,69.5C 128.256,71.0855 130.756,71.7521 133.5,71.5 Z"/></g>
</svg>
